G04 EAGLE Gerber RS-274X export*
G75*
%MOMM*%
%FSLAX34Y34*%
%LPD*%
%INSolderpaste Top*%
%IPPOS*%
%AMOC8*
5,1,8,0,0,1.08239X$1,22.5*%
G01*
%ADD10R,1.500000X2.000000*%
%ADD11R,1.050000X1.080000*%
%ADD12R,1.080000X1.050000*%
%ADD13R,1.538200X0.568000*%
%ADD14R,1.600000X0.800000*%
%ADD15R,2.200000X0.600000*%
%ADD16R,0.650000X1.650000*%
%ADD17R,1.803000X1.600000*%
%ADD18R,1.100000X1.000000*%
%ADD19R,1.000000X1.100000*%
%ADD20R,0.608600X0.469600*%
%ADD21R,1.600000X1.803000*%
%ADD22R,1.462000X0.239400*%
%ADD23R,0.239400X1.462000*%
%ADD24R,0.468000X0.972300*%
%ADD25R,0.568000X1.454900*%
%ADD26C,0.450000*%
%ADD27R,1.327900X0.441000*%
%ADD28R,1.512800X0.542600*%
%ADD29R,0.972300X0.468000*%
%ADD30R,1.800000X1.200000*%

G36*
X143652Y702225D02*
X143652Y702225D01*
X143654Y702224D01*
X143697Y702244D01*
X143741Y702262D01*
X143741Y702264D01*
X143743Y702265D01*
X143776Y702350D01*
X143776Y721250D01*
X143775Y721252D01*
X143776Y721254D01*
X143756Y721297D01*
X143738Y721341D01*
X143736Y721341D01*
X143735Y721343D01*
X143650Y721376D01*
X127950Y721376D01*
X127948Y721375D01*
X127946Y721376D01*
X127903Y721356D01*
X127859Y721338D01*
X127859Y721336D01*
X127857Y721335D01*
X127824Y721250D01*
X127824Y702350D01*
X127825Y702348D01*
X127824Y702346D01*
X127844Y702303D01*
X127862Y702259D01*
X127864Y702259D01*
X127865Y702257D01*
X127950Y702224D01*
X143650Y702224D01*
X143652Y702225D01*
G37*
D10*
X69600Y244000D03*
X39600Y244000D03*
D11*
X351150Y444600D03*
X368650Y444600D03*
D12*
X279400Y387210D03*
X279400Y369710D03*
X299600Y387190D03*
X299600Y369690D03*
X317500Y387210D03*
X317500Y369710D03*
D11*
X214550Y494600D03*
X232050Y494600D03*
D10*
X183800Y644000D03*
X153800Y644000D03*
D11*
X536250Y585400D03*
X518750Y585400D03*
D12*
X275400Y140330D03*
X275400Y157830D03*
X293330Y235390D03*
X293330Y217890D03*
D10*
X57450Y371070D03*
X27450Y371070D03*
D11*
X179440Y435800D03*
X196940Y435800D03*
X179550Y415400D03*
X197050Y415400D03*
X155550Y314600D03*
X173050Y314600D03*
X85250Y55400D03*
X67750Y55400D03*
D12*
X124630Y197850D03*
X124630Y180350D03*
X143610Y197880D03*
X143610Y180380D03*
D11*
X351250Y466270D03*
X368750Y466270D03*
D13*
X122603Y818850D03*
X122603Y806150D03*
X122603Y793450D03*
X122603Y780750D03*
X176197Y780750D03*
X176197Y793450D03*
X176197Y806150D03*
X176197Y818850D03*
D14*
X73510Y860940D03*
X107510Y860940D03*
D15*
X267900Y530950D03*
X215900Y530950D03*
X267900Y518250D03*
X267900Y543650D03*
X267900Y556350D03*
X215900Y518250D03*
X215900Y543650D03*
X215900Y556350D03*
D16*
X246390Y232170D03*
X233690Y232170D03*
X220990Y232170D03*
X220990Y139170D03*
X233690Y139170D03*
X246390Y139170D03*
D17*
X95200Y621120D03*
X95200Y592680D03*
D18*
X484500Y418900D03*
X484500Y401900D03*
X494030Y455800D03*
X494030Y438800D03*
X525970Y438860D03*
X525970Y455860D03*
D19*
X460460Y319800D03*
X477460Y319800D03*
X454800Y375300D03*
X471800Y375300D03*
X471000Y264700D03*
X454000Y264700D03*
X383200Y125300D03*
X400200Y125300D03*
D18*
X174700Y227400D03*
X174700Y244400D03*
D17*
X95200Y555420D03*
X95200Y526980D03*
D20*
X435272Y200182D03*
X435272Y192054D03*
X435272Y183926D03*
X435272Y175798D03*
X454188Y175798D03*
X454188Y183926D03*
X454188Y192054D03*
X454188Y200182D03*
X298558Y286008D03*
X298558Y294136D03*
X298558Y302264D03*
X298558Y310392D03*
X279642Y310392D03*
X279642Y302264D03*
X279642Y294136D03*
X279642Y286008D03*
D17*
X176000Y478180D03*
X176000Y506620D03*
X176000Y533980D03*
X176000Y562420D03*
X236000Y599780D03*
X236000Y628220D03*
X290510Y628270D03*
X290510Y599830D03*
D21*
X89420Y826000D03*
X60980Y826000D03*
D17*
X146000Y846380D03*
X146000Y874820D03*
D18*
X340300Y823900D03*
X340300Y806900D03*
D22*
X341136Y413400D03*
X341136Y408400D03*
X341136Y403400D03*
X341136Y398400D03*
X341136Y393400D03*
X341136Y388400D03*
X341136Y383400D03*
X341136Y378400D03*
X341136Y373400D03*
X341136Y368400D03*
X341136Y363400D03*
X341136Y358400D03*
D23*
X355800Y343736D03*
X360800Y343736D03*
X365800Y343736D03*
X370800Y343736D03*
X375800Y343736D03*
X380800Y343736D03*
X385800Y343736D03*
X390800Y343736D03*
X395800Y343736D03*
X400800Y343736D03*
X405800Y343736D03*
X410800Y343736D03*
D22*
X425464Y358400D03*
X425464Y363400D03*
X425464Y368400D03*
X425464Y373400D03*
X425464Y378400D03*
X425464Y383400D03*
X425464Y388400D03*
X425464Y393400D03*
X425464Y398400D03*
X425464Y403400D03*
X425464Y408400D03*
X425464Y413400D03*
D23*
X410800Y428064D03*
X405800Y428064D03*
X400800Y428064D03*
X395800Y428064D03*
X390800Y428064D03*
X385800Y428064D03*
X380800Y428064D03*
X375800Y428064D03*
X370800Y428064D03*
X365800Y428064D03*
X360800Y428064D03*
X355800Y428064D03*
D24*
X54400Y314276D03*
X63900Y314276D03*
X73400Y314276D03*
X73400Y341525D03*
X54400Y341525D03*
D25*
X141150Y341487D03*
X153850Y341487D03*
X166550Y341487D03*
X179250Y341487D03*
X179250Y395913D03*
X166550Y395913D03*
X153850Y395913D03*
X141150Y395913D03*
D26*
X143150Y612450D02*
X134150Y612450D01*
X134150Y605950D02*
X143150Y605950D01*
X143150Y599450D02*
X134150Y599450D01*
X134150Y592950D02*
X143150Y592950D01*
X178650Y592950D02*
X187650Y592950D01*
X187650Y599450D02*
X178650Y599450D01*
X178650Y605950D02*
X187650Y605950D01*
X187650Y612450D02*
X178650Y612450D01*
D27*
X113667Y721550D03*
X113667Y715050D03*
X113667Y708550D03*
X113667Y702050D03*
X157933Y702050D03*
X157933Y708550D03*
X157933Y715050D03*
X157933Y721550D03*
D28*
X471351Y544550D03*
X471351Y531850D03*
X471351Y519150D03*
X471351Y506450D03*
X544249Y506450D03*
X544249Y519150D03*
X544249Y531850D03*
X544249Y544550D03*
D25*
X317050Y163987D03*
X329750Y163987D03*
X342450Y163987D03*
X355150Y163987D03*
X367850Y163987D03*
X380550Y163987D03*
X393250Y163987D03*
X405950Y163987D03*
X405950Y218413D03*
X393250Y218413D03*
X380550Y218413D03*
X367850Y218413D03*
X355150Y218413D03*
X342450Y218413D03*
X329750Y218413D03*
X317050Y218413D03*
D11*
X265650Y819910D03*
X283150Y819910D03*
D29*
X256376Y794500D03*
X256376Y785000D03*
X256376Y775500D03*
X283625Y775500D03*
X283625Y794500D03*
D18*
X251200Y730400D03*
X251200Y713400D03*
D12*
X180000Y713750D03*
X180000Y696250D03*
X200000Y713750D03*
X200000Y696250D03*
X220000Y713750D03*
X220000Y696250D03*
D11*
X93750Y780000D03*
X76250Y780000D03*
D30*
X60000Y556500D03*
X60000Y523500D03*
X30000Y841500D03*
X30000Y808500D03*
X30000Y696500D03*
X30000Y663500D03*
D11*
X401250Y280000D03*
X418750Y280000D03*
X431250Y440000D03*
X448750Y440000D03*
D21*
X191810Y850870D03*
X220250Y850870D03*
M02*
