G04 EAGLE Gerber RS-274X export*
G75*
%MOMM*%
%FSLAX34Y34*%
%LPD*%
%INSoldermask Top*%
%IPPOS*%
%AMOC8*
5,1,8,0,0,1.08239X$1,22.5*%
G01*
%ADD10R,1.703200X2.203200*%
%ADD11R,1.253200X1.283200*%
%ADD12R,1.283200X1.253200*%
%ADD13R,1.741400X0.771200*%
%ADD14R,1.803200X1.003200*%
%ADD15R,2.403200X0.803200*%
%ADD16R,0.853200X1.853200*%
%ADD17P,1.869504X8X202.500000*%
%ADD18C,1.727200*%
%ADD19P,1.649562X8X202.500000*%
%ADD20R,2.006200X1.803200*%
%ADD21R,1.303200X1.203200*%
%ADD22R,1.203200X1.303200*%
%ADD23R,0.811800X0.672800*%
%ADD24R,1.803200X2.006200*%
%ADD25R,1.665200X0.442600*%
%ADD26R,0.442600X1.665200*%
%ADD27R,0.671200X1.175500*%
%ADD28R,0.771200X1.658100*%
%ADD29C,1.917700*%
%ADD30C,0.653200*%
%ADD31R,1.531100X0.644200*%
%ADD32R,1.773200X2.093200*%
%ADD33R,1.716000X0.745800*%
%ADD34R,1.175500X0.671200*%
%ADD35R,2.003200X1.403200*%
%ADD36P,2.969212X8X22.500000*%
%ADD37R,1.203200X1.203200*%
%ADD38P,2.556822X8X22.500000*%
%ADD39C,0.959600*%
%ADD40C,1.403200*%
%ADD41C,1.009600*%


D10*
X69600Y244000D03*
X39600Y244000D03*
D11*
X351150Y444600D03*
X368650Y444600D03*
D12*
X279400Y387210D03*
X279400Y369710D03*
X299600Y387190D03*
X299600Y369690D03*
X317500Y387210D03*
X317500Y369710D03*
D11*
X214550Y494600D03*
X232050Y494600D03*
D10*
X183800Y644000D03*
X153800Y644000D03*
D11*
X536250Y585400D03*
X518750Y585400D03*
D12*
X275400Y140330D03*
X275400Y157830D03*
X293330Y235390D03*
X293330Y217890D03*
D10*
X57450Y371070D03*
X27450Y371070D03*
D11*
X179440Y435800D03*
X196940Y435800D03*
X179550Y415400D03*
X197050Y415400D03*
X155550Y314600D03*
X173050Y314600D03*
X85250Y55400D03*
X67750Y55400D03*
D12*
X124630Y197850D03*
X124630Y180350D03*
X143610Y197880D03*
X143610Y180380D03*
D11*
X351250Y466270D03*
X368750Y466270D03*
D13*
X122603Y818850D03*
X122603Y806150D03*
X122603Y793450D03*
X122603Y780750D03*
X176197Y780750D03*
X176197Y793450D03*
X176197Y806150D03*
X176197Y818850D03*
D14*
X73510Y860940D03*
X107510Y860940D03*
D15*
X267900Y530950D03*
X215900Y530950D03*
X267900Y518250D03*
X267900Y543650D03*
X267900Y556350D03*
X215900Y518250D03*
X215900Y543650D03*
X215900Y556350D03*
D16*
X246390Y232170D03*
X233690Y232170D03*
X220990Y232170D03*
X220990Y139170D03*
X233690Y139170D03*
X246390Y139170D03*
D17*
X431000Y26900D03*
X405600Y26900D03*
X380200Y26900D03*
X354800Y26900D03*
X329400Y26900D03*
X304000Y26900D03*
X278600Y26900D03*
X253200Y26900D03*
X227800Y26900D03*
X202400Y26900D03*
X431000Y52300D03*
X405600Y52300D03*
X380200Y52300D03*
X354800Y52300D03*
X329400Y52300D03*
X304000Y52300D03*
X278600Y52300D03*
X253200Y52300D03*
X227800Y52300D03*
X202400Y52300D03*
D18*
X444080Y722000D02*
X459320Y722000D01*
X459320Y747400D02*
X444080Y747400D01*
X444080Y772800D02*
X459320Y772800D01*
X459320Y798200D02*
X444080Y798200D01*
X444080Y823600D02*
X459320Y823600D01*
D19*
X305300Y870200D03*
X279900Y870200D03*
D20*
X95200Y621120D03*
X95200Y592680D03*
D21*
X484500Y418900D03*
X484500Y401900D03*
X494030Y455800D03*
X494030Y438800D03*
X525970Y438860D03*
X525970Y455860D03*
D22*
X460460Y319800D03*
X477460Y319800D03*
X454800Y375300D03*
X471800Y375300D03*
X471000Y264700D03*
X454000Y264700D03*
X383200Y125300D03*
X400200Y125300D03*
D21*
X174700Y227400D03*
X174700Y244400D03*
D20*
X95200Y555420D03*
X95200Y526980D03*
D23*
X435272Y200182D03*
X435272Y192054D03*
X435272Y183926D03*
X435272Y175798D03*
X454188Y175798D03*
X454188Y183926D03*
X454188Y192054D03*
X454188Y200182D03*
X298558Y286008D03*
X298558Y294136D03*
X298558Y302264D03*
X298558Y310392D03*
X279642Y310392D03*
X279642Y302264D03*
X279642Y294136D03*
X279642Y286008D03*
D20*
X176000Y478180D03*
X176000Y506620D03*
X176000Y533980D03*
X176000Y562420D03*
X236000Y599780D03*
X236000Y628220D03*
X290510Y628270D03*
X290510Y599830D03*
D24*
X89420Y826000D03*
X60980Y826000D03*
D20*
X146000Y846380D03*
X146000Y874820D03*
D21*
X340300Y823900D03*
X340300Y806900D03*
D25*
X341136Y413400D03*
X341136Y408400D03*
X341136Y403400D03*
X341136Y398400D03*
X341136Y393400D03*
X341136Y388400D03*
X341136Y383400D03*
X341136Y378400D03*
X341136Y373400D03*
X341136Y368400D03*
X341136Y363400D03*
X341136Y358400D03*
D26*
X355800Y343736D03*
X360800Y343736D03*
X365800Y343736D03*
X370800Y343736D03*
X375800Y343736D03*
X380800Y343736D03*
X385800Y343736D03*
X390800Y343736D03*
X395800Y343736D03*
X400800Y343736D03*
X405800Y343736D03*
X410800Y343736D03*
D25*
X425464Y358400D03*
X425464Y363400D03*
X425464Y368400D03*
X425464Y373400D03*
X425464Y378400D03*
X425464Y383400D03*
X425464Y388400D03*
X425464Y393400D03*
X425464Y398400D03*
X425464Y403400D03*
X425464Y408400D03*
X425464Y413400D03*
D26*
X410800Y428064D03*
X405800Y428064D03*
X400800Y428064D03*
X395800Y428064D03*
X390800Y428064D03*
X385800Y428064D03*
X380800Y428064D03*
X375800Y428064D03*
X370800Y428064D03*
X365800Y428064D03*
X360800Y428064D03*
X355800Y428064D03*
D27*
X54400Y314276D03*
X63900Y314276D03*
X73400Y314276D03*
X73400Y341525D03*
X54400Y341525D03*
D28*
X141150Y341487D03*
X153850Y341487D03*
X166550Y341487D03*
X179250Y341487D03*
X179250Y395913D03*
X166550Y395913D03*
X153850Y395913D03*
X141150Y395913D03*
D29*
X84900Y105000D03*
X84900Y130400D03*
X84900Y155800D03*
X84900Y181200D03*
D30*
X134150Y612450D02*
X143150Y612450D01*
X143150Y605950D02*
X134150Y605950D01*
X134150Y599450D02*
X143150Y599450D01*
X143150Y592950D02*
X134150Y592950D01*
X178650Y592950D02*
X187650Y592950D01*
X187650Y599450D02*
X178650Y599450D01*
X178650Y605950D02*
X187650Y605950D01*
X187650Y612450D02*
X178650Y612450D01*
D31*
X113667Y721550D03*
X113667Y715050D03*
X113667Y708550D03*
X113667Y702050D03*
X157933Y702050D03*
X157933Y708550D03*
X157933Y715050D03*
X157933Y721550D03*
D32*
X135800Y711800D03*
D33*
X471351Y544550D03*
X471351Y531850D03*
X471351Y519150D03*
X471351Y506450D03*
X544249Y506450D03*
X544249Y519150D03*
X544249Y531850D03*
X544249Y544550D03*
D28*
X317050Y163987D03*
X329750Y163987D03*
X342450Y163987D03*
X355150Y163987D03*
X367850Y163987D03*
X380550Y163987D03*
X393250Y163987D03*
X405950Y163987D03*
X405950Y218413D03*
X393250Y218413D03*
X380550Y218413D03*
X367850Y218413D03*
X355150Y218413D03*
X342450Y218413D03*
X329750Y218413D03*
X317050Y218413D03*
D11*
X265650Y819910D03*
X283150Y819910D03*
D34*
X256376Y794500D03*
X256376Y785000D03*
X256376Y775500D03*
X283625Y775500D03*
X283625Y794500D03*
D21*
X251200Y730400D03*
X251200Y713400D03*
D12*
X180000Y713750D03*
X180000Y696250D03*
X200000Y713750D03*
X200000Y696250D03*
X220000Y713750D03*
X220000Y696250D03*
D11*
X93750Y780000D03*
X76250Y780000D03*
D35*
X60000Y556500D03*
X60000Y523500D03*
X30000Y841500D03*
X30000Y808500D03*
X30000Y696500D03*
X30000Y663500D03*
D36*
X30000Y523810D03*
X30000Y620000D03*
X30000Y865000D03*
X30000Y785000D03*
X30000Y720000D03*
D11*
X401250Y280000D03*
X418750Y280000D03*
X431250Y440000D03*
X448750Y440000D03*
D37*
X341630Y250780D03*
X330200Y289280D03*
X370840Y266820D03*
X391080Y244440D03*
X220000Y575000D03*
X60000Y575000D03*
X208280Y607040D03*
X317500Y570610D03*
X115000Y830000D03*
X205000Y815000D03*
X191770Y733830D03*
X448310Y294810D03*
X455930Y359980D03*
X519430Y419200D03*
X501730Y328320D03*
X518160Y366660D03*
X233730Y268840D03*
D24*
X191810Y850870D03*
X220250Y850870D03*
D38*
X125000Y220000D03*
X165000Y270000D03*
X155000Y430000D03*
X565000Y250000D03*
X570000Y40000D03*
X300000Y695000D03*
X60000Y685000D03*
X250000Y435000D03*
D39*
X225000Y370000D03*
X260000Y370000D03*
X160000Y100000D03*
X160000Y30000D03*
X435000Y5000D03*
X5000Y130000D03*
X5000Y80000D03*
X5000Y5000D03*
X55000Y5000D03*
X605000Y5000D03*
X555000Y5000D03*
X505000Y5000D03*
X605000Y55000D03*
X605000Y105000D03*
X605000Y155000D03*
X605000Y200000D03*
X535000Y200000D03*
X535000Y155000D03*
X535000Y105000D03*
X535000Y55000D03*
X435000Y135000D03*
X415000Y80000D03*
X295000Y95000D03*
X200000Y105000D03*
X135000Y125000D03*
X341630Y111760D03*
X368740Y141460D03*
X480000Y50000D03*
X190000Y145000D03*
X215000Y40000D03*
X305000Y140000D03*
X390000Y150000D03*
D40*
X195000Y575000D03*
X245000Y575000D03*
D41*
X213725Y398725D03*
X280670Y410000D03*
D39*
X474980Y814070D03*
X205000Y310000D03*
X205000Y275000D03*
X420000Y550000D03*
X404224Y550000D03*
X535000Y250000D03*
X535000Y285000D03*
X535000Y345000D03*
X535000Y405000D03*
X535940Y482600D03*
X471351Y482600D03*
X516890Y482600D03*
X565150Y482600D03*
X535000Y220000D03*
X46250Y750000D03*
X180000Y185000D03*
X605000Y220000D03*
X605000Y270000D03*
X605000Y320000D03*
X605000Y370000D03*
X605000Y420000D03*
X605000Y470000D03*
X605000Y520000D03*
X605000Y570000D03*
X605000Y620000D03*
X605000Y670000D03*
X605000Y720000D03*
X605000Y770000D03*
X605000Y820000D03*
X605000Y870000D03*
X605000Y900000D03*
X555000Y900000D03*
X505000Y900000D03*
X455000Y900000D03*
X405000Y900000D03*
X355000Y900000D03*
X305000Y900000D03*
X255000Y900000D03*
X205000Y900000D03*
X155000Y900000D03*
X105000Y900000D03*
X55000Y900000D03*
X5000Y900000D03*
X5000Y850000D03*
X5000Y800000D03*
X5000Y750000D03*
X5000Y700000D03*
X5000Y650000D03*
X5000Y600000D03*
X5000Y550000D03*
X5000Y500000D03*
X5000Y450000D03*
X5000Y400000D03*
X5000Y350000D03*
X5000Y300000D03*
X5000Y250000D03*
X5000Y200000D03*
X45000Y160000D03*
X120000Y750000D03*
X405000Y830000D03*
X505000Y820000D03*
X505000Y675000D03*
X450000Y650000D03*
X435000Y480000D03*
X565000Y420000D03*
X420370Y335280D03*
X382640Y385090D03*
X272640Y670090D03*
X347640Y645090D03*
X341730Y430620D03*
X291290Y431150D03*
X221290Y431150D03*
X118130Y408820D03*
X92030Y409030D03*
X92200Y656890D03*
X129200Y674990D03*
X44200Y459990D03*
X34200Y319990D03*
X124200Y314990D03*
X264630Y246370D03*
X454630Y236370D03*
X587640Y482700D03*
X295000Y525000D03*
X320040Y527050D03*
X246420Y498620D03*
X139930Y628460D03*
X170180Y836930D03*
X331100Y275690D03*
X371740Y284580D03*
X381900Y256720D03*
X380630Y456030D03*
X372740Y719850D03*
X125910Y844640D03*
X280910Y204640D03*
X224430Y343810D03*
X401814Y448310D03*
X80000Y800000D03*
X210000Y775000D03*
X310000Y815000D03*
X195580Y505460D03*
X206320Y629110D03*
X188010Y673480D03*
X85640Y274070D03*
X479170Y350040D03*
X474170Y285040D03*
X526220Y561380D03*
X526220Y741380D03*
X126220Y46380D03*
X31220Y41380D03*
X136220Y241380D03*
X156220Y541380D03*
X495840Y426860D03*
X485840Y386860D03*
X135000Y160000D03*
X55880Y847090D03*
D41*
X80000Y750000D03*
X79375Y357505D03*
X351250Y583750D03*
X80000Y460000D03*
X140000Y460000D03*
X300000Y485000D03*
X320000Y485000D03*
X351250Y485000D03*
X385286Y585000D03*
X401556Y585000D03*
X544249Y610000D03*
D39*
X160000Y460000D03*
X80000Y370000D03*
X482600Y721360D03*
D40*
X105000Y245000D03*
X330000Y755000D03*
X105000Y485000D03*
X160000Y745000D03*
D39*
X275000Y115000D03*
X100000Y75000D03*
X430000Y740000D03*
X355000Y265000D03*
X355000Y315000D03*
X335000Y325000D03*
X390000Y325000D03*
X312420Y302260D03*
X367850Y252850D03*
D41*
X332740Y307340D03*
X127540Y656270D03*
D39*
X290000Y730000D03*
X405000Y310000D03*
X340000Y785000D03*
X395525Y705405D03*
X298450Y273050D03*
X340000Y240000D03*
X325120Y342900D03*
X310000Y675000D03*
M02*
