G04 EAGLE Gerber X2 export*
%TF.Part,Single*%
%TF.FileFunction,Legend,Bot,1*%
%TF.FilePolarity,Positive*%
%TF.GenerationSoftware,Autodesk,EAGLE,9.3.1*%
%TF.CreationDate,2020-03-19T14:02:17Z*%
G75*
%MOMM*%
%FSLAX36Y36*%
%LPD*%
%INSilkscreen Bottom*%
%AMOC8*
5,1,8,0,0,1.08239X$1,22.5*%
G01*
%ADD10C,0.101600*%


D10*
X730800Y58871459D02*
X1899200Y58871459D01*
X1899200Y59196013D01*
X1899104Y59203916D01*
X1898815Y59211815D01*
X1898334Y59219704D01*
X1897661Y59227579D01*
X1896797Y59235436D01*
X1895741Y59243269D01*
X1894495Y59251074D01*
X1893060Y59258846D01*
X1891435Y59266581D01*
X1889623Y59274275D01*
X1887624Y59281921D01*
X1885439Y59289517D01*
X1883070Y59297058D01*
X1880518Y59304538D01*
X1877785Y59311954D01*
X1874871Y59319302D01*
X1871780Y59326576D01*
X1868513Y59333773D01*
X1865071Y59340888D01*
X1861457Y59347917D01*
X1857673Y59354856D01*
X1853721Y59361701D01*
X1849604Y59368448D01*
X1845323Y59375093D01*
X1840882Y59381631D01*
X1836283Y59388059D01*
X1831529Y59394373D01*
X1826622Y59400570D01*
X1821567Y59406645D01*
X1816364Y59412595D01*
X1811019Y59418417D01*
X1805533Y59424107D01*
X1799910Y59429662D01*
X1794154Y59435078D01*
X1788267Y59440353D01*
X1782254Y59445482D01*
X1776117Y59450464D01*
X1769861Y59455294D01*
X1763490Y59459971D01*
X1757006Y59464491D01*
X1750414Y59468852D01*
X1743718Y59473052D01*
X1736922Y59477087D01*
X1730029Y59480955D01*
X1723045Y59484654D01*
X1715972Y59488182D01*
X1708815Y59491537D01*
X1701579Y59494717D01*
X1694268Y59497719D01*
X1686886Y59500543D01*
X1679437Y59503186D01*
X1671926Y59505646D01*
X1664357Y59507924D01*
X1656735Y59510016D01*
X1649064Y59511922D01*
X1641350Y59513640D01*
X1633595Y59515170D01*
X1625806Y59516511D01*
X1617986Y59517662D01*
X1610141Y59518622D01*
X1602275Y59519391D01*
X1594392Y59519968D01*
X1586497Y59520352D01*
X1578596Y59520545D01*
X1570692Y59520545D01*
X1562791Y59520352D01*
X1554896Y59519968D01*
X1547013Y59519391D01*
X1539147Y59518622D01*
X1531302Y59517662D01*
X1523482Y59516511D01*
X1515693Y59515170D01*
X1507938Y59513640D01*
X1500224Y59511922D01*
X1492553Y59510016D01*
X1484931Y59507924D01*
X1477362Y59505646D01*
X1469851Y59503186D01*
X1462402Y59500543D01*
X1455020Y59497719D01*
X1447709Y59494717D01*
X1440473Y59491537D01*
X1433316Y59488182D01*
X1426243Y59484654D01*
X1419259Y59480955D01*
X1412366Y59477087D01*
X1405570Y59473052D01*
X1398874Y59468852D01*
X1392282Y59464491D01*
X1385798Y59459971D01*
X1379427Y59455294D01*
X1373171Y59450464D01*
X1367034Y59445482D01*
X1361021Y59440353D01*
X1355134Y59435078D01*
X1349378Y59429662D01*
X1343755Y59424107D01*
X1338269Y59418417D01*
X1332924Y59412595D01*
X1327721Y59406645D01*
X1322666Y59400570D01*
X1317759Y59394373D01*
X1313005Y59388059D01*
X1308406Y59381631D01*
X1303965Y59375093D01*
X1299684Y59368448D01*
X1295567Y59361701D01*
X1291615Y59354856D01*
X1287831Y59347917D01*
X1284217Y59340888D01*
X1280775Y59333773D01*
X1277508Y59326576D01*
X1274417Y59319302D01*
X1271503Y59311954D01*
X1268770Y59304538D01*
X1266218Y59297058D01*
X1263849Y59289517D01*
X1261664Y59281921D01*
X1259665Y59274275D01*
X1257853Y59266581D01*
X1256228Y59258846D01*
X1254793Y59251074D01*
X1253547Y59243269D01*
X1252491Y59235436D01*
X1251627Y59227579D01*
X1250954Y59219704D01*
X1250473Y59211815D01*
X1250184Y59203916D01*
X1250088Y59196013D01*
X1250088Y58871459D01*
X1250088Y59260925D02*
X730800Y59520569D01*
X1607100Y60656203D02*
X1614158Y60656118D01*
X1621212Y60655862D01*
X1628258Y60655436D01*
X1635292Y60654839D01*
X1642309Y60654073D01*
X1649305Y60653138D01*
X1656277Y60652034D01*
X1663220Y60650761D01*
X1670131Y60649321D01*
X1677004Y60647715D01*
X1683837Y60645943D01*
X1690625Y60644007D01*
X1697364Y60641907D01*
X1704050Y60639644D01*
X1710680Y60637221D01*
X1717249Y60634639D01*
X1723754Y60631898D01*
X1730191Y60629001D01*
X1736556Y60625949D01*
X1742846Y60622745D01*
X1749056Y60619389D01*
X1755183Y60615884D01*
X1761224Y60612233D01*
X1767174Y60608436D01*
X1773032Y60604497D01*
X1778792Y60600417D01*
X1784452Y60596199D01*
X1790009Y60591846D01*
X1795458Y60587360D01*
X1800798Y60582743D01*
X1806025Y60577999D01*
X1811135Y60573129D01*
X1816126Y60568138D01*
X1820996Y60563028D01*
X1825740Y60557801D01*
X1830357Y60552461D01*
X1834843Y60547012D01*
X1839196Y60541455D01*
X1843414Y60535795D01*
X1847494Y60530035D01*
X1851433Y60524177D01*
X1855230Y60518227D01*
X1858881Y60512186D01*
X1862386Y60506059D01*
X1865742Y60499849D01*
X1868946Y60493559D01*
X1871998Y60487194D01*
X1874895Y60480757D01*
X1877636Y60474252D01*
X1880218Y60467683D01*
X1882641Y60461053D01*
X1884904Y60454367D01*
X1887004Y60447628D01*
X1888940Y60440840D01*
X1890712Y60434007D01*
X1892318Y60427134D01*
X1893758Y60420223D01*
X1895031Y60413280D01*
X1896135Y60406308D01*
X1897070Y60399312D01*
X1897836Y60392295D01*
X1898433Y60385261D01*
X1898859Y60378215D01*
X1899115Y60371161D01*
X1899200Y60364103D01*
X1899090Y60355028D01*
X1898761Y60345959D01*
X1898213Y60336900D01*
X1897445Y60327857D01*
X1896460Y60318835D01*
X1895256Y60309840D01*
X1893835Y60300876D01*
X1892198Y60291950D01*
X1890346Y60283065D01*
X1888279Y60274228D01*
X1885999Y60265444D01*
X1883507Y60256717D01*
X1880805Y60248053D01*
X1877895Y60239457D01*
X1874777Y60230934D01*
X1871454Y60222489D01*
X1867928Y60214126D01*
X1864200Y60205852D01*
X1860274Y60197669D01*
X1856151Y60189585D01*
X1851834Y60181602D01*
X1847324Y60173726D01*
X1842626Y60165961D01*
X1837741Y60158312D01*
X1832673Y60150784D01*
X1827424Y60143380D01*
X1821998Y60136106D01*
X1816398Y60128964D01*
X1810626Y60121961D01*
X1804686Y60115099D01*
X1798583Y60108382D01*
X1792319Y60101815D01*
X1785898Y60095402D01*
X1779323Y60089145D01*
X1772599Y60083050D01*
X1765730Y60077119D01*
X1758720Y60071355D01*
X1751572Y60065763D01*
X1744291Y60060346D01*
X1736881Y60055106D01*
X1729346Y60050047D01*
X1721692Y60045171D01*
X1713921Y60040482D01*
X1706040Y60035982D01*
X1698052Y60031675D01*
X1689962Y60027561D01*
X1681775Y60023645D01*
X1673496Y60019927D01*
X1665130Y60016411D01*
X1656680Y60013098D01*
X1648154Y60009991D01*
X1639554Y60007090D01*
X1379908Y60558839D02*
X1385285Y60564348D01*
X1390797Y60569723D01*
X1396438Y60574962D01*
X1402206Y60580061D01*
X1408098Y60585017D01*
X1414109Y60589826D01*
X1420236Y60594487D01*
X1426476Y60598996D01*
X1432825Y60603350D01*
X1439279Y60607548D01*
X1445834Y60611585D01*
X1452486Y60615461D01*
X1459231Y60619173D01*
X1466065Y60622717D01*
X1472983Y60626093D01*
X1479983Y60629299D01*
X1487059Y60632331D01*
X1494208Y60635189D01*
X1501424Y60637871D01*
X1508704Y60640375D01*
X1516044Y60642699D01*
X1523438Y60644843D01*
X1530882Y60646805D01*
X1538373Y60648583D01*
X1545904Y60650177D01*
X1553473Y60651586D01*
X1561074Y60652809D01*
X1568702Y60653845D01*
X1576354Y60654693D01*
X1584024Y60655353D01*
X1591709Y60655825D01*
X1599402Y60656109D01*
X1607100Y60656203D01*
X1379909Y60558838D02*
X730800Y60007094D01*
X730800Y60656203D01*
X730800Y61150091D02*
X730800Y61539556D01*
X730876Y61545830D01*
X731103Y61552100D01*
X731482Y61558363D01*
X732012Y61564615D01*
X732693Y61570853D01*
X733525Y61577072D01*
X734506Y61583269D01*
X735637Y61589441D01*
X736917Y61595583D01*
X738345Y61601693D01*
X739920Y61607766D01*
X741641Y61613800D01*
X743508Y61619790D01*
X745519Y61625734D01*
X747673Y61631627D01*
X749968Y61637466D01*
X752404Y61643249D01*
X754980Y61648970D01*
X757692Y61654628D01*
X760541Y61660219D01*
X763523Y61665739D01*
X766639Y61671185D01*
X769885Y61676555D01*
X773260Y61681844D01*
X776761Y61687051D01*
X780388Y61692171D01*
X784137Y61697202D01*
X788006Y61702141D01*
X791994Y61706985D01*
X796098Y61711732D01*
X800315Y61716378D01*
X804643Y61720920D01*
X809080Y61725357D01*
X813622Y61729685D01*
X818268Y61733902D01*
X823015Y61738006D01*
X827859Y61741994D01*
X832798Y61745863D01*
X837829Y61749612D01*
X842949Y61753239D01*
X848156Y61756740D01*
X853445Y61760115D01*
X858815Y61763361D01*
X864261Y61766477D01*
X869781Y61769459D01*
X875372Y61772308D01*
X881030Y61775020D01*
X886751Y61777596D01*
X892534Y61780032D01*
X898373Y61782327D01*
X904266Y61784481D01*
X910210Y61786492D01*
X916200Y61788359D01*
X922234Y61790080D01*
X928307Y61791655D01*
X934417Y61793083D01*
X940559Y61794363D01*
X946731Y61795494D01*
X952928Y61796475D01*
X959147Y61797307D01*
X965385Y61797988D01*
X971637Y61798518D01*
X977900Y61798897D01*
X984170Y61799124D01*
X990444Y61799200D01*
X1120266Y61799200D01*
X1126540Y61799124D01*
X1132810Y61798897D01*
X1139073Y61798518D01*
X1145325Y61797988D01*
X1151563Y61797307D01*
X1157782Y61796475D01*
X1163979Y61795494D01*
X1170151Y61794363D01*
X1176293Y61793083D01*
X1182403Y61791655D01*
X1188476Y61790080D01*
X1194510Y61788359D01*
X1200500Y61786492D01*
X1206444Y61784481D01*
X1212337Y61782327D01*
X1218176Y61780032D01*
X1223959Y61777596D01*
X1229680Y61775020D01*
X1235338Y61772308D01*
X1240929Y61769459D01*
X1246449Y61766477D01*
X1251895Y61763361D01*
X1257265Y61760115D01*
X1262554Y61756740D01*
X1267761Y61753239D01*
X1272881Y61749612D01*
X1277912Y61745863D01*
X1282851Y61741994D01*
X1287695Y61738006D01*
X1292442Y61733902D01*
X1297088Y61729685D01*
X1301630Y61725357D01*
X1306067Y61720920D01*
X1310395Y61716378D01*
X1314612Y61711732D01*
X1318716Y61706985D01*
X1322704Y61702141D01*
X1326573Y61697202D01*
X1330322Y61692171D01*
X1333949Y61687051D01*
X1337450Y61681844D01*
X1340825Y61676555D01*
X1344071Y61671185D01*
X1347187Y61665739D01*
X1350169Y61660219D01*
X1353018Y61654628D01*
X1355730Y61648970D01*
X1358306Y61643249D01*
X1360742Y61637466D01*
X1363037Y61631627D01*
X1365191Y61625734D01*
X1367202Y61619790D01*
X1369069Y61613800D01*
X1370790Y61607766D01*
X1372365Y61601693D01*
X1373793Y61595583D01*
X1375073Y61589441D01*
X1376204Y61583269D01*
X1377185Y61577072D01*
X1378017Y61570853D01*
X1378698Y61564615D01*
X1379228Y61558363D01*
X1379607Y61552100D01*
X1379834Y61545830D01*
X1379910Y61539556D01*
X1379909Y61539556D02*
X1379909Y61150091D01*
X1899200Y61150091D01*
X1899200Y61799200D01*
M02*
