G04 EAGLE Gerber RS-274X export*
G75*
%MOMM*%
%FSLAX34Y34*%
%LPD*%
%INSilkscreen Bottom*%
%IPPOS*%
%AMOC8*
5,1,8,0,0,1.08239X$1,22.5*%
G01*
%ADD10C,0.101600*%


D10*
X371435Y313458D02*
X371435Y325142D01*
X368190Y325142D01*
X368077Y325140D01*
X367964Y325134D01*
X367851Y325124D01*
X367738Y325110D01*
X367626Y325093D01*
X367515Y325071D01*
X367405Y325046D01*
X367295Y325016D01*
X367187Y324983D01*
X367080Y324946D01*
X366974Y324906D01*
X366870Y324861D01*
X366767Y324813D01*
X366666Y324762D01*
X366567Y324707D01*
X366470Y324649D01*
X366375Y324587D01*
X366282Y324522D01*
X366192Y324454D01*
X366104Y324383D01*
X366018Y324308D01*
X365935Y324231D01*
X365855Y324151D01*
X365778Y324068D01*
X365703Y323982D01*
X365632Y323894D01*
X365564Y323804D01*
X365499Y323711D01*
X365437Y323616D01*
X365379Y323519D01*
X365324Y323420D01*
X365273Y323319D01*
X365225Y323216D01*
X365180Y323112D01*
X365140Y323006D01*
X365103Y322899D01*
X365070Y322791D01*
X365040Y322681D01*
X365015Y322571D01*
X364993Y322460D01*
X364976Y322348D01*
X364962Y322235D01*
X364952Y322122D01*
X364946Y322009D01*
X364944Y321896D01*
X364946Y321783D01*
X364952Y321670D01*
X364962Y321557D01*
X364976Y321444D01*
X364993Y321332D01*
X365015Y321221D01*
X365040Y321111D01*
X365070Y321001D01*
X365103Y320893D01*
X365140Y320786D01*
X365180Y320680D01*
X365225Y320576D01*
X365273Y320473D01*
X365324Y320372D01*
X365379Y320273D01*
X365437Y320176D01*
X365499Y320081D01*
X365564Y319988D01*
X365632Y319898D01*
X365703Y319810D01*
X365778Y319724D01*
X365855Y319641D01*
X365935Y319561D01*
X366018Y319484D01*
X366104Y319409D01*
X366192Y319338D01*
X366282Y319270D01*
X366375Y319205D01*
X366470Y319143D01*
X366567Y319085D01*
X366666Y319030D01*
X366767Y318979D01*
X366870Y318931D01*
X366974Y318886D01*
X367080Y318846D01*
X367187Y318809D01*
X367295Y318776D01*
X367405Y318746D01*
X367515Y318721D01*
X367626Y318699D01*
X367738Y318682D01*
X367851Y318668D01*
X367964Y318658D01*
X368077Y318652D01*
X368190Y318650D01*
X368190Y318651D02*
X371435Y318651D01*
X367541Y318651D02*
X364944Y313458D01*
X353588Y322221D02*
X353590Y322328D01*
X353596Y322434D01*
X353606Y322540D01*
X353619Y322646D01*
X353637Y322752D01*
X353658Y322856D01*
X353683Y322960D01*
X353712Y323063D01*
X353744Y323164D01*
X353781Y323264D01*
X353821Y323363D01*
X353864Y323461D01*
X353911Y323557D01*
X353962Y323651D01*
X354016Y323743D01*
X354073Y323833D01*
X354133Y323921D01*
X354197Y324006D01*
X354264Y324089D01*
X354334Y324170D01*
X354406Y324248D01*
X354482Y324324D01*
X354560Y324396D01*
X354641Y324466D01*
X354724Y324533D01*
X354809Y324597D01*
X354897Y324657D01*
X354987Y324714D01*
X355079Y324768D01*
X355173Y324819D01*
X355269Y324866D01*
X355367Y324909D01*
X355466Y324949D01*
X355566Y324986D01*
X355667Y325018D01*
X355770Y325047D01*
X355874Y325072D01*
X355978Y325093D01*
X356084Y325111D01*
X356190Y325124D01*
X356296Y325134D01*
X356402Y325140D01*
X356509Y325142D01*
X356630Y325140D01*
X356751Y325134D01*
X356871Y325124D01*
X356992Y325111D01*
X357111Y325093D01*
X357231Y325072D01*
X357349Y325047D01*
X357466Y325018D01*
X357583Y324985D01*
X357698Y324949D01*
X357812Y324908D01*
X357925Y324865D01*
X358037Y324817D01*
X358146Y324766D01*
X358254Y324711D01*
X358361Y324653D01*
X358465Y324592D01*
X358567Y324527D01*
X358667Y324459D01*
X358765Y324388D01*
X358861Y324314D01*
X358954Y324237D01*
X359044Y324156D01*
X359132Y324073D01*
X359217Y323987D01*
X359300Y323898D01*
X359379Y323807D01*
X359456Y323713D01*
X359529Y323617D01*
X359599Y323519D01*
X359666Y323418D01*
X359730Y323315D01*
X359791Y323210D01*
X359848Y323103D01*
X359901Y322995D01*
X359951Y322885D01*
X359997Y322773D01*
X360040Y322660D01*
X360079Y322545D01*
X354562Y319949D02*
X354483Y320027D01*
X354407Y320107D01*
X354334Y320190D01*
X354264Y320276D01*
X354197Y320363D01*
X354133Y320454D01*
X354073Y320546D01*
X354015Y320640D01*
X353961Y320737D01*
X353911Y320835D01*
X353864Y320935D01*
X353820Y321036D01*
X353780Y321139D01*
X353744Y321244D01*
X353712Y321349D01*
X353683Y321456D01*
X353658Y321563D01*
X353636Y321672D01*
X353619Y321781D01*
X353605Y321890D01*
X353596Y322000D01*
X353590Y322111D01*
X353588Y322221D01*
X354562Y319949D02*
X360079Y313458D01*
X353588Y313458D01*
X348650Y319300D02*
X348647Y319530D01*
X348639Y319760D01*
X348625Y319989D01*
X348606Y320218D01*
X348581Y320447D01*
X348551Y320675D01*
X348516Y320902D01*
X348475Y321128D01*
X348429Y321353D01*
X348377Y321577D01*
X348320Y321800D01*
X348258Y322021D01*
X348190Y322241D01*
X348117Y322459D01*
X348039Y322675D01*
X347956Y322889D01*
X347868Y323102D01*
X347775Y323312D01*
X347676Y323519D01*
X347643Y323609D01*
X347607Y323698D01*
X347567Y323786D01*
X347523Y323871D01*
X347476Y323955D01*
X347426Y324037D01*
X347372Y324117D01*
X347316Y324194D01*
X347256Y324270D01*
X347193Y324343D01*
X347128Y324413D01*
X347059Y324481D01*
X346988Y324545D01*
X346915Y324607D01*
X346839Y324666D01*
X346761Y324722D01*
X346680Y324775D01*
X346598Y324824D01*
X346514Y324870D01*
X346427Y324913D01*
X346340Y324952D01*
X346250Y324988D01*
X346160Y325020D01*
X346068Y325048D01*
X345975Y325073D01*
X345881Y325094D01*
X345787Y325111D01*
X345692Y325125D01*
X345596Y325134D01*
X345500Y325140D01*
X345404Y325142D01*
X345308Y325140D01*
X345212Y325134D01*
X345116Y325125D01*
X345021Y325111D01*
X344927Y325094D01*
X344833Y325073D01*
X344740Y325048D01*
X344648Y325020D01*
X344558Y324988D01*
X344468Y324952D01*
X344381Y324913D01*
X344294Y324870D01*
X344210Y324824D01*
X344128Y324775D01*
X344047Y324722D01*
X343969Y324666D01*
X343893Y324607D01*
X343820Y324545D01*
X343749Y324481D01*
X343680Y324413D01*
X343615Y324343D01*
X343552Y324270D01*
X343492Y324195D01*
X343436Y324117D01*
X343382Y324037D01*
X343332Y323955D01*
X343285Y323871D01*
X343242Y323786D01*
X343201Y323698D01*
X343165Y323609D01*
X343132Y323519D01*
X343033Y323311D01*
X342940Y323101D01*
X342852Y322889D01*
X342769Y322675D01*
X342691Y322458D01*
X342618Y322240D01*
X342550Y322021D01*
X342488Y321799D01*
X342431Y321577D01*
X342379Y321353D01*
X342333Y321128D01*
X342292Y320902D01*
X342257Y320674D01*
X342227Y320447D01*
X342202Y320218D01*
X342183Y319989D01*
X342169Y319760D01*
X342161Y319530D01*
X342158Y319300D01*
X348649Y319300D02*
X348646Y319070D01*
X348638Y318840D01*
X348624Y318611D01*
X348605Y318382D01*
X348580Y318153D01*
X348550Y317925D01*
X348515Y317698D01*
X348474Y317472D01*
X348428Y317247D01*
X348376Y317023D01*
X348319Y316800D01*
X348257Y316579D01*
X348189Y316359D01*
X348116Y316141D01*
X348038Y315925D01*
X347955Y315711D01*
X347867Y315499D01*
X347774Y315288D01*
X347675Y315081D01*
X347676Y315081D02*
X347643Y314991D01*
X347607Y314902D01*
X347566Y314814D01*
X347523Y314729D01*
X347476Y314645D01*
X347426Y314563D01*
X347372Y314483D01*
X347316Y314406D01*
X347256Y314330D01*
X347193Y314257D01*
X347128Y314187D01*
X347059Y314119D01*
X346988Y314055D01*
X346915Y313993D01*
X346839Y313934D01*
X346761Y313878D01*
X346680Y313825D01*
X346598Y313776D01*
X346514Y313730D01*
X346427Y313687D01*
X346340Y313648D01*
X346250Y313612D01*
X346160Y313580D01*
X346068Y313552D01*
X345975Y313527D01*
X345881Y313506D01*
X345787Y313489D01*
X345692Y313475D01*
X345596Y313466D01*
X345500Y313460D01*
X345404Y313458D01*
X343132Y315081D02*
X343033Y315288D01*
X342940Y315499D01*
X342852Y315711D01*
X342769Y315925D01*
X342691Y316141D01*
X342618Y316359D01*
X342550Y316579D01*
X342488Y316800D01*
X342431Y317023D01*
X342379Y317247D01*
X342333Y317472D01*
X342292Y317698D01*
X342257Y317925D01*
X342227Y318153D01*
X342202Y318382D01*
X342183Y318611D01*
X342169Y318840D01*
X342161Y319070D01*
X342158Y319300D01*
X343132Y315081D02*
X343165Y314991D01*
X343201Y314902D01*
X343242Y314814D01*
X343285Y314729D01*
X343332Y314645D01*
X343382Y314563D01*
X343436Y314483D01*
X343492Y314405D01*
X343552Y314330D01*
X343615Y314257D01*
X343680Y314187D01*
X343749Y314119D01*
X343820Y314055D01*
X343893Y313993D01*
X343969Y313934D01*
X344047Y313878D01*
X344128Y313825D01*
X344210Y313776D01*
X344294Y313730D01*
X344381Y313687D01*
X344468Y313648D01*
X344558Y313612D01*
X344648Y313580D01*
X344740Y313552D01*
X344833Y313527D01*
X344927Y313506D01*
X345021Y313489D01*
X345116Y313475D01*
X345212Y313466D01*
X345308Y313460D01*
X345404Y313458D01*
X348000Y316054D02*
X342807Y322546D01*
X373842Y362858D02*
X373842Y374542D01*
X370596Y374542D01*
X370483Y374540D01*
X370370Y374534D01*
X370257Y374524D01*
X370144Y374510D01*
X370032Y374493D01*
X369921Y374471D01*
X369811Y374446D01*
X369701Y374416D01*
X369593Y374383D01*
X369486Y374346D01*
X369380Y374306D01*
X369276Y374261D01*
X369173Y374213D01*
X369072Y374162D01*
X368973Y374107D01*
X368876Y374049D01*
X368781Y373987D01*
X368688Y373922D01*
X368598Y373854D01*
X368510Y373783D01*
X368424Y373708D01*
X368341Y373631D01*
X368261Y373551D01*
X368184Y373468D01*
X368109Y373382D01*
X368038Y373294D01*
X367970Y373204D01*
X367905Y373111D01*
X367843Y373016D01*
X367785Y372919D01*
X367730Y372820D01*
X367679Y372719D01*
X367631Y372616D01*
X367586Y372512D01*
X367546Y372406D01*
X367509Y372299D01*
X367476Y372191D01*
X367446Y372081D01*
X367421Y371971D01*
X367399Y371860D01*
X367382Y371748D01*
X367368Y371635D01*
X367358Y371522D01*
X367352Y371409D01*
X367350Y371296D01*
X367352Y371183D01*
X367358Y371070D01*
X367368Y370957D01*
X367382Y370844D01*
X367399Y370732D01*
X367421Y370621D01*
X367446Y370511D01*
X367476Y370401D01*
X367509Y370293D01*
X367546Y370186D01*
X367586Y370080D01*
X367631Y369976D01*
X367679Y369873D01*
X367730Y369772D01*
X367785Y369673D01*
X367843Y369576D01*
X367905Y369481D01*
X367970Y369388D01*
X368038Y369298D01*
X368109Y369210D01*
X368184Y369124D01*
X368261Y369041D01*
X368341Y368961D01*
X368424Y368884D01*
X368510Y368809D01*
X368598Y368738D01*
X368688Y368670D01*
X368781Y368605D01*
X368876Y368543D01*
X368973Y368485D01*
X369072Y368430D01*
X369173Y368379D01*
X369276Y368331D01*
X369380Y368286D01*
X369486Y368246D01*
X369593Y368209D01*
X369701Y368176D01*
X369811Y368146D01*
X369921Y368121D01*
X370032Y368099D01*
X370144Y368082D01*
X370257Y368068D01*
X370370Y368058D01*
X370483Y368052D01*
X370596Y368050D01*
X370596Y368051D02*
X373842Y368051D01*
X369947Y368051D02*
X367351Y362858D01*
X355995Y371621D02*
X355997Y371728D01*
X356003Y371834D01*
X356013Y371940D01*
X356026Y372046D01*
X356044Y372152D01*
X356065Y372256D01*
X356090Y372360D01*
X356119Y372463D01*
X356151Y372564D01*
X356188Y372664D01*
X356228Y372763D01*
X356271Y372861D01*
X356318Y372957D01*
X356369Y373051D01*
X356423Y373143D01*
X356480Y373233D01*
X356540Y373321D01*
X356604Y373406D01*
X356671Y373489D01*
X356741Y373570D01*
X356813Y373648D01*
X356889Y373724D01*
X356967Y373796D01*
X357048Y373866D01*
X357131Y373933D01*
X357216Y373997D01*
X357304Y374057D01*
X357394Y374114D01*
X357486Y374168D01*
X357580Y374219D01*
X357676Y374266D01*
X357774Y374309D01*
X357873Y374349D01*
X357973Y374386D01*
X358074Y374418D01*
X358177Y374447D01*
X358281Y374472D01*
X358385Y374493D01*
X358491Y374511D01*
X358597Y374524D01*
X358703Y374534D01*
X358809Y374540D01*
X358916Y374542D01*
X359037Y374540D01*
X359158Y374534D01*
X359278Y374524D01*
X359399Y374511D01*
X359518Y374493D01*
X359638Y374472D01*
X359756Y374447D01*
X359873Y374418D01*
X359990Y374385D01*
X360105Y374349D01*
X360219Y374308D01*
X360332Y374265D01*
X360444Y374217D01*
X360553Y374166D01*
X360661Y374111D01*
X360768Y374053D01*
X360872Y373992D01*
X360974Y373927D01*
X361074Y373859D01*
X361172Y373788D01*
X361268Y373714D01*
X361361Y373637D01*
X361451Y373556D01*
X361539Y373473D01*
X361624Y373387D01*
X361707Y373298D01*
X361786Y373207D01*
X361863Y373113D01*
X361936Y373017D01*
X362006Y372919D01*
X362073Y372818D01*
X362137Y372715D01*
X362198Y372610D01*
X362255Y372503D01*
X362308Y372395D01*
X362358Y372285D01*
X362404Y372173D01*
X362447Y372060D01*
X362486Y371945D01*
X356969Y369349D02*
X356890Y369427D01*
X356814Y369507D01*
X356741Y369590D01*
X356671Y369676D01*
X356604Y369763D01*
X356540Y369854D01*
X356480Y369946D01*
X356422Y370040D01*
X356368Y370137D01*
X356318Y370235D01*
X356271Y370335D01*
X356227Y370436D01*
X356187Y370539D01*
X356151Y370644D01*
X356119Y370749D01*
X356090Y370856D01*
X356065Y370963D01*
X356043Y371072D01*
X356026Y371181D01*
X356012Y371290D01*
X356003Y371400D01*
X355997Y371511D01*
X355995Y371621D01*
X356968Y369349D02*
X362486Y362858D01*
X355995Y362858D01*
X351056Y371946D02*
X347810Y374542D01*
X347810Y362858D01*
X344565Y362858D02*
X351056Y362858D01*
X373842Y378858D02*
X373842Y390542D01*
X370596Y390542D01*
X370483Y390540D01*
X370370Y390534D01*
X370257Y390524D01*
X370144Y390510D01*
X370032Y390493D01*
X369921Y390471D01*
X369811Y390446D01*
X369701Y390416D01*
X369593Y390383D01*
X369486Y390346D01*
X369380Y390306D01*
X369276Y390261D01*
X369173Y390213D01*
X369072Y390162D01*
X368973Y390107D01*
X368876Y390049D01*
X368781Y389987D01*
X368688Y389922D01*
X368598Y389854D01*
X368510Y389783D01*
X368424Y389708D01*
X368341Y389631D01*
X368261Y389551D01*
X368184Y389468D01*
X368109Y389382D01*
X368038Y389294D01*
X367970Y389204D01*
X367905Y389111D01*
X367843Y389016D01*
X367785Y388919D01*
X367730Y388820D01*
X367679Y388719D01*
X367631Y388616D01*
X367586Y388512D01*
X367546Y388406D01*
X367509Y388299D01*
X367476Y388191D01*
X367446Y388081D01*
X367421Y387971D01*
X367399Y387860D01*
X367382Y387748D01*
X367368Y387635D01*
X367358Y387522D01*
X367352Y387409D01*
X367350Y387296D01*
X367352Y387183D01*
X367358Y387070D01*
X367368Y386957D01*
X367382Y386844D01*
X367399Y386732D01*
X367421Y386621D01*
X367446Y386511D01*
X367476Y386401D01*
X367509Y386293D01*
X367546Y386186D01*
X367586Y386080D01*
X367631Y385976D01*
X367679Y385873D01*
X367730Y385772D01*
X367785Y385673D01*
X367843Y385576D01*
X367905Y385481D01*
X367970Y385388D01*
X368038Y385298D01*
X368109Y385210D01*
X368184Y385124D01*
X368261Y385041D01*
X368341Y384961D01*
X368424Y384884D01*
X368510Y384809D01*
X368598Y384738D01*
X368688Y384670D01*
X368781Y384605D01*
X368876Y384543D01*
X368973Y384485D01*
X369072Y384430D01*
X369173Y384379D01*
X369276Y384331D01*
X369380Y384286D01*
X369486Y384246D01*
X369593Y384209D01*
X369701Y384176D01*
X369811Y384146D01*
X369921Y384121D01*
X370032Y384099D01*
X370144Y384082D01*
X370257Y384068D01*
X370370Y384058D01*
X370483Y384052D01*
X370596Y384050D01*
X370596Y384051D02*
X373842Y384051D01*
X369947Y384051D02*
X367351Y378858D01*
X355995Y387621D02*
X355997Y387728D01*
X356003Y387834D01*
X356013Y387940D01*
X356026Y388046D01*
X356044Y388152D01*
X356065Y388256D01*
X356090Y388360D01*
X356119Y388463D01*
X356151Y388564D01*
X356188Y388664D01*
X356228Y388763D01*
X356271Y388861D01*
X356318Y388957D01*
X356369Y389051D01*
X356423Y389143D01*
X356480Y389233D01*
X356540Y389321D01*
X356604Y389406D01*
X356671Y389489D01*
X356741Y389570D01*
X356813Y389648D01*
X356889Y389724D01*
X356967Y389796D01*
X357048Y389866D01*
X357131Y389933D01*
X357216Y389997D01*
X357304Y390057D01*
X357394Y390114D01*
X357486Y390168D01*
X357580Y390219D01*
X357676Y390266D01*
X357774Y390309D01*
X357873Y390349D01*
X357973Y390386D01*
X358074Y390418D01*
X358177Y390447D01*
X358281Y390472D01*
X358385Y390493D01*
X358491Y390511D01*
X358597Y390524D01*
X358703Y390534D01*
X358809Y390540D01*
X358916Y390542D01*
X359037Y390540D01*
X359158Y390534D01*
X359278Y390524D01*
X359399Y390511D01*
X359518Y390493D01*
X359638Y390472D01*
X359756Y390447D01*
X359873Y390418D01*
X359990Y390385D01*
X360105Y390349D01*
X360219Y390308D01*
X360332Y390265D01*
X360444Y390217D01*
X360553Y390166D01*
X360661Y390111D01*
X360768Y390053D01*
X360872Y389992D01*
X360974Y389927D01*
X361074Y389859D01*
X361172Y389788D01*
X361268Y389714D01*
X361361Y389637D01*
X361451Y389556D01*
X361539Y389473D01*
X361624Y389387D01*
X361707Y389298D01*
X361786Y389207D01*
X361863Y389113D01*
X361936Y389017D01*
X362006Y388919D01*
X362073Y388818D01*
X362137Y388715D01*
X362198Y388610D01*
X362255Y388503D01*
X362308Y388395D01*
X362358Y388285D01*
X362404Y388173D01*
X362447Y388060D01*
X362486Y387945D01*
X356969Y385349D02*
X356890Y385427D01*
X356814Y385507D01*
X356741Y385590D01*
X356671Y385676D01*
X356604Y385763D01*
X356540Y385854D01*
X356480Y385946D01*
X356422Y386040D01*
X356368Y386137D01*
X356318Y386235D01*
X356271Y386335D01*
X356227Y386436D01*
X356187Y386539D01*
X356151Y386644D01*
X356119Y386749D01*
X356090Y386856D01*
X356065Y386963D01*
X356043Y387072D01*
X356026Y387181D01*
X356012Y387290D01*
X356003Y387400D01*
X355997Y387511D01*
X355995Y387621D01*
X356968Y385349D02*
X362486Y378858D01*
X355995Y378858D01*
X344565Y387621D02*
X344567Y387728D01*
X344573Y387834D01*
X344583Y387940D01*
X344596Y388046D01*
X344614Y388152D01*
X344635Y388256D01*
X344660Y388360D01*
X344689Y388463D01*
X344721Y388564D01*
X344758Y388664D01*
X344798Y388763D01*
X344841Y388861D01*
X344888Y388957D01*
X344939Y389051D01*
X344993Y389143D01*
X345050Y389233D01*
X345110Y389321D01*
X345174Y389406D01*
X345241Y389489D01*
X345311Y389570D01*
X345383Y389648D01*
X345459Y389724D01*
X345537Y389796D01*
X345618Y389866D01*
X345701Y389933D01*
X345786Y389997D01*
X345874Y390057D01*
X345964Y390114D01*
X346056Y390168D01*
X346150Y390219D01*
X346246Y390266D01*
X346344Y390309D01*
X346443Y390349D01*
X346543Y390386D01*
X346644Y390418D01*
X346747Y390447D01*
X346851Y390472D01*
X346955Y390493D01*
X347061Y390511D01*
X347167Y390524D01*
X347273Y390534D01*
X347379Y390540D01*
X347486Y390542D01*
X347607Y390540D01*
X347728Y390534D01*
X347848Y390524D01*
X347969Y390511D01*
X348088Y390493D01*
X348208Y390472D01*
X348326Y390447D01*
X348443Y390418D01*
X348560Y390385D01*
X348675Y390349D01*
X348789Y390308D01*
X348902Y390265D01*
X349014Y390217D01*
X349123Y390166D01*
X349231Y390111D01*
X349338Y390053D01*
X349442Y389992D01*
X349544Y389927D01*
X349644Y389859D01*
X349742Y389788D01*
X349838Y389714D01*
X349931Y389637D01*
X350021Y389556D01*
X350109Y389473D01*
X350194Y389387D01*
X350277Y389298D01*
X350356Y389207D01*
X350433Y389113D01*
X350506Y389017D01*
X350576Y388919D01*
X350643Y388818D01*
X350707Y388715D01*
X350768Y388610D01*
X350825Y388503D01*
X350878Y388395D01*
X350928Y388285D01*
X350974Y388173D01*
X351017Y388060D01*
X351056Y387945D01*
X345539Y385349D02*
X345460Y385427D01*
X345384Y385507D01*
X345311Y385590D01*
X345241Y385676D01*
X345174Y385763D01*
X345110Y385854D01*
X345050Y385946D01*
X344992Y386040D01*
X344938Y386137D01*
X344888Y386235D01*
X344841Y386335D01*
X344797Y386436D01*
X344757Y386539D01*
X344721Y386644D01*
X344689Y386749D01*
X344660Y386856D01*
X344635Y386963D01*
X344613Y387072D01*
X344596Y387181D01*
X344582Y387290D01*
X344573Y387400D01*
X344567Y387511D01*
X344565Y387621D01*
X345538Y385349D02*
X351056Y378858D01*
X344565Y378858D01*
X373842Y394858D02*
X373842Y406542D01*
X370596Y406542D01*
X370483Y406540D01*
X370370Y406534D01*
X370257Y406524D01*
X370144Y406510D01*
X370032Y406493D01*
X369921Y406471D01*
X369811Y406446D01*
X369701Y406416D01*
X369593Y406383D01*
X369486Y406346D01*
X369380Y406306D01*
X369276Y406261D01*
X369173Y406213D01*
X369072Y406162D01*
X368973Y406107D01*
X368876Y406049D01*
X368781Y405987D01*
X368688Y405922D01*
X368598Y405854D01*
X368510Y405783D01*
X368424Y405708D01*
X368341Y405631D01*
X368261Y405551D01*
X368184Y405468D01*
X368109Y405382D01*
X368038Y405294D01*
X367970Y405204D01*
X367905Y405111D01*
X367843Y405016D01*
X367785Y404919D01*
X367730Y404820D01*
X367679Y404719D01*
X367631Y404616D01*
X367586Y404512D01*
X367546Y404406D01*
X367509Y404299D01*
X367476Y404191D01*
X367446Y404081D01*
X367421Y403971D01*
X367399Y403860D01*
X367382Y403748D01*
X367368Y403635D01*
X367358Y403522D01*
X367352Y403409D01*
X367350Y403296D01*
X367352Y403183D01*
X367358Y403070D01*
X367368Y402957D01*
X367382Y402844D01*
X367399Y402732D01*
X367421Y402621D01*
X367446Y402511D01*
X367476Y402401D01*
X367509Y402293D01*
X367546Y402186D01*
X367586Y402080D01*
X367631Y401976D01*
X367679Y401873D01*
X367730Y401772D01*
X367785Y401673D01*
X367843Y401576D01*
X367905Y401481D01*
X367970Y401388D01*
X368038Y401298D01*
X368109Y401210D01*
X368184Y401124D01*
X368261Y401041D01*
X368341Y400961D01*
X368424Y400884D01*
X368510Y400809D01*
X368598Y400738D01*
X368688Y400670D01*
X368781Y400605D01*
X368876Y400543D01*
X368973Y400485D01*
X369072Y400430D01*
X369173Y400379D01*
X369276Y400331D01*
X369380Y400286D01*
X369486Y400246D01*
X369593Y400209D01*
X369701Y400176D01*
X369811Y400146D01*
X369921Y400121D01*
X370032Y400099D01*
X370144Y400082D01*
X370257Y400068D01*
X370370Y400058D01*
X370483Y400052D01*
X370596Y400050D01*
X370596Y400051D02*
X373842Y400051D01*
X369947Y400051D02*
X367351Y394858D01*
X355995Y403621D02*
X355997Y403728D01*
X356003Y403834D01*
X356013Y403940D01*
X356026Y404046D01*
X356044Y404152D01*
X356065Y404256D01*
X356090Y404360D01*
X356119Y404463D01*
X356151Y404564D01*
X356188Y404664D01*
X356228Y404763D01*
X356271Y404861D01*
X356318Y404957D01*
X356369Y405051D01*
X356423Y405143D01*
X356480Y405233D01*
X356540Y405321D01*
X356604Y405406D01*
X356671Y405489D01*
X356741Y405570D01*
X356813Y405648D01*
X356889Y405724D01*
X356967Y405796D01*
X357048Y405866D01*
X357131Y405933D01*
X357216Y405997D01*
X357304Y406057D01*
X357394Y406114D01*
X357486Y406168D01*
X357580Y406219D01*
X357676Y406266D01*
X357774Y406309D01*
X357873Y406349D01*
X357973Y406386D01*
X358074Y406418D01*
X358177Y406447D01*
X358281Y406472D01*
X358385Y406493D01*
X358491Y406511D01*
X358597Y406524D01*
X358703Y406534D01*
X358809Y406540D01*
X358916Y406542D01*
X359037Y406540D01*
X359158Y406534D01*
X359278Y406524D01*
X359399Y406511D01*
X359518Y406493D01*
X359638Y406472D01*
X359756Y406447D01*
X359873Y406418D01*
X359990Y406385D01*
X360105Y406349D01*
X360219Y406308D01*
X360332Y406265D01*
X360444Y406217D01*
X360553Y406166D01*
X360661Y406111D01*
X360768Y406053D01*
X360872Y405992D01*
X360974Y405927D01*
X361074Y405859D01*
X361172Y405788D01*
X361268Y405714D01*
X361361Y405637D01*
X361451Y405556D01*
X361539Y405473D01*
X361624Y405387D01*
X361707Y405298D01*
X361786Y405207D01*
X361863Y405113D01*
X361936Y405017D01*
X362006Y404919D01*
X362073Y404818D01*
X362137Y404715D01*
X362198Y404610D01*
X362255Y404503D01*
X362308Y404395D01*
X362358Y404285D01*
X362404Y404173D01*
X362447Y404060D01*
X362486Y403945D01*
X356969Y401349D02*
X356890Y401427D01*
X356814Y401507D01*
X356741Y401590D01*
X356671Y401676D01*
X356604Y401763D01*
X356540Y401854D01*
X356480Y401946D01*
X356422Y402040D01*
X356368Y402137D01*
X356318Y402235D01*
X356271Y402335D01*
X356227Y402436D01*
X356187Y402539D01*
X356151Y402644D01*
X356119Y402749D01*
X356090Y402856D01*
X356065Y402963D01*
X356043Y403072D01*
X356026Y403181D01*
X356012Y403290D01*
X356003Y403400D01*
X355997Y403511D01*
X355995Y403621D01*
X356968Y401349D02*
X362486Y394858D01*
X355995Y394858D01*
X351056Y394858D02*
X347810Y394858D01*
X347697Y394860D01*
X347584Y394866D01*
X347471Y394876D01*
X347358Y394890D01*
X347246Y394907D01*
X347135Y394929D01*
X347025Y394954D01*
X346915Y394984D01*
X346807Y395017D01*
X346700Y395054D01*
X346594Y395094D01*
X346490Y395139D01*
X346387Y395187D01*
X346286Y395238D01*
X346187Y395293D01*
X346090Y395351D01*
X345995Y395413D01*
X345902Y395478D01*
X345812Y395546D01*
X345724Y395617D01*
X345638Y395692D01*
X345555Y395769D01*
X345475Y395849D01*
X345398Y395932D01*
X345323Y396018D01*
X345252Y396106D01*
X345184Y396196D01*
X345119Y396289D01*
X345057Y396384D01*
X344999Y396481D01*
X344944Y396580D01*
X344893Y396681D01*
X344845Y396784D01*
X344800Y396888D01*
X344760Y396994D01*
X344723Y397101D01*
X344690Y397209D01*
X344660Y397319D01*
X344635Y397429D01*
X344613Y397540D01*
X344596Y397652D01*
X344582Y397765D01*
X344572Y397878D01*
X344566Y397991D01*
X344564Y398104D01*
X344566Y398217D01*
X344572Y398330D01*
X344582Y398443D01*
X344596Y398556D01*
X344613Y398668D01*
X344635Y398779D01*
X344660Y398889D01*
X344690Y398999D01*
X344723Y399107D01*
X344760Y399214D01*
X344800Y399320D01*
X344845Y399424D01*
X344893Y399527D01*
X344944Y399628D01*
X344999Y399727D01*
X345057Y399824D01*
X345119Y399919D01*
X345184Y400012D01*
X345252Y400102D01*
X345323Y400190D01*
X345398Y400276D01*
X345475Y400359D01*
X345555Y400439D01*
X345638Y400516D01*
X345724Y400591D01*
X345812Y400662D01*
X345902Y400730D01*
X345995Y400795D01*
X346090Y400857D01*
X346187Y400915D01*
X346286Y400970D01*
X346387Y401021D01*
X346490Y401069D01*
X346594Y401114D01*
X346700Y401154D01*
X346807Y401191D01*
X346915Y401224D01*
X347025Y401254D01*
X347135Y401279D01*
X347246Y401301D01*
X347358Y401318D01*
X347471Y401332D01*
X347584Y401342D01*
X347697Y401348D01*
X347810Y401350D01*
X347161Y406542D02*
X351056Y406542D01*
X347161Y406542D02*
X347060Y406540D01*
X346960Y406534D01*
X346860Y406524D01*
X346760Y406511D01*
X346661Y406493D01*
X346562Y406472D01*
X346465Y406447D01*
X346368Y406418D01*
X346273Y406385D01*
X346179Y406349D01*
X346087Y406309D01*
X345996Y406266D01*
X345907Y406219D01*
X345820Y406169D01*
X345734Y406115D01*
X345651Y406058D01*
X345571Y405998D01*
X345492Y405935D01*
X345416Y405868D01*
X345343Y405799D01*
X345273Y405727D01*
X345205Y405653D01*
X345140Y405576D01*
X345079Y405496D01*
X345020Y405414D01*
X344965Y405330D01*
X344913Y405244D01*
X344864Y405156D01*
X344819Y405066D01*
X344777Y404974D01*
X344739Y404881D01*
X344705Y404786D01*
X344674Y404691D01*
X344647Y404594D01*
X344624Y404496D01*
X344604Y404397D01*
X344589Y404297D01*
X344577Y404197D01*
X344569Y404097D01*
X344565Y403996D01*
X344565Y403896D01*
X344569Y403795D01*
X344577Y403695D01*
X344589Y403595D01*
X344604Y403495D01*
X344624Y403396D01*
X344647Y403298D01*
X344674Y403201D01*
X344705Y403106D01*
X344739Y403011D01*
X344777Y402918D01*
X344819Y402826D01*
X344864Y402736D01*
X344913Y402648D01*
X344965Y402562D01*
X345020Y402478D01*
X345079Y402396D01*
X345140Y402316D01*
X345205Y402239D01*
X345273Y402165D01*
X345343Y402093D01*
X345416Y402024D01*
X345492Y401957D01*
X345571Y401894D01*
X345651Y401834D01*
X345734Y401777D01*
X345820Y401723D01*
X345907Y401673D01*
X345996Y401626D01*
X346087Y401583D01*
X346179Y401543D01*
X346273Y401507D01*
X346368Y401474D01*
X346465Y401445D01*
X346562Y401420D01*
X346661Y401399D01*
X346760Y401381D01*
X346860Y401368D01*
X346960Y401358D01*
X347060Y401352D01*
X347161Y401350D01*
X347161Y401349D02*
X349757Y401349D01*
X373842Y410858D02*
X373842Y422542D01*
X370596Y422542D01*
X370483Y422540D01*
X370370Y422534D01*
X370257Y422524D01*
X370144Y422510D01*
X370032Y422493D01*
X369921Y422471D01*
X369811Y422446D01*
X369701Y422416D01*
X369593Y422383D01*
X369486Y422346D01*
X369380Y422306D01*
X369276Y422261D01*
X369173Y422213D01*
X369072Y422162D01*
X368973Y422107D01*
X368876Y422049D01*
X368781Y421987D01*
X368688Y421922D01*
X368598Y421854D01*
X368510Y421783D01*
X368424Y421708D01*
X368341Y421631D01*
X368261Y421551D01*
X368184Y421468D01*
X368109Y421382D01*
X368038Y421294D01*
X367970Y421204D01*
X367905Y421111D01*
X367843Y421016D01*
X367785Y420919D01*
X367730Y420820D01*
X367679Y420719D01*
X367631Y420616D01*
X367586Y420512D01*
X367546Y420406D01*
X367509Y420299D01*
X367476Y420191D01*
X367446Y420081D01*
X367421Y419971D01*
X367399Y419860D01*
X367382Y419748D01*
X367368Y419635D01*
X367358Y419522D01*
X367352Y419409D01*
X367350Y419296D01*
X367352Y419183D01*
X367358Y419070D01*
X367368Y418957D01*
X367382Y418844D01*
X367399Y418732D01*
X367421Y418621D01*
X367446Y418511D01*
X367476Y418401D01*
X367509Y418293D01*
X367546Y418186D01*
X367586Y418080D01*
X367631Y417976D01*
X367679Y417873D01*
X367730Y417772D01*
X367785Y417673D01*
X367843Y417576D01*
X367905Y417481D01*
X367970Y417388D01*
X368038Y417298D01*
X368109Y417210D01*
X368184Y417124D01*
X368261Y417041D01*
X368341Y416961D01*
X368424Y416884D01*
X368510Y416809D01*
X368598Y416738D01*
X368688Y416670D01*
X368781Y416605D01*
X368876Y416543D01*
X368973Y416485D01*
X369072Y416430D01*
X369173Y416379D01*
X369276Y416331D01*
X369380Y416286D01*
X369486Y416246D01*
X369593Y416209D01*
X369701Y416176D01*
X369811Y416146D01*
X369921Y416121D01*
X370032Y416099D01*
X370144Y416082D01*
X370257Y416068D01*
X370370Y416058D01*
X370483Y416052D01*
X370596Y416050D01*
X370596Y416051D02*
X373842Y416051D01*
X369947Y416051D02*
X367351Y410858D01*
X355995Y419621D02*
X355997Y419728D01*
X356003Y419834D01*
X356013Y419940D01*
X356026Y420046D01*
X356044Y420152D01*
X356065Y420256D01*
X356090Y420360D01*
X356119Y420463D01*
X356151Y420564D01*
X356188Y420664D01*
X356228Y420763D01*
X356271Y420861D01*
X356318Y420957D01*
X356369Y421051D01*
X356423Y421143D01*
X356480Y421233D01*
X356540Y421321D01*
X356604Y421406D01*
X356671Y421489D01*
X356741Y421570D01*
X356813Y421648D01*
X356889Y421724D01*
X356967Y421796D01*
X357048Y421866D01*
X357131Y421933D01*
X357216Y421997D01*
X357304Y422057D01*
X357394Y422114D01*
X357486Y422168D01*
X357580Y422219D01*
X357676Y422266D01*
X357774Y422309D01*
X357873Y422349D01*
X357973Y422386D01*
X358074Y422418D01*
X358177Y422447D01*
X358281Y422472D01*
X358385Y422493D01*
X358491Y422511D01*
X358597Y422524D01*
X358703Y422534D01*
X358809Y422540D01*
X358916Y422542D01*
X359037Y422540D01*
X359158Y422534D01*
X359278Y422524D01*
X359399Y422511D01*
X359518Y422493D01*
X359638Y422472D01*
X359756Y422447D01*
X359873Y422418D01*
X359990Y422385D01*
X360105Y422349D01*
X360219Y422308D01*
X360332Y422265D01*
X360444Y422217D01*
X360553Y422166D01*
X360661Y422111D01*
X360768Y422053D01*
X360872Y421992D01*
X360974Y421927D01*
X361074Y421859D01*
X361172Y421788D01*
X361268Y421714D01*
X361361Y421637D01*
X361451Y421556D01*
X361539Y421473D01*
X361624Y421387D01*
X361707Y421298D01*
X361786Y421207D01*
X361863Y421113D01*
X361936Y421017D01*
X362006Y420919D01*
X362073Y420818D01*
X362137Y420715D01*
X362198Y420610D01*
X362255Y420503D01*
X362308Y420395D01*
X362358Y420285D01*
X362404Y420173D01*
X362447Y420060D01*
X362486Y419945D01*
X356969Y417349D02*
X356890Y417427D01*
X356814Y417507D01*
X356741Y417590D01*
X356671Y417676D01*
X356604Y417763D01*
X356540Y417854D01*
X356480Y417946D01*
X356422Y418040D01*
X356368Y418137D01*
X356318Y418235D01*
X356271Y418335D01*
X356227Y418436D01*
X356187Y418539D01*
X356151Y418644D01*
X356119Y418749D01*
X356090Y418856D01*
X356065Y418963D01*
X356043Y419072D01*
X356026Y419181D01*
X356012Y419290D01*
X356003Y419400D01*
X355997Y419511D01*
X355995Y419621D01*
X356968Y417349D02*
X362486Y410858D01*
X355995Y410858D01*
X351056Y413454D02*
X348459Y422542D01*
X351056Y413454D02*
X344565Y413454D01*
X346512Y416051D02*
X346512Y410858D01*
X373842Y434858D02*
X373842Y446542D01*
X370596Y446542D01*
X370483Y446540D01*
X370370Y446534D01*
X370257Y446524D01*
X370144Y446510D01*
X370032Y446493D01*
X369921Y446471D01*
X369811Y446446D01*
X369701Y446416D01*
X369593Y446383D01*
X369486Y446346D01*
X369380Y446306D01*
X369276Y446261D01*
X369173Y446213D01*
X369072Y446162D01*
X368973Y446107D01*
X368876Y446049D01*
X368781Y445987D01*
X368688Y445922D01*
X368598Y445854D01*
X368510Y445783D01*
X368424Y445708D01*
X368341Y445631D01*
X368261Y445551D01*
X368184Y445468D01*
X368109Y445382D01*
X368038Y445294D01*
X367970Y445204D01*
X367905Y445111D01*
X367843Y445016D01*
X367785Y444919D01*
X367730Y444820D01*
X367679Y444719D01*
X367631Y444616D01*
X367586Y444512D01*
X367546Y444406D01*
X367509Y444299D01*
X367476Y444191D01*
X367446Y444081D01*
X367421Y443971D01*
X367399Y443860D01*
X367382Y443748D01*
X367368Y443635D01*
X367358Y443522D01*
X367352Y443409D01*
X367350Y443296D01*
X367352Y443183D01*
X367358Y443070D01*
X367368Y442957D01*
X367382Y442844D01*
X367399Y442732D01*
X367421Y442621D01*
X367446Y442511D01*
X367476Y442401D01*
X367509Y442293D01*
X367546Y442186D01*
X367586Y442080D01*
X367631Y441976D01*
X367679Y441873D01*
X367730Y441772D01*
X367785Y441673D01*
X367843Y441576D01*
X367905Y441481D01*
X367970Y441388D01*
X368038Y441298D01*
X368109Y441210D01*
X368184Y441124D01*
X368261Y441041D01*
X368341Y440961D01*
X368424Y440884D01*
X368510Y440809D01*
X368598Y440738D01*
X368688Y440670D01*
X368781Y440605D01*
X368876Y440543D01*
X368973Y440485D01*
X369072Y440430D01*
X369173Y440379D01*
X369276Y440331D01*
X369380Y440286D01*
X369486Y440246D01*
X369593Y440209D01*
X369701Y440176D01*
X369811Y440146D01*
X369921Y440121D01*
X370032Y440099D01*
X370144Y440082D01*
X370257Y440068D01*
X370370Y440058D01*
X370483Y440052D01*
X370596Y440050D01*
X370596Y440051D02*
X373842Y440051D01*
X369947Y440051D02*
X367351Y434858D01*
X355995Y443621D02*
X355997Y443728D01*
X356003Y443834D01*
X356013Y443940D01*
X356026Y444046D01*
X356044Y444152D01*
X356065Y444256D01*
X356090Y444360D01*
X356119Y444463D01*
X356151Y444564D01*
X356188Y444664D01*
X356228Y444763D01*
X356271Y444861D01*
X356318Y444957D01*
X356369Y445051D01*
X356423Y445143D01*
X356480Y445233D01*
X356540Y445321D01*
X356604Y445406D01*
X356671Y445489D01*
X356741Y445570D01*
X356813Y445648D01*
X356889Y445724D01*
X356967Y445796D01*
X357048Y445866D01*
X357131Y445933D01*
X357216Y445997D01*
X357304Y446057D01*
X357394Y446114D01*
X357486Y446168D01*
X357580Y446219D01*
X357676Y446266D01*
X357774Y446309D01*
X357873Y446349D01*
X357973Y446386D01*
X358074Y446418D01*
X358177Y446447D01*
X358281Y446472D01*
X358385Y446493D01*
X358491Y446511D01*
X358597Y446524D01*
X358703Y446534D01*
X358809Y446540D01*
X358916Y446542D01*
X359037Y446540D01*
X359158Y446534D01*
X359278Y446524D01*
X359399Y446511D01*
X359518Y446493D01*
X359638Y446472D01*
X359756Y446447D01*
X359873Y446418D01*
X359990Y446385D01*
X360105Y446349D01*
X360219Y446308D01*
X360332Y446265D01*
X360444Y446217D01*
X360553Y446166D01*
X360661Y446111D01*
X360768Y446053D01*
X360872Y445992D01*
X360974Y445927D01*
X361074Y445859D01*
X361172Y445788D01*
X361268Y445714D01*
X361361Y445637D01*
X361451Y445556D01*
X361539Y445473D01*
X361624Y445387D01*
X361707Y445298D01*
X361786Y445207D01*
X361863Y445113D01*
X361936Y445017D01*
X362006Y444919D01*
X362073Y444818D01*
X362137Y444715D01*
X362198Y444610D01*
X362255Y444503D01*
X362308Y444395D01*
X362358Y444285D01*
X362404Y444173D01*
X362447Y444060D01*
X362486Y443945D01*
X356969Y441349D02*
X356890Y441427D01*
X356814Y441507D01*
X356741Y441590D01*
X356671Y441676D01*
X356604Y441763D01*
X356540Y441854D01*
X356480Y441946D01*
X356422Y442040D01*
X356368Y442137D01*
X356318Y442235D01*
X356271Y442335D01*
X356227Y442436D01*
X356187Y442539D01*
X356151Y442644D01*
X356119Y442749D01*
X356090Y442856D01*
X356065Y442963D01*
X356043Y443072D01*
X356026Y443181D01*
X356012Y443290D01*
X356003Y443400D01*
X355997Y443511D01*
X355995Y443621D01*
X356968Y441349D02*
X362486Y434858D01*
X355995Y434858D01*
X351056Y434858D02*
X347161Y434858D01*
X347062Y434860D01*
X346962Y434866D01*
X346863Y434875D01*
X346765Y434888D01*
X346667Y434905D01*
X346569Y434926D01*
X346473Y434951D01*
X346378Y434979D01*
X346284Y435011D01*
X346191Y435046D01*
X346099Y435085D01*
X346009Y435128D01*
X345921Y435173D01*
X345834Y435223D01*
X345750Y435275D01*
X345667Y435331D01*
X345587Y435389D01*
X345509Y435451D01*
X345434Y435516D01*
X345361Y435584D01*
X345291Y435654D01*
X345223Y435727D01*
X345158Y435802D01*
X345096Y435880D01*
X345038Y435960D01*
X344982Y436043D01*
X344930Y436127D01*
X344880Y436214D01*
X344835Y436302D01*
X344792Y436392D01*
X344753Y436484D01*
X344718Y436577D01*
X344686Y436671D01*
X344658Y436766D01*
X344633Y436862D01*
X344612Y436960D01*
X344595Y437058D01*
X344582Y437156D01*
X344573Y437255D01*
X344567Y437355D01*
X344565Y437454D01*
X344565Y438753D01*
X344567Y438852D01*
X344573Y438952D01*
X344582Y439051D01*
X344595Y439149D01*
X344612Y439247D01*
X344633Y439345D01*
X344658Y439441D01*
X344686Y439536D01*
X344718Y439630D01*
X344753Y439723D01*
X344792Y439815D01*
X344835Y439905D01*
X344880Y439993D01*
X344930Y440080D01*
X344982Y440164D01*
X345038Y440247D01*
X345096Y440327D01*
X345158Y440405D01*
X345223Y440480D01*
X345291Y440553D01*
X345361Y440623D01*
X345434Y440691D01*
X345509Y440756D01*
X345587Y440818D01*
X345667Y440876D01*
X345750Y440932D01*
X345834Y440984D01*
X345921Y441034D01*
X346009Y441079D01*
X346099Y441122D01*
X346191Y441161D01*
X346284Y441196D01*
X346378Y441228D01*
X346473Y441256D01*
X346569Y441281D01*
X346667Y441302D01*
X346765Y441319D01*
X346863Y441332D01*
X346962Y441341D01*
X347062Y441347D01*
X347161Y441349D01*
X351056Y441349D01*
X351056Y446542D01*
X344565Y446542D01*
X373842Y450858D02*
X373842Y462542D01*
X370596Y462542D01*
X370483Y462540D01*
X370370Y462534D01*
X370257Y462524D01*
X370144Y462510D01*
X370032Y462493D01*
X369921Y462471D01*
X369811Y462446D01*
X369701Y462416D01*
X369593Y462383D01*
X369486Y462346D01*
X369380Y462306D01*
X369276Y462261D01*
X369173Y462213D01*
X369072Y462162D01*
X368973Y462107D01*
X368876Y462049D01*
X368781Y461987D01*
X368688Y461922D01*
X368598Y461854D01*
X368510Y461783D01*
X368424Y461708D01*
X368341Y461631D01*
X368261Y461551D01*
X368184Y461468D01*
X368109Y461382D01*
X368038Y461294D01*
X367970Y461204D01*
X367905Y461111D01*
X367843Y461016D01*
X367785Y460919D01*
X367730Y460820D01*
X367679Y460719D01*
X367631Y460616D01*
X367586Y460512D01*
X367546Y460406D01*
X367509Y460299D01*
X367476Y460191D01*
X367446Y460081D01*
X367421Y459971D01*
X367399Y459860D01*
X367382Y459748D01*
X367368Y459635D01*
X367358Y459522D01*
X367352Y459409D01*
X367350Y459296D01*
X367352Y459183D01*
X367358Y459070D01*
X367368Y458957D01*
X367382Y458844D01*
X367399Y458732D01*
X367421Y458621D01*
X367446Y458511D01*
X367476Y458401D01*
X367509Y458293D01*
X367546Y458186D01*
X367586Y458080D01*
X367631Y457976D01*
X367679Y457873D01*
X367730Y457772D01*
X367785Y457673D01*
X367843Y457576D01*
X367905Y457481D01*
X367970Y457388D01*
X368038Y457298D01*
X368109Y457210D01*
X368184Y457124D01*
X368261Y457041D01*
X368341Y456961D01*
X368424Y456884D01*
X368510Y456809D01*
X368598Y456738D01*
X368688Y456670D01*
X368781Y456605D01*
X368876Y456543D01*
X368973Y456485D01*
X369072Y456430D01*
X369173Y456379D01*
X369276Y456331D01*
X369380Y456286D01*
X369486Y456246D01*
X369593Y456209D01*
X369701Y456176D01*
X369811Y456146D01*
X369921Y456121D01*
X370032Y456099D01*
X370144Y456082D01*
X370257Y456068D01*
X370370Y456058D01*
X370483Y456052D01*
X370596Y456050D01*
X370596Y456051D02*
X373842Y456051D01*
X369947Y456051D02*
X367351Y450858D01*
X355995Y459621D02*
X355997Y459728D01*
X356003Y459834D01*
X356013Y459940D01*
X356026Y460046D01*
X356044Y460152D01*
X356065Y460256D01*
X356090Y460360D01*
X356119Y460463D01*
X356151Y460564D01*
X356188Y460664D01*
X356228Y460763D01*
X356271Y460861D01*
X356318Y460957D01*
X356369Y461051D01*
X356423Y461143D01*
X356480Y461233D01*
X356540Y461321D01*
X356604Y461406D01*
X356671Y461489D01*
X356741Y461570D01*
X356813Y461648D01*
X356889Y461724D01*
X356967Y461796D01*
X357048Y461866D01*
X357131Y461933D01*
X357216Y461997D01*
X357304Y462057D01*
X357394Y462114D01*
X357486Y462168D01*
X357580Y462219D01*
X357676Y462266D01*
X357774Y462309D01*
X357873Y462349D01*
X357973Y462386D01*
X358074Y462418D01*
X358177Y462447D01*
X358281Y462472D01*
X358385Y462493D01*
X358491Y462511D01*
X358597Y462524D01*
X358703Y462534D01*
X358809Y462540D01*
X358916Y462542D01*
X359037Y462540D01*
X359158Y462534D01*
X359278Y462524D01*
X359399Y462511D01*
X359518Y462493D01*
X359638Y462472D01*
X359756Y462447D01*
X359873Y462418D01*
X359990Y462385D01*
X360105Y462349D01*
X360219Y462308D01*
X360332Y462265D01*
X360444Y462217D01*
X360553Y462166D01*
X360661Y462111D01*
X360768Y462053D01*
X360872Y461992D01*
X360974Y461927D01*
X361074Y461859D01*
X361172Y461788D01*
X361268Y461714D01*
X361361Y461637D01*
X361451Y461556D01*
X361539Y461473D01*
X361624Y461387D01*
X361707Y461298D01*
X361786Y461207D01*
X361863Y461113D01*
X361936Y461017D01*
X362006Y460919D01*
X362073Y460818D01*
X362137Y460715D01*
X362198Y460610D01*
X362255Y460503D01*
X362308Y460395D01*
X362358Y460285D01*
X362404Y460173D01*
X362447Y460060D01*
X362486Y459945D01*
X356969Y457349D02*
X356890Y457427D01*
X356814Y457507D01*
X356741Y457590D01*
X356671Y457676D01*
X356604Y457763D01*
X356540Y457854D01*
X356480Y457946D01*
X356422Y458040D01*
X356368Y458137D01*
X356318Y458235D01*
X356271Y458335D01*
X356227Y458436D01*
X356187Y458539D01*
X356151Y458644D01*
X356119Y458749D01*
X356090Y458856D01*
X356065Y458963D01*
X356043Y459072D01*
X356026Y459181D01*
X356012Y459290D01*
X356003Y459400D01*
X355997Y459511D01*
X355995Y459621D01*
X356968Y457349D02*
X362486Y450858D01*
X355995Y450858D01*
X351056Y457349D02*
X347161Y457349D01*
X347062Y457347D01*
X346962Y457341D01*
X346863Y457332D01*
X346765Y457319D01*
X346667Y457302D01*
X346569Y457281D01*
X346473Y457256D01*
X346378Y457228D01*
X346284Y457196D01*
X346191Y457161D01*
X346099Y457122D01*
X346009Y457079D01*
X345921Y457034D01*
X345834Y456984D01*
X345750Y456932D01*
X345667Y456876D01*
X345587Y456818D01*
X345509Y456756D01*
X345434Y456691D01*
X345361Y456623D01*
X345291Y456553D01*
X345223Y456480D01*
X345158Y456405D01*
X345096Y456327D01*
X345038Y456247D01*
X344982Y456164D01*
X344930Y456080D01*
X344880Y455993D01*
X344835Y455905D01*
X344792Y455815D01*
X344753Y455723D01*
X344718Y455630D01*
X344686Y455536D01*
X344658Y455441D01*
X344633Y455345D01*
X344612Y455247D01*
X344595Y455149D01*
X344582Y455051D01*
X344573Y454952D01*
X344567Y454852D01*
X344565Y454753D01*
X344565Y454104D01*
X344564Y454104D02*
X344566Y453991D01*
X344572Y453878D01*
X344582Y453765D01*
X344596Y453652D01*
X344613Y453540D01*
X344635Y453429D01*
X344660Y453319D01*
X344690Y453209D01*
X344723Y453101D01*
X344760Y452994D01*
X344800Y452888D01*
X344845Y452784D01*
X344893Y452681D01*
X344944Y452580D01*
X344999Y452481D01*
X345057Y452384D01*
X345119Y452289D01*
X345184Y452196D01*
X345252Y452106D01*
X345323Y452018D01*
X345398Y451932D01*
X345475Y451849D01*
X345555Y451769D01*
X345638Y451692D01*
X345724Y451617D01*
X345812Y451546D01*
X345902Y451478D01*
X345995Y451413D01*
X346090Y451351D01*
X346187Y451293D01*
X346286Y451238D01*
X346387Y451187D01*
X346490Y451139D01*
X346594Y451094D01*
X346700Y451054D01*
X346807Y451017D01*
X346915Y450984D01*
X347025Y450954D01*
X347135Y450929D01*
X347246Y450907D01*
X347358Y450890D01*
X347471Y450876D01*
X347584Y450866D01*
X347697Y450860D01*
X347810Y450858D01*
X347923Y450860D01*
X348036Y450866D01*
X348149Y450876D01*
X348262Y450890D01*
X348374Y450907D01*
X348485Y450929D01*
X348595Y450954D01*
X348705Y450984D01*
X348813Y451017D01*
X348920Y451054D01*
X349026Y451094D01*
X349130Y451139D01*
X349233Y451187D01*
X349334Y451238D01*
X349433Y451293D01*
X349530Y451351D01*
X349625Y451413D01*
X349718Y451478D01*
X349808Y451546D01*
X349896Y451617D01*
X349982Y451692D01*
X350065Y451769D01*
X350145Y451849D01*
X350222Y451932D01*
X350297Y452018D01*
X350368Y452106D01*
X350436Y452196D01*
X350501Y452289D01*
X350563Y452384D01*
X350621Y452481D01*
X350676Y452580D01*
X350727Y452681D01*
X350775Y452784D01*
X350820Y452888D01*
X350860Y452994D01*
X350897Y453101D01*
X350930Y453209D01*
X350960Y453319D01*
X350985Y453429D01*
X351007Y453540D01*
X351024Y453652D01*
X351038Y453765D01*
X351048Y453878D01*
X351054Y453991D01*
X351056Y454104D01*
X351056Y457349D01*
X351054Y457492D01*
X351048Y457635D01*
X351038Y457778D01*
X351024Y457920D01*
X351007Y458062D01*
X350985Y458204D01*
X350960Y458345D01*
X350930Y458485D01*
X350897Y458624D01*
X350860Y458762D01*
X350819Y458899D01*
X350775Y459035D01*
X350726Y459170D01*
X350674Y459303D01*
X350619Y459435D01*
X350559Y459565D01*
X350496Y459694D01*
X350430Y459821D01*
X350360Y459946D01*
X350287Y460068D01*
X350210Y460189D01*
X350130Y460308D01*
X350047Y460424D01*
X349961Y460539D01*
X349872Y460650D01*
X349779Y460760D01*
X349684Y460866D01*
X349585Y460970D01*
X349484Y461071D01*
X349380Y461170D01*
X349274Y461265D01*
X349164Y461358D01*
X349053Y461447D01*
X348938Y461533D01*
X348822Y461616D01*
X348703Y461696D01*
X348582Y461773D01*
X348460Y461846D01*
X348335Y461916D01*
X348208Y461982D01*
X348079Y462045D01*
X347949Y462105D01*
X347817Y462160D01*
X347684Y462212D01*
X347549Y462261D01*
X347413Y462305D01*
X347276Y462346D01*
X347138Y462383D01*
X346999Y462416D01*
X346859Y462446D01*
X346718Y462471D01*
X346576Y462493D01*
X346434Y462510D01*
X346292Y462524D01*
X346149Y462534D01*
X346006Y462540D01*
X345863Y462542D01*
M02*
