G04 EAGLE Gerber RS-274X export*
G75*
%MOMM*%
%FSLAX34Y34*%
%LPD*%
%INSoldermask Top*%
%IPPOS*%
%AMOC8*
5,1,8,0,0,1.08239X$1,22.5*%
G01*
%ADD10R,1.868200X1.868200*%
%ADD11C,1.868200*%
%ADD12C,3.003200*%
%ADD13P,1.869504X8X292.500000*%
%ADD14R,2.003200X1.803200*%
%ADD15R,2.203200X1.703200*%
%ADD16R,1.283200X1.253200*%
%ADD17R,1.473200X0.762000*%
%ADD18R,0.762000X1.473200*%
%ADD19C,1.524000*%
%ADD20R,1.303200X1.203200*%
%ADD21R,1.203200X1.303200*%
%ADD22R,0.903200X1.753200*%
%ADD23R,3.703200X2.803200*%
%ADD24C,2.203200*%
%ADD25R,1.703200X2.203200*%
%ADD26C,1.727200*%
%ADD27R,1.403200X0.803200*%
%ADD28R,3.703200X3.703200*%
%ADD29R,1.453200X2.403200*%
%ADD30R,2.403200X1.453200*%
%ADD31R,1.203200X1.403200*%
%ADD32R,3.503200X1.403200*%
%ADD33R,1.603200X1.203200*%
%ADD34R,0.753200X1.253200*%
%ADD35R,4.403200X1.703200*%
%ADD36R,1.253200X1.283200*%
%ADD37C,0.959600*%
%ADD38C,1.209600*%


D10*
X264300Y581750D03*
D11*
X289700Y581750D03*
X264300Y556350D03*
X289700Y556350D03*
X264300Y530950D03*
X289700Y530950D03*
X264300Y505550D03*
X289700Y505550D03*
X264300Y480150D03*
X289700Y480150D03*
X264300Y454750D03*
X289700Y454750D03*
X264300Y429350D03*
X289700Y429350D03*
X264300Y403950D03*
X289700Y403950D03*
X264300Y378550D03*
X289700Y378550D03*
X264300Y353150D03*
X289700Y353150D03*
X264300Y327750D03*
X289700Y327750D03*
X264300Y302350D03*
X289700Y302350D03*
X264300Y276950D03*
X289700Y276950D03*
X264300Y251550D03*
X289700Y251550D03*
X264300Y226150D03*
X289700Y226150D03*
X264300Y200750D03*
X289700Y200750D03*
X264300Y175350D03*
X289700Y175350D03*
X264300Y149950D03*
X289700Y149950D03*
X264300Y124550D03*
X289700Y124550D03*
X264300Y99150D03*
X289700Y99150D03*
D10*
X238900Y99150D03*
D11*
X238900Y124550D03*
D10*
X213500Y124550D03*
D11*
X213500Y99150D03*
D12*
X280100Y630450D03*
X50100Y630450D03*
X50100Y50450D03*
X280100Y50450D03*
D13*
X537300Y554300D03*
X562700Y554300D03*
X537300Y528900D03*
X562700Y528900D03*
X537300Y503500D03*
X562700Y503500D03*
X537300Y478100D03*
X562700Y478100D03*
X537300Y452700D03*
X562700Y452700D03*
X537300Y427300D03*
X562700Y427300D03*
X537300Y401900D03*
X562700Y401900D03*
X537300Y376500D03*
X562700Y376500D03*
X537300Y351100D03*
X562700Y351100D03*
X537300Y325700D03*
X562700Y325700D03*
X737300Y554300D03*
X762700Y554300D03*
X737300Y528900D03*
X762700Y528900D03*
X737300Y503500D03*
X762700Y503500D03*
X737300Y478100D03*
X762700Y478100D03*
X737300Y452700D03*
X762700Y452700D03*
X737300Y427300D03*
X762700Y427300D03*
X737300Y401900D03*
X762700Y401900D03*
X737300Y376500D03*
X762700Y376500D03*
X737300Y351100D03*
X762700Y351100D03*
X737300Y325700D03*
X762700Y325700D03*
X937300Y554300D03*
X962700Y554300D03*
X937300Y528900D03*
X962700Y528900D03*
X937300Y503500D03*
X962700Y503500D03*
X937300Y478100D03*
X962700Y478100D03*
X937300Y452700D03*
X962700Y452700D03*
X937300Y427300D03*
X962700Y427300D03*
X937300Y401900D03*
X962700Y401900D03*
X937300Y376500D03*
X962700Y376500D03*
X937300Y351100D03*
X962700Y351100D03*
X937300Y325700D03*
X962700Y325700D03*
X1137300Y554300D03*
X1162700Y554300D03*
X1137300Y528900D03*
X1162700Y528900D03*
X1137300Y503500D03*
X1162700Y503500D03*
X1137300Y478100D03*
X1162700Y478100D03*
X1137300Y452700D03*
X1162700Y452700D03*
X1137300Y427300D03*
X1162700Y427300D03*
X1137300Y401900D03*
X1162700Y401900D03*
X1137300Y376500D03*
X1162700Y376500D03*
X1137300Y351100D03*
X1162700Y351100D03*
X1137300Y325700D03*
X1162700Y325700D03*
X1337300Y554300D03*
X1362700Y554300D03*
X1337300Y528900D03*
X1362700Y528900D03*
X1337300Y503500D03*
X1362700Y503500D03*
X1337300Y478100D03*
X1362700Y478100D03*
X1337300Y452700D03*
X1362700Y452700D03*
X1337300Y427300D03*
X1362700Y427300D03*
X1337300Y401900D03*
X1362700Y401900D03*
X1337300Y376500D03*
X1362700Y376500D03*
X1337300Y351100D03*
X1362700Y351100D03*
X1337300Y325700D03*
X1362700Y325700D03*
D14*
X540000Y596000D03*
X540000Y624000D03*
D15*
X740000Y595000D03*
X740000Y625000D03*
X940000Y595000D03*
X940000Y625000D03*
X1140000Y595000D03*
X1140000Y625000D03*
X1340000Y595000D03*
X1340000Y625000D03*
D16*
X560000Y597250D03*
X560000Y614750D03*
X760000Y597250D03*
X760000Y614750D03*
X960000Y597250D03*
X960000Y614750D03*
X1160000Y597250D03*
X1160000Y614750D03*
X1360000Y597250D03*
X1360000Y614750D03*
D17*
X107074Y388000D03*
X107074Y380000D03*
X107074Y372000D03*
X107074Y364000D03*
X107074Y356000D03*
X107074Y348000D03*
X107074Y340000D03*
X107074Y332000D03*
D18*
X122000Y317074D03*
X130000Y317074D03*
X138000Y317074D03*
X146000Y317074D03*
X154000Y317074D03*
X162000Y317074D03*
X170000Y317074D03*
X178000Y317074D03*
D17*
X192926Y332000D03*
X192926Y340000D03*
X192926Y348000D03*
X192926Y356000D03*
X192926Y364000D03*
X192926Y372000D03*
X192926Y380000D03*
X192926Y388000D03*
D18*
X178000Y402926D03*
X170000Y402926D03*
X162000Y402926D03*
X154000Y402926D03*
X146000Y402926D03*
X138000Y402926D03*
X130000Y402926D03*
X122000Y402926D03*
D16*
X212000Y368750D03*
X212000Y351250D03*
X72000Y374750D03*
X72000Y357250D03*
D19*
X100700Y312000D03*
X75300Y312000D03*
D20*
X212000Y492500D03*
X212000Y475500D03*
X188000Y492500D03*
X188000Y475500D03*
X164000Y492500D03*
X164000Y475500D03*
X212000Y460500D03*
X212000Y443500D03*
X188000Y460500D03*
X188000Y443500D03*
X164000Y460500D03*
X164000Y443500D03*
D21*
X83500Y404000D03*
X100500Y404000D03*
D22*
X391050Y779250D03*
X378350Y779250D03*
X365650Y779250D03*
X352950Y779250D03*
X352950Y724750D03*
X365650Y724750D03*
X378350Y724750D03*
X391050Y724750D03*
D23*
X372000Y752000D03*
D24*
X139000Y762000D02*
X139000Y782000D01*
X78000Y782000D02*
X78000Y762000D01*
X98000Y724000D02*
X118000Y724000D01*
D16*
X168000Y771250D03*
X168000Y788750D03*
D21*
X363500Y800000D03*
X380500Y800000D03*
D15*
X188000Y791000D03*
X188000Y761000D03*
D25*
X335000Y728000D03*
X305000Y728000D03*
D20*
X420000Y791500D03*
X420000Y808500D03*
X420000Y759500D03*
X420000Y776500D03*
D26*
X416380Y724700D02*
X431620Y724700D01*
X431620Y699300D02*
X416380Y699300D01*
X336700Y703620D02*
X336700Y688380D01*
X311300Y688380D02*
X311300Y703620D01*
D20*
X140000Y492500D03*
X140000Y475500D03*
X140000Y460500D03*
X140000Y443500D03*
X116000Y492500D03*
X116000Y475500D03*
X116000Y460500D03*
X116000Y443500D03*
D27*
X591500Y757500D03*
X591500Y748000D03*
X591500Y738500D03*
X616500Y738500D03*
X616500Y757500D03*
D15*
X624000Y715000D03*
X624000Y685000D03*
D28*
X475000Y748000D03*
X560000Y748000D03*
D29*
X585000Y784000D03*
X607000Y784000D03*
D20*
X584000Y824500D03*
X584000Y807500D03*
D16*
X608000Y824750D03*
X608000Y807250D03*
D28*
X647000Y748000D03*
X732000Y748000D03*
D29*
X449000Y816000D03*
X471000Y816000D03*
D30*
X496000Y661000D03*
X496000Y683000D03*
D25*
X521000Y676000D03*
X551000Y676000D03*
D31*
X419000Y670000D03*
X396000Y670000D03*
X373000Y670000D03*
D32*
X396000Y602000D03*
D33*
X449000Y676000D03*
X471000Y685500D03*
X471000Y666500D03*
D21*
X379500Y688000D03*
X396500Y688000D03*
X468500Y652000D03*
X451500Y652000D03*
D26*
X284132Y697394D02*
X268892Y697394D01*
X268892Y742606D02*
X284132Y742606D01*
X219108Y697394D02*
X203868Y697394D01*
X203868Y742606D02*
X219108Y742606D01*
D15*
X652000Y683000D03*
X652000Y653000D03*
D34*
X237500Y809000D03*
X228000Y809000D03*
X218500Y809000D03*
X218500Y783000D03*
X228000Y783000D03*
X237500Y783000D03*
D35*
X284000Y778000D03*
X284000Y814000D03*
D15*
X332000Y803000D03*
X332000Y773000D03*
D36*
X223250Y768000D03*
X240750Y768000D03*
D20*
X92000Y492500D03*
X92000Y475500D03*
X92000Y460500D03*
X92000Y443500D03*
D21*
X240500Y328000D03*
X223500Y328000D03*
D20*
X152000Y280500D03*
X152000Y263500D03*
X240000Y347500D03*
X240000Y364500D03*
D21*
X199500Y296000D03*
X216500Y296000D03*
X231500Y304000D03*
X248500Y304000D03*
D29*
X141000Y812000D03*
X163000Y812000D03*
D37*
X248000Y416000D03*
X240000Y504000D03*
D38*
X684000Y652000D03*
X696000Y624000D03*
D37*
X376000Y572000D03*
X212000Y432000D03*
X188000Y432000D03*
X164000Y432000D03*
X139646Y432000D03*
X116000Y432000D03*
X456000Y688000D03*
X92000Y432000D03*
X241904Y284000D03*
X324000Y276000D03*
X168000Y712000D03*
X164000Y252000D03*
X176000Y388000D03*
X140000Y708000D03*
X268985Y796985D03*
X92000Y392000D03*
X376000Y708000D03*
X89418Y380354D03*
X364000Y708000D03*
X184000Y704000D03*
X399162Y797830D03*
X112330Y404000D03*
X392000Y708000D03*
X80000Y596000D03*
X172354Y600000D03*
X340000Y576000D03*
X448000Y632000D03*
X328000Y672000D03*
X252000Y340000D03*
X168000Y332000D03*
M02*
