G04 EAGLE Gerber RS-274X export*
G75*
%MOMM*%
%FSLAX34Y34*%
%LPD*%
%INSolderpaste Top*%
%IPPOS*%
%AMOC8*
5,1,8,0,0,1.08239X$1,22.5*%
G01*
%ADD10R,1.800000X1.600000*%
%ADD11R,2.000000X1.500000*%
%ADD12R,1.080000X1.050000*%
%ADD13R,1.270000X0.558800*%
%ADD14R,0.558800X1.270000*%
%ADD15R,1.100000X1.000000*%
%ADD16R,1.000000X1.100000*%
%ADD17R,0.700000X1.550000*%
%ADD18R,3.500000X2.600000*%
%ADD19R,1.500000X2.000000*%
%ADD20R,1.200000X0.600000*%
%ADD21R,3.500000X3.500000*%
%ADD22R,1.250000X2.200000*%
%ADD23R,2.200000X1.250000*%
%ADD24R,1.000000X1.200000*%
%ADD25R,3.300000X1.200000*%
%ADD26R,1.400000X1.000000*%
%ADD27R,0.550000X1.050000*%
%ADD28R,4.200000X1.500000*%
%ADD29R,1.050000X1.080000*%


D10*
X540000Y596000D03*
X540000Y624000D03*
D11*
X740000Y595000D03*
X740000Y625000D03*
X940000Y595000D03*
X940000Y625000D03*
X1140000Y595000D03*
X1140000Y625000D03*
X1340000Y595000D03*
X1340000Y625000D03*
D12*
X560000Y597250D03*
X560000Y614750D03*
X760000Y597250D03*
X760000Y614750D03*
X960000Y597250D03*
X960000Y614750D03*
X1160000Y597250D03*
X1160000Y614750D03*
X1360000Y597250D03*
X1360000Y614750D03*
D13*
X107074Y388000D03*
X107074Y380000D03*
X107074Y372000D03*
X107074Y364000D03*
X107074Y356000D03*
X107074Y348000D03*
X107074Y340000D03*
X107074Y332000D03*
D14*
X122000Y317074D03*
X130000Y317074D03*
X138000Y317074D03*
X146000Y317074D03*
X154000Y317074D03*
X162000Y317074D03*
X170000Y317074D03*
X178000Y317074D03*
D13*
X192926Y332000D03*
X192926Y340000D03*
X192926Y348000D03*
X192926Y356000D03*
X192926Y364000D03*
X192926Y372000D03*
X192926Y380000D03*
X192926Y388000D03*
D14*
X178000Y402926D03*
X170000Y402926D03*
X162000Y402926D03*
X154000Y402926D03*
X146000Y402926D03*
X138000Y402926D03*
X130000Y402926D03*
X122000Y402926D03*
D12*
X212000Y368750D03*
X212000Y351250D03*
X72000Y374750D03*
X72000Y357250D03*
D15*
X212000Y492500D03*
X212000Y475500D03*
X188000Y492500D03*
X188000Y475500D03*
X164000Y492500D03*
X164000Y475500D03*
X212000Y460500D03*
X212000Y443500D03*
X188000Y460500D03*
X188000Y443500D03*
X164000Y460500D03*
X164000Y443500D03*
D16*
X83500Y404000D03*
X100500Y404000D03*
D17*
X391050Y779250D03*
X378350Y779250D03*
X365650Y779250D03*
X352950Y779250D03*
X352950Y724750D03*
X365650Y724750D03*
X378350Y724750D03*
X391050Y724750D03*
D18*
X372000Y752000D03*
D12*
X168000Y771250D03*
X168000Y788750D03*
D16*
X363500Y800000D03*
X380500Y800000D03*
D11*
X188000Y791000D03*
X188000Y761000D03*
D19*
X335000Y728000D03*
X305000Y728000D03*
D15*
X420000Y791500D03*
X420000Y808500D03*
X420000Y759500D03*
X420000Y776500D03*
X140000Y492500D03*
X140000Y475500D03*
X140000Y460500D03*
X140000Y443500D03*
X116000Y492500D03*
X116000Y475500D03*
X116000Y460500D03*
X116000Y443500D03*
D20*
X591500Y757500D03*
X591500Y748000D03*
X591500Y738500D03*
X616500Y738500D03*
X616500Y757500D03*
D11*
X624000Y715000D03*
X624000Y685000D03*
D21*
X475000Y748000D03*
X560000Y748000D03*
D22*
X585000Y784000D03*
X607000Y784000D03*
D15*
X584000Y824500D03*
X584000Y807500D03*
D12*
X608000Y824750D03*
X608000Y807250D03*
D21*
X647000Y748000D03*
X732000Y748000D03*
D22*
X449000Y816000D03*
X471000Y816000D03*
D23*
X496000Y661000D03*
X496000Y683000D03*
D19*
X521000Y676000D03*
X551000Y676000D03*
D24*
X419000Y670000D03*
X396000Y670000D03*
X373000Y670000D03*
D25*
X396000Y602000D03*
D26*
X449000Y676000D03*
X471000Y685500D03*
X471000Y666500D03*
D16*
X379500Y688000D03*
X396500Y688000D03*
X468500Y652000D03*
X451500Y652000D03*
D11*
X652000Y683000D03*
X652000Y653000D03*
D27*
X237500Y809000D03*
X228000Y809000D03*
X218500Y809000D03*
X218500Y783000D03*
X228000Y783000D03*
X237500Y783000D03*
D28*
X284000Y778000D03*
X284000Y814000D03*
D11*
X332000Y803000D03*
X332000Y773000D03*
D29*
X223250Y768000D03*
X240750Y768000D03*
D15*
X92000Y492500D03*
X92000Y475500D03*
X92000Y460500D03*
X92000Y443500D03*
D16*
X240500Y328000D03*
X223500Y328000D03*
D15*
X152000Y280500D03*
X152000Y263500D03*
X240000Y347500D03*
X240000Y364500D03*
D16*
X199500Y296000D03*
X216500Y296000D03*
X231500Y304000D03*
X248500Y304000D03*
D22*
X141000Y812000D03*
X163000Y812000D03*
M02*
