G04 EAGLE Gerber X2 export*
%TF.Part,Single*%
%TF.FileFunction,Paste,Top*%
%TF.FilePolarity,Positive*%
%TF.GenerationSoftware,Autodesk,EAGLE,9.3.1*%
%TF.CreationDate,2020-03-19T14:02:17Z*%
G75*
%MOMM*%
%FSLAX36Y36*%
%LPD*%
%INSolderpaste Top*%
%AMOC8*
5,1,8,0,0,1.08239X$1,22.5*%
G01*
%ADD10R,1.050000X1.080000*%
%ADD11R,1.080000X1.050000*%
%ADD12R,1.500000X2.000000*%
%ADD13R,1.538200X0.568000*%
%ADD14R,1.600000X0.800000*%
%ADD15R,2.200000X0.600000*%
%ADD16R,0.650000X1.650000*%
%ADD17R,1.100000X1.000000*%
%ADD18R,1.000000X1.100000*%
%ADD19R,0.608600X0.469600*%
%ADD20R,1.462000X0.239400*%
%ADD21R,0.239400X1.462000*%
%ADD22R,0.468000X0.972300*%
%ADD23R,0.568000X1.454900*%
%ADD24C,0.450000*%
%ADD25R,1.327900X0.441000*%
%ADD26R,1.512800X0.542600*%
%ADD27R,0.972300X0.468000*%
%ADD28R,1.800000X1.200000*%
%ADD29R,1.803000X1.600000*%

G36*
X14365169Y70222372D02*
X14365169Y70222372D01*
X14365344Y70222303D01*
X14369722Y70224294D01*
X14374100Y70226144D01*
X14374169Y70226316D01*
X14374338Y70226394D01*
X14377700Y70235000D01*
X14377700Y72125000D01*
X14377628Y72125169D01*
X14377697Y72125344D01*
X14375706Y72129722D01*
X14373856Y72134100D01*
X14373684Y72134169D01*
X14373606Y72134338D01*
X14365000Y72137700D01*
X12795000Y72137700D01*
X12794831Y72137628D01*
X12794656Y72137697D01*
X12790278Y72135706D01*
X12785900Y72133856D01*
X12785831Y72133684D01*
X12785663Y72133606D01*
X12782300Y72125000D01*
X12782300Y70235000D01*
X12782372Y70234831D01*
X12782303Y70234656D01*
X12784294Y70230278D01*
X12786144Y70225900D01*
X12786316Y70225831D01*
X12786394Y70225663D01*
X12795000Y70222300D01*
X14365000Y70222300D01*
X14365169Y70222372D01*
G37*
D10*
X35115000Y44460000D03*
X36865000Y44460000D03*
D11*
X27940000Y38721000D03*
X27940000Y36971000D03*
X29960000Y38719000D03*
X29960000Y36969000D03*
X31750000Y38721000D03*
X31750000Y36971000D03*
D10*
X21455000Y49460000D03*
X23205000Y49460000D03*
D12*
X18380000Y64400000D03*
X15380000Y64400000D03*
D10*
X53625000Y58540000D03*
X51875000Y58540000D03*
D11*
X27540000Y14033000D03*
X27540000Y15783000D03*
X29333000Y23539000D03*
X29333000Y21789000D03*
D12*
X5745000Y37107000D03*
X2745000Y37107000D03*
D10*
X17944000Y43580000D03*
X19694000Y43580000D03*
X17955000Y41540000D03*
X19705000Y41540000D03*
X15555000Y31460000D03*
X17305000Y31460000D03*
X8525000Y5540000D03*
X6775000Y5540000D03*
D11*
X12463000Y19785000D03*
X12463000Y18035000D03*
X14361000Y19788000D03*
X14361000Y18038000D03*
D10*
X35125000Y46627000D03*
X36875000Y46627000D03*
D13*
X12260300Y81885000D03*
X12260300Y80615000D03*
X12260300Y79345000D03*
X12260300Y78075000D03*
X17619700Y78075000D03*
X17619700Y79345000D03*
X17619700Y80615000D03*
X17619700Y81885000D03*
D14*
X7351000Y86094000D03*
X10751000Y86094000D03*
D15*
X26790000Y53095000D03*
X21590000Y53095000D03*
X26790000Y51825000D03*
X26790000Y54365000D03*
X26790000Y55635000D03*
X21590000Y51825000D03*
X21590000Y54365000D03*
X21590000Y55635000D03*
D16*
X24639000Y23217000D03*
X23369000Y23217000D03*
X22099000Y23217000D03*
X22099000Y13917000D03*
X23369000Y13917000D03*
X24639000Y13917000D03*
D17*
X48450000Y41890000D03*
X48450000Y40190000D03*
X49403000Y45580000D03*
X49403000Y43880000D03*
X52597000Y43886000D03*
X52597000Y45586000D03*
D18*
X46046000Y31980000D03*
X47746000Y31980000D03*
X45480000Y37530000D03*
X47180000Y37530000D03*
X47100000Y26470000D03*
X45400000Y26470000D03*
X38320000Y12530000D03*
X40020000Y12530000D03*
D17*
X17470000Y22740000D03*
X17470000Y24440000D03*
D19*
X43527200Y20018200D03*
X43527200Y19205400D03*
X43527200Y18392600D03*
X43527200Y17579800D03*
X45418800Y17579800D03*
X45418800Y18392600D03*
X45418800Y19205400D03*
X45418800Y20018200D03*
X29855800Y28600800D03*
X29855800Y29413600D03*
X29855800Y30226400D03*
X29855800Y31039200D03*
X27964200Y31039200D03*
X27964200Y30226400D03*
X27964200Y29413600D03*
X27964200Y28600800D03*
D18*
X32235163Y82030000D03*
X33935163Y82030000D03*
D20*
X34113600Y41340000D03*
X34113600Y40840000D03*
X34113600Y40340000D03*
X34113600Y39840000D03*
X34113600Y39340000D03*
X34113600Y38840000D03*
X34113600Y38340000D03*
X34113600Y37840000D03*
X34113600Y37340000D03*
X34113600Y36840000D03*
X34113600Y36340000D03*
X34113600Y35840000D03*
D21*
X35580000Y34373600D03*
X36080000Y34373600D03*
X36580000Y34373600D03*
X37080000Y34373600D03*
X37580000Y34373600D03*
X38080000Y34373600D03*
X38580000Y34373600D03*
X39080000Y34373600D03*
X39580000Y34373600D03*
X40080000Y34373600D03*
X40580000Y34373600D03*
X41080000Y34373600D03*
D20*
X42546400Y35840000D03*
X42546400Y36340000D03*
X42546400Y36840000D03*
X42546400Y37340000D03*
X42546400Y37840000D03*
X42546400Y38340000D03*
X42546400Y38840000D03*
X42546400Y39340000D03*
X42546400Y39840000D03*
X42546400Y40340000D03*
X42546400Y40840000D03*
X42546400Y41340000D03*
D21*
X41080000Y42806400D03*
X40580000Y42806400D03*
X40080000Y42806400D03*
X39580000Y42806400D03*
X39080000Y42806400D03*
X38580000Y42806400D03*
X38080000Y42806400D03*
X37580000Y42806400D03*
X37080000Y42806400D03*
X36580000Y42806400D03*
X36080000Y42806400D03*
X35580000Y42806400D03*
D22*
X5440000Y31427550D03*
X6390000Y31427550D03*
X7340000Y31427550D03*
X7340000Y34152450D03*
X5440000Y34152450D03*
D23*
X14115000Y34148653D03*
X15385000Y34148653D03*
X16655000Y34148653D03*
X17925000Y34148653D03*
X17925000Y39591347D03*
X16655000Y39591347D03*
X15385000Y39591347D03*
X14115000Y39591347D03*
D24*
X14315000Y61245000D02*
X13415000Y61245000D01*
X13415000Y60594997D02*
X14315000Y60594997D01*
X14315000Y59945000D02*
X13415000Y59945000D01*
X13415000Y59294997D02*
X14315000Y59294997D01*
X17865003Y59294997D02*
X18765003Y59294997D01*
X18765003Y59945000D02*
X17865003Y59945000D01*
X17865003Y60594997D02*
X18765003Y60594997D01*
X18765003Y61245000D02*
X17865003Y61245000D01*
D25*
X11366653Y72155000D03*
X11366653Y71505000D03*
X11366653Y70855000D03*
X11366653Y70205000D03*
X15793347Y70205000D03*
X15793347Y70855000D03*
X15793347Y71505000D03*
X15793347Y72155000D03*
D26*
X47135100Y54455000D03*
X47135100Y53185000D03*
X47135100Y51915000D03*
X47135100Y50645000D03*
X54424900Y50645000D03*
X54424900Y51915000D03*
X54424900Y53185000D03*
X54424900Y54455000D03*
D23*
X31705000Y16398653D03*
X32975000Y16398653D03*
X34245000Y16398653D03*
X35515000Y16398653D03*
X36785000Y16398653D03*
X38055000Y16398653D03*
X39325000Y16398653D03*
X40595000Y16398653D03*
X40595000Y21841347D03*
X39325000Y21841347D03*
X38055000Y21841347D03*
X36785000Y21841347D03*
X35515000Y21841347D03*
X34245000Y21841347D03*
X32975000Y21841347D03*
X31705000Y21841347D03*
D10*
X26565000Y81991000D03*
X28315000Y81991000D03*
D27*
X25637550Y79450000D03*
X25637550Y78500000D03*
X25637550Y77550000D03*
X28362450Y77550000D03*
X28362450Y79450000D03*
D17*
X25120000Y73040000D03*
X25120000Y71340000D03*
D11*
X18000000Y71375000D03*
X18000000Y69625000D03*
X20000000Y71375000D03*
X20000000Y69625000D03*
X22000000Y71375000D03*
X22000000Y69625000D03*
D10*
X8875000Y78000000D03*
X7125000Y78000000D03*
D28*
X6500000Y55650000D03*
X6500000Y52350000D03*
X3000000Y84150000D03*
X3000000Y80850000D03*
X3000000Y72850000D03*
X3000000Y76150000D03*
D10*
X40125000Y28000000D03*
X41875000Y28000000D03*
X43125000Y44000000D03*
X44875000Y44000000D03*
D17*
X18027550Y50999206D03*
X18027550Y49299206D03*
X18000000Y55850000D03*
X18000000Y54150000D03*
X23500000Y61850000D03*
X23500000Y60150000D03*
X26500000Y60150000D03*
X26500000Y61850000D03*
D18*
X7150000Y82000000D03*
X8850000Y82000000D03*
D17*
X15443444Y86880328D03*
X15443444Y85180328D03*
X20000000Y86850000D03*
X20000000Y85150000D03*
D10*
X5375000Y29500000D03*
X3625000Y29500000D03*
D29*
X9500000Y62422000D03*
X9500000Y59578000D03*
X9500000Y55422000D03*
X9500000Y52578000D03*
M02*
