G04 EAGLE Gerber RS-274X export*
G75*
%MOMM*%
%FSLAX34Y34*%
%LPD*%
%INBottom Copper*%
%IPPOS*%
%AMOC8*
5,1,8,0,0,1.08239X$1,22.5*%
G01*
%ADD10P,1.649562X8X202.500000*%
%ADD11C,1.524000*%
%ADD12P,1.429621X8X202.500000*%
%ADD13C,1.714500*%
%ADD14P,2.749271X8X22.500000*%
%ADD15P,2.336880X8X22.500000*%
%ADD16C,0.756400*%
%ADD17C,0.508000*%
%ADD18C,1.200000*%
%ADD19C,0.806400*%
%ADD20C,0.609600*%
%ADD21C,0.254000*%
%ADD22C,0.152400*%
%ADD23C,0.200000*%
%ADD24C,0.812800*%
%ADD25C,1.016000*%
%ADD26C,0.304800*%
%ADD27C,0.406400*%

G36*
X74603Y149251D02*
X74603Y149251D01*
X74678Y149254D01*
X74723Y149271D01*
X74771Y149279D01*
X74838Y149314D01*
X74909Y149341D01*
X74946Y149371D01*
X74988Y149394D01*
X75040Y149448D01*
X75099Y149496D01*
X75125Y149537D01*
X75158Y149572D01*
X75190Y149641D01*
X75230Y149705D01*
X75241Y149751D01*
X75261Y149795D01*
X75270Y149870D01*
X75287Y149944D01*
X75283Y149992D01*
X75288Y150039D01*
X75272Y150113D01*
X75266Y150189D01*
X75243Y150249D01*
X75236Y150280D01*
X75223Y150302D01*
X75206Y150346D01*
X74601Y151534D01*
X74060Y153198D01*
X73889Y154277D01*
X84138Y154277D01*
X84158Y154280D01*
X84177Y154278D01*
X84279Y154300D01*
X84381Y154317D01*
X84398Y154326D01*
X84418Y154330D01*
X84507Y154383D01*
X84598Y154432D01*
X84612Y154446D01*
X84629Y154456D01*
X84696Y154535D01*
X84767Y154610D01*
X84776Y154628D01*
X84789Y154643D01*
X84827Y154739D01*
X84871Y154833D01*
X84873Y154853D01*
X84881Y154871D01*
X84899Y155038D01*
X84899Y155801D01*
X84901Y155801D01*
X84901Y155038D01*
X84904Y155018D01*
X84902Y154999D01*
X84924Y154897D01*
X84941Y154795D01*
X84950Y154778D01*
X84954Y154758D01*
X85007Y154669D01*
X85056Y154578D01*
X85070Y154564D01*
X85080Y154547D01*
X85159Y154480D01*
X85234Y154409D01*
X85252Y154400D01*
X85267Y154387D01*
X85363Y154348D01*
X85457Y154305D01*
X85477Y154303D01*
X85495Y154295D01*
X85662Y154277D01*
X95911Y154277D01*
X95740Y153198D01*
X95199Y151534D01*
X94594Y150346D01*
X94571Y150274D01*
X94539Y150205D01*
X94533Y150157D01*
X94519Y150111D01*
X94520Y150036D01*
X94512Y149961D01*
X94522Y149914D01*
X94523Y149865D01*
X94548Y149794D01*
X94564Y149720D01*
X94589Y149679D01*
X94605Y149633D01*
X94651Y149574D01*
X94690Y149509D01*
X94727Y149478D01*
X94756Y149440D01*
X94819Y149398D01*
X94877Y149349D01*
X94922Y149331D01*
X94962Y149305D01*
X95035Y149286D01*
X95105Y149257D01*
X95170Y149250D01*
X95200Y149242D01*
X95225Y149244D01*
X95272Y149239D01*
X160000Y149239D01*
X160090Y149254D01*
X160181Y149261D01*
X160211Y149273D01*
X160243Y149279D01*
X160323Y149321D01*
X160407Y149357D01*
X160439Y149383D01*
X160460Y149394D01*
X160482Y149417D01*
X160538Y149462D01*
X193195Y182119D01*
X273050Y182119D01*
X273140Y182134D01*
X273231Y182141D01*
X273261Y182153D01*
X273293Y182159D01*
X273373Y182201D01*
X273457Y182237D01*
X273489Y182263D01*
X273510Y182274D01*
X273532Y182297D01*
X273588Y182342D01*
X297495Y206249D01*
X420370Y206249D01*
X420460Y206264D01*
X420551Y206271D01*
X420581Y206283D01*
X420613Y206289D01*
X420693Y206331D01*
X420777Y206367D01*
X420809Y206393D01*
X420830Y206404D01*
X420852Y206427D01*
X420908Y206472D01*
X428305Y213869D01*
X609078Y213869D01*
X609098Y213872D01*
X609117Y213870D01*
X609219Y213892D01*
X609321Y213909D01*
X609338Y213918D01*
X609358Y213922D01*
X609447Y213975D01*
X609538Y214024D01*
X609552Y214038D01*
X609569Y214048D01*
X609636Y214127D01*
X609708Y214202D01*
X609716Y214220D01*
X609729Y214235D01*
X609768Y214331D01*
X609811Y214425D01*
X609813Y214445D01*
X609821Y214463D01*
X609839Y214630D01*
X609839Y904078D01*
X609836Y904098D01*
X609838Y904117D01*
X609816Y904219D01*
X609800Y904321D01*
X609790Y904338D01*
X609786Y904358D01*
X609733Y904447D01*
X609684Y904538D01*
X609670Y904552D01*
X609660Y904569D01*
X609581Y904636D01*
X609506Y904708D01*
X609488Y904716D01*
X609473Y904729D01*
X609377Y904768D01*
X609283Y904811D01*
X609263Y904813D01*
X609245Y904821D01*
X609078Y904839D01*
X922Y904839D01*
X902Y904836D01*
X883Y904838D01*
X781Y904816D01*
X679Y904800D01*
X662Y904790D01*
X642Y904786D01*
X553Y904733D01*
X462Y904684D01*
X448Y904670D01*
X431Y904660D01*
X364Y904581D01*
X292Y904506D01*
X284Y904488D01*
X271Y904473D01*
X232Y904377D01*
X189Y904283D01*
X187Y904263D01*
X179Y904245D01*
X161Y904078D01*
X161Y150000D01*
X164Y149980D01*
X162Y149961D01*
X184Y149859D01*
X200Y149757D01*
X210Y149740D01*
X214Y149720D01*
X267Y149631D01*
X316Y149540D01*
X330Y149526D01*
X340Y149509D01*
X419Y149442D01*
X494Y149371D01*
X512Y149362D01*
X527Y149349D01*
X623Y149310D01*
X717Y149267D01*
X737Y149265D01*
X755Y149257D01*
X922Y149239D01*
X74528Y149239D01*
X74603Y149251D01*
G37*
G36*
X609098Y164D02*
X609098Y164D01*
X609117Y162D01*
X609219Y184D01*
X609321Y200D01*
X609338Y210D01*
X609358Y214D01*
X609447Y267D01*
X609538Y316D01*
X609552Y330D01*
X609569Y340D01*
X609636Y419D01*
X609708Y494D01*
X609716Y512D01*
X609729Y527D01*
X609768Y623D01*
X609811Y717D01*
X609813Y737D01*
X609821Y755D01*
X609839Y922D01*
X609839Y208280D01*
X609836Y208300D01*
X609838Y208319D01*
X609816Y208421D01*
X609800Y208523D01*
X609790Y208540D01*
X609786Y208560D01*
X609733Y208649D01*
X609684Y208740D01*
X609670Y208754D01*
X609660Y208771D01*
X609581Y208838D01*
X609506Y208910D01*
X609488Y208918D01*
X609473Y208931D01*
X609377Y208970D01*
X609283Y209013D01*
X609263Y209015D01*
X609245Y209023D01*
X609078Y209041D01*
X433070Y209041D01*
X432980Y209027D01*
X432889Y209019D01*
X432859Y209007D01*
X432827Y209002D01*
X432747Y208959D01*
X432663Y208923D01*
X432631Y208897D01*
X432610Y208886D01*
X432588Y208863D01*
X432532Y208818D01*
X425135Y201421D01*
X312420Y201421D01*
X312330Y201407D01*
X312239Y201399D01*
X312209Y201387D01*
X312177Y201382D01*
X312097Y201339D01*
X312013Y201303D01*
X311981Y201277D01*
X311960Y201266D01*
X311938Y201243D01*
X311882Y201198D01*
X280355Y169671D01*
X199390Y169671D01*
X199300Y169657D01*
X199209Y169649D01*
X199179Y169637D01*
X199147Y169632D01*
X199067Y169589D01*
X198983Y169553D01*
X198951Y169527D01*
X198930Y169516D01*
X198908Y169493D01*
X198852Y169448D01*
X164785Y135381D01*
X96014Y135381D01*
X95999Y135379D01*
X95983Y135381D01*
X95878Y135359D01*
X95772Y135342D01*
X95758Y135334D01*
X95742Y135331D01*
X95649Y135277D01*
X95554Y135226D01*
X95543Y135215D01*
X95529Y135207D01*
X95459Y135126D01*
X95385Y135048D01*
X95378Y135034D01*
X95368Y135022D01*
X95327Y134922D01*
X95281Y134825D01*
X95280Y134809D01*
X95273Y134794D01*
X95266Y134687D01*
X95254Y134581D01*
X95258Y134565D01*
X95256Y134549D01*
X95290Y134385D01*
X95740Y133002D01*
X95911Y131923D01*
X85662Y131923D01*
X85642Y131920D01*
X85623Y131922D01*
X85521Y131900D01*
X85419Y131883D01*
X85402Y131874D01*
X85382Y131870D01*
X85293Y131817D01*
X85202Y131768D01*
X85188Y131754D01*
X85171Y131744D01*
X85104Y131665D01*
X85033Y131590D01*
X85024Y131572D01*
X85011Y131557D01*
X84973Y131461D01*
X84929Y131367D01*
X84927Y131347D01*
X84919Y131329D01*
X84901Y131162D01*
X84901Y130399D01*
X84899Y130399D01*
X84899Y131162D01*
X84896Y131182D01*
X84898Y131201D01*
X84876Y131303D01*
X84859Y131405D01*
X84850Y131422D01*
X84846Y131442D01*
X84793Y131531D01*
X84744Y131622D01*
X84730Y131636D01*
X84720Y131653D01*
X84641Y131720D01*
X84566Y131791D01*
X84548Y131800D01*
X84533Y131813D01*
X84437Y131852D01*
X84343Y131895D01*
X84323Y131897D01*
X84305Y131905D01*
X84138Y131923D01*
X73889Y131923D01*
X74060Y133002D01*
X74510Y134385D01*
X74512Y134401D01*
X74519Y134415D01*
X74531Y134521D01*
X74547Y134628D01*
X74544Y134644D01*
X74546Y134659D01*
X74523Y134764D01*
X74505Y134870D01*
X74497Y134884D01*
X74494Y134900D01*
X74438Y134992D01*
X74387Y135086D01*
X74376Y135097D01*
X74367Y135111D01*
X74286Y135181D01*
X74207Y135254D01*
X74193Y135260D01*
X74180Y135271D01*
X74081Y135311D01*
X73983Y135355D01*
X73967Y135357D01*
X73952Y135363D01*
X73786Y135381D01*
X922Y135381D01*
X902Y135378D01*
X883Y135380D01*
X781Y135358D01*
X679Y135342D01*
X662Y135332D01*
X642Y135328D01*
X553Y135275D01*
X462Y135226D01*
X448Y135212D01*
X431Y135202D01*
X364Y135123D01*
X292Y135048D01*
X284Y135030D01*
X271Y135015D01*
X232Y134919D01*
X189Y134825D01*
X187Y134805D01*
X179Y134787D01*
X161Y134620D01*
X161Y922D01*
X164Y902D01*
X162Y883D01*
X184Y781D01*
X200Y679D01*
X210Y662D01*
X214Y642D01*
X267Y553D01*
X316Y462D01*
X330Y448D01*
X340Y431D01*
X419Y364D01*
X494Y292D01*
X512Y284D01*
X527Y271D01*
X623Y232D01*
X717Y189D01*
X737Y187D01*
X755Y179D01*
X922Y161D01*
X609078Y161D01*
X609098Y164D01*
G37*
%LPC*%
G36*
X103301Y236459D02*
X103301Y236459D01*
X100162Y237760D01*
X97760Y240162D01*
X96459Y243301D01*
X96459Y246699D01*
X97321Y248780D01*
X97336Y248844D01*
X97361Y248905D01*
X97370Y248988D01*
X97377Y249020D01*
X97376Y249039D01*
X97379Y249071D01*
X97379Y480929D01*
X97369Y480993D01*
X97368Y481059D01*
X97345Y481139D01*
X97340Y481171D01*
X97330Y481189D01*
X97321Y481220D01*
X96459Y483301D01*
X96459Y486699D01*
X97321Y488780D01*
X97336Y488844D01*
X97361Y488905D01*
X97370Y488988D01*
X97377Y489020D01*
X97376Y489039D01*
X97379Y489071D01*
X97379Y691516D01*
X98539Y694317D01*
X151732Y747510D01*
X151771Y747563D01*
X151817Y747610D01*
X151857Y747683D01*
X151876Y747709D01*
X151882Y747728D01*
X151897Y747757D01*
X152760Y749838D01*
X155162Y752240D01*
X157243Y753103D01*
X157299Y753137D01*
X157359Y753163D01*
X157424Y753215D01*
X157452Y753232D01*
X157465Y753247D01*
X157490Y753268D01*
X163432Y759210D01*
X165683Y761461D01*
X168484Y762621D01*
X325929Y762621D01*
X325993Y762631D01*
X326059Y762632D01*
X326139Y762655D01*
X326171Y762660D01*
X326189Y762670D01*
X326220Y762679D01*
X328301Y763541D01*
X331699Y763541D01*
X334838Y762240D01*
X337240Y759838D01*
X338541Y756699D01*
X338541Y753301D01*
X337240Y750162D01*
X334838Y747760D01*
X331699Y746459D01*
X328301Y746459D01*
X326220Y747321D01*
X326156Y747336D01*
X326095Y747361D01*
X326012Y747370D01*
X325980Y747377D01*
X325961Y747376D01*
X325929Y747379D01*
X173472Y747379D01*
X173382Y747365D01*
X173291Y747357D01*
X173261Y747345D01*
X173229Y747340D01*
X173148Y747297D01*
X173065Y747261D01*
X173032Y747235D01*
X173012Y747224D01*
X172990Y747201D01*
X172934Y747156D01*
X168268Y742490D01*
X168229Y742437D01*
X168183Y742390D01*
X168143Y742317D01*
X168124Y742291D01*
X168118Y742272D01*
X168103Y742243D01*
X167240Y740162D01*
X164838Y737760D01*
X162757Y736897D01*
X162701Y736863D01*
X162641Y736837D01*
X162576Y736785D01*
X162548Y736768D01*
X162535Y736753D01*
X162510Y736732D01*
X112844Y687066D01*
X112791Y686992D01*
X112731Y686923D01*
X112719Y686893D01*
X112700Y686867D01*
X112673Y686780D01*
X112639Y686695D01*
X112635Y686654D01*
X112628Y686632D01*
X112629Y686599D01*
X112621Y686528D01*
X112621Y489071D01*
X112631Y489007D01*
X112632Y488941D01*
X112655Y488861D01*
X112660Y488829D01*
X112670Y488811D01*
X112679Y488780D01*
X113541Y486699D01*
X113541Y483301D01*
X112679Y481220D01*
X112664Y481156D01*
X112639Y481095D01*
X112630Y481012D01*
X112623Y480980D01*
X112624Y480961D01*
X112621Y480929D01*
X112621Y249071D01*
X112631Y249007D01*
X112632Y248941D01*
X112655Y248861D01*
X112660Y248829D01*
X112670Y248811D01*
X112679Y248780D01*
X113541Y246699D01*
X113541Y243301D01*
X112240Y240162D01*
X109838Y237760D01*
X106699Y236459D01*
X103301Y236459D01*
G37*
%LPD*%
%LPC*%
G36*
X331433Y300767D02*
X331433Y300767D01*
X329017Y301768D01*
X327168Y303617D01*
X326167Y306033D01*
X326167Y307131D01*
X326153Y307221D01*
X326145Y307312D01*
X326133Y307341D01*
X326128Y307373D01*
X326085Y307454D01*
X326049Y307538D01*
X326023Y307570D01*
X326012Y307591D01*
X325989Y307613D01*
X325944Y307669D01*
X303409Y330204D01*
X303335Y330257D01*
X303265Y330317D01*
X303235Y330329D01*
X303209Y330348D01*
X303122Y330375D01*
X303037Y330409D01*
X302996Y330413D01*
X302974Y330420D01*
X302942Y330419D01*
X302871Y330427D01*
X193106Y330427D01*
X122967Y400566D01*
X122967Y651232D01*
X122953Y651322D01*
X122945Y651413D01*
X122933Y651443D01*
X122928Y651475D01*
X122885Y651556D01*
X122849Y651639D01*
X122823Y651672D01*
X122812Y651692D01*
X122789Y651714D01*
X122744Y651770D01*
X121968Y652547D01*
X120967Y654963D01*
X120967Y657577D01*
X121968Y659993D01*
X123817Y661842D01*
X126233Y662843D01*
X128847Y662843D01*
X131263Y661842D01*
X133112Y659993D01*
X134113Y657577D01*
X134113Y654963D01*
X133112Y652547D01*
X132336Y651770D01*
X132283Y651696D01*
X132223Y651627D01*
X132211Y651597D01*
X132192Y651571D01*
X132165Y651484D01*
X132131Y651399D01*
X132127Y651358D01*
X132120Y651336D01*
X132121Y651303D01*
X132113Y651232D01*
X132113Y461961D01*
X132128Y461865D01*
X132138Y461768D01*
X132148Y461744D01*
X132152Y461718D01*
X132198Y461632D01*
X132238Y461543D01*
X132255Y461524D01*
X132268Y461501D01*
X132338Y461434D01*
X132404Y461362D01*
X132427Y461349D01*
X132446Y461331D01*
X132534Y461290D01*
X132620Y461243D01*
X132645Y461239D01*
X132669Y461228D01*
X132766Y461217D01*
X132862Y461200D01*
X132888Y461204D01*
X132913Y461201D01*
X133009Y461221D01*
X133105Y461235D01*
X133128Y461247D01*
X133154Y461253D01*
X133237Y461303D01*
X133324Y461347D01*
X133343Y461366D01*
X133365Y461379D01*
X133428Y461453D01*
X133496Y461523D01*
X133512Y461551D01*
X133525Y461566D01*
X133537Y461597D01*
X133577Y461670D01*
X134428Y463723D01*
X136277Y465572D01*
X138693Y466573D01*
X141307Y466573D01*
X143543Y465647D01*
X143607Y465632D01*
X143668Y465607D01*
X143751Y465598D01*
X143783Y465591D01*
X143802Y465592D01*
X143834Y465589D01*
X156819Y465589D01*
X156884Y465599D01*
X156949Y465600D01*
X157029Y465623D01*
X157062Y465628D01*
X157079Y465638D01*
X157110Y465647D01*
X158742Y466323D01*
X161258Y466323D01*
X162890Y465647D01*
X162954Y465632D01*
X163014Y465607D01*
X163097Y465598D01*
X163129Y465591D01*
X163149Y465592D01*
X163181Y465589D01*
X272370Y465589D01*
X272460Y465603D01*
X272551Y465611D01*
X272581Y465623D01*
X272613Y465628D01*
X272693Y465671D01*
X272777Y465707D01*
X272809Y465733D01*
X272830Y465744D01*
X272852Y465767D01*
X272908Y465812D01*
X293337Y486241D01*
X293375Y486294D01*
X293421Y486341D01*
X293461Y486414D01*
X293480Y486440D01*
X293486Y486459D01*
X293502Y486487D01*
X294428Y488723D01*
X296277Y490572D01*
X298693Y491573D01*
X301307Y491573D01*
X303723Y490572D01*
X304890Y489406D01*
X304948Y489364D01*
X305000Y489314D01*
X305047Y489292D01*
X305089Y489262D01*
X305158Y489241D01*
X305223Y489211D01*
X305275Y489205D01*
X305325Y489190D01*
X305396Y489191D01*
X305467Y489184D01*
X305518Y489195D01*
X305570Y489196D01*
X305638Y489221D01*
X305708Y489236D01*
X305753Y489263D01*
X305801Y489280D01*
X305857Y489325D01*
X305919Y489362D01*
X305953Y489402D01*
X305993Y489434D01*
X306032Y489494D01*
X306079Y489549D01*
X306098Y489597D01*
X306126Y489641D01*
X306144Y489711D01*
X306171Y489777D01*
X306179Y489848D01*
X306187Y489880D01*
X306185Y489903D01*
X306189Y489944D01*
X306189Y669554D01*
X306175Y669644D01*
X306167Y669735D01*
X306155Y669765D01*
X306150Y669796D01*
X306107Y669877D01*
X306071Y669961D01*
X306045Y669993D01*
X306034Y670014D01*
X306011Y670036D01*
X305966Y670092D01*
X304640Y671418D01*
X303677Y673742D01*
X303677Y676258D01*
X304640Y678582D01*
X306418Y680360D01*
X308742Y681323D01*
X311258Y681323D01*
X313582Y680360D01*
X315360Y678582D01*
X316323Y676258D01*
X316323Y673742D01*
X315360Y671418D01*
X314034Y670092D01*
X313981Y670018D01*
X313921Y669949D01*
X313909Y669919D01*
X313890Y669892D01*
X313863Y669805D01*
X313829Y669720D01*
X313825Y669680D01*
X313818Y669657D01*
X313819Y669625D01*
X313811Y669554D01*
X313811Y489944D01*
X313822Y489873D01*
X313824Y489801D01*
X313842Y489752D01*
X313850Y489701D01*
X313884Y489638D01*
X313909Y489570D01*
X313941Y489530D01*
X313966Y489484D01*
X314018Y489434D01*
X314062Y489378D01*
X314106Y489350D01*
X314144Y489314D01*
X314209Y489284D01*
X314269Y489245D01*
X314320Y489233D01*
X314367Y489211D01*
X314438Y489203D01*
X314508Y489185D01*
X314560Y489189D01*
X314611Y489184D01*
X314682Y489199D01*
X314753Y489204D01*
X314801Y489225D01*
X314852Y489236D01*
X314913Y489273D01*
X314979Y489301D01*
X315035Y489346D01*
X315063Y489362D01*
X315078Y489380D01*
X315110Y489406D01*
X316277Y490572D01*
X318693Y491573D01*
X321307Y491573D01*
X323543Y490647D01*
X323607Y490632D01*
X323668Y490607D01*
X323751Y490598D01*
X323783Y490591D01*
X323802Y490592D01*
X323834Y490589D01*
X347416Y490589D01*
X347480Y490599D01*
X347546Y490600D01*
X347626Y490623D01*
X347658Y490628D01*
X347675Y490638D01*
X347707Y490647D01*
X349943Y491573D01*
X352557Y491573D01*
X354973Y490572D01*
X356822Y488723D01*
X357823Y486307D01*
X357823Y483693D01*
X356822Y481277D01*
X354973Y479428D01*
X352557Y478427D01*
X349943Y478427D01*
X347707Y479353D01*
X347643Y479368D01*
X347582Y479393D01*
X347499Y479402D01*
X347467Y479409D01*
X347448Y479408D01*
X347416Y479411D01*
X323834Y479411D01*
X323770Y479401D01*
X323704Y479400D01*
X323624Y479377D01*
X323592Y479372D01*
X323575Y479362D01*
X323543Y479353D01*
X321307Y478427D01*
X318693Y478427D01*
X316277Y479428D01*
X315110Y480594D01*
X315052Y480636D01*
X315000Y480686D01*
X314953Y480708D01*
X314911Y480738D01*
X314842Y480759D01*
X314777Y480789D01*
X314725Y480795D01*
X314675Y480810D01*
X314604Y480809D01*
X314533Y480816D01*
X314482Y480805D01*
X314430Y480804D01*
X314362Y480779D01*
X314292Y480764D01*
X314247Y480737D01*
X314199Y480720D01*
X314143Y480675D01*
X314081Y480638D01*
X314047Y480598D01*
X314007Y480566D01*
X313968Y480506D01*
X313921Y480451D01*
X313902Y480403D01*
X313874Y480359D01*
X313856Y480289D01*
X313829Y480223D01*
X313821Y480152D01*
X313813Y480120D01*
X313815Y480097D01*
X313811Y480056D01*
X313811Y359914D01*
X313825Y359824D01*
X313833Y359733D01*
X313845Y359703D01*
X313850Y359671D01*
X313893Y359590D01*
X313929Y359506D01*
X313955Y359474D01*
X313966Y359454D01*
X313989Y359431D01*
X314034Y359376D01*
X323964Y349446D01*
X324037Y349393D01*
X324107Y349333D01*
X324137Y349321D01*
X324163Y349302D01*
X324250Y349275D01*
X324335Y349241D01*
X324376Y349237D01*
X324398Y349230D01*
X324431Y349231D01*
X324502Y349223D01*
X326378Y349223D01*
X328702Y348260D01*
X330480Y346482D01*
X331443Y344158D01*
X331443Y341642D01*
X330480Y339318D01*
X328702Y337540D01*
X326378Y336577D01*
X323862Y336577D01*
X321538Y337540D01*
X319760Y339318D01*
X318797Y341642D01*
X318797Y343518D01*
X318783Y343608D01*
X318775Y343699D01*
X318763Y343729D01*
X318758Y343761D01*
X318715Y343842D01*
X318679Y343926D01*
X318653Y343958D01*
X318642Y343978D01*
X318619Y344001D01*
X318574Y344056D01*
X306189Y356442D01*
X306189Y480056D01*
X306178Y480127D01*
X306176Y480199D01*
X306158Y480248D01*
X306150Y480299D01*
X306116Y480362D01*
X306091Y480430D01*
X306059Y480470D01*
X306034Y480516D01*
X305982Y480566D01*
X305938Y480622D01*
X305894Y480650D01*
X305856Y480686D01*
X305791Y480716D01*
X305731Y480755D01*
X305680Y480767D01*
X305633Y480789D01*
X305562Y480797D01*
X305492Y480815D01*
X305440Y480811D01*
X305389Y480816D01*
X305318Y480801D01*
X305247Y480796D01*
X305199Y480775D01*
X305148Y480764D01*
X305087Y480727D01*
X305021Y480699D01*
X304965Y480654D01*
X304937Y480638D01*
X304922Y480620D01*
X304890Y480594D01*
X303723Y479428D01*
X301487Y478502D01*
X301432Y478467D01*
X301371Y478442D01*
X301307Y478390D01*
X301278Y478372D01*
X301266Y478357D01*
X301241Y478337D01*
X279845Y456941D01*
X278166Y455262D01*
X276112Y454411D01*
X163181Y454411D01*
X163116Y454401D01*
X163051Y454400D01*
X162971Y454377D01*
X162938Y454372D01*
X162921Y454362D01*
X162890Y454353D01*
X161258Y453677D01*
X158742Y453677D01*
X157110Y454353D01*
X157046Y454368D01*
X156986Y454393D01*
X156903Y454402D01*
X156871Y454409D01*
X156851Y454408D01*
X156819Y454411D01*
X143834Y454411D01*
X143770Y454401D01*
X143704Y454400D01*
X143624Y454377D01*
X143592Y454372D01*
X143575Y454362D01*
X143543Y454353D01*
X141307Y453427D01*
X138693Y453427D01*
X136277Y454428D01*
X134428Y456277D01*
X133577Y458330D01*
X133526Y458413D01*
X133480Y458499D01*
X133462Y458517D01*
X133448Y458540D01*
X133372Y458602D01*
X133302Y458669D01*
X133278Y458680D01*
X133258Y458696D01*
X133167Y458731D01*
X133079Y458772D01*
X133053Y458775D01*
X133029Y458785D01*
X132931Y458789D01*
X132835Y458799D01*
X132809Y458794D01*
X132783Y458795D01*
X132689Y458768D01*
X132594Y458747D01*
X132572Y458734D01*
X132547Y458726D01*
X132467Y458671D01*
X132383Y458621D01*
X132366Y458601D01*
X132345Y458586D01*
X132286Y458508D01*
X132223Y458434D01*
X132213Y458410D01*
X132198Y458389D01*
X132168Y458296D01*
X132131Y458206D01*
X132128Y458173D01*
X132122Y458155D01*
X132122Y458122D01*
X132113Y458039D01*
X132113Y404669D01*
X132127Y404579D01*
X132135Y404488D01*
X132147Y404459D01*
X132152Y404427D01*
X132195Y404346D01*
X132231Y404262D01*
X132257Y404230D01*
X132268Y404209D01*
X132291Y404187D01*
X132336Y404131D01*
X196671Y339796D01*
X196745Y339743D01*
X196815Y339683D01*
X196845Y339671D01*
X196871Y339652D01*
X196958Y339625D01*
X197043Y339591D01*
X197084Y339587D01*
X197106Y339580D01*
X197138Y339581D01*
X197209Y339573D01*
X306974Y339573D01*
X332411Y314136D01*
X332485Y314083D01*
X332555Y314023D01*
X332585Y314011D01*
X332611Y313992D01*
X332698Y313965D01*
X332783Y313931D01*
X332824Y313927D01*
X332846Y313920D01*
X332878Y313921D01*
X332949Y313913D01*
X334047Y313913D01*
X336463Y312912D01*
X338312Y311063D01*
X339313Y308647D01*
X339313Y306033D01*
X338312Y303617D01*
X336463Y301768D01*
X334047Y300767D01*
X331433Y300767D01*
G37*
%LPD*%
%LPC*%
G36*
X403742Y303677D02*
X403742Y303677D01*
X401418Y304640D01*
X399640Y306418D01*
X398677Y308742D01*
X398677Y311258D01*
X399640Y313582D01*
X401236Y315178D01*
X401289Y315252D01*
X401349Y315321D01*
X401361Y315352D01*
X401380Y315378D01*
X401407Y315465D01*
X401441Y315550D01*
X401445Y315591D01*
X401452Y315613D01*
X401451Y315645D01*
X401459Y315716D01*
X401459Y378218D01*
X401445Y378308D01*
X401437Y378399D01*
X401425Y378429D01*
X401420Y378461D01*
X401377Y378541D01*
X401341Y378625D01*
X401315Y378657D01*
X401304Y378678D01*
X401281Y378700D01*
X401236Y378756D01*
X390189Y389803D01*
X390189Y578777D01*
X390182Y578823D01*
X390184Y578869D01*
X390162Y578943D01*
X390150Y579020D01*
X390128Y579061D01*
X390115Y579105D01*
X390071Y579169D01*
X390034Y579238D01*
X390001Y579269D01*
X389975Y579307D01*
X389913Y579353D01*
X389856Y579407D01*
X389814Y579426D01*
X389778Y579454D01*
X389704Y579478D01*
X389633Y579511D01*
X389587Y579516D01*
X389544Y579530D01*
X389466Y579529D01*
X389389Y579538D01*
X389344Y579528D01*
X389298Y579527D01*
X389166Y579489D01*
X389148Y579485D01*
X389144Y579483D01*
X389137Y579481D01*
X386593Y578427D01*
X383979Y578427D01*
X381743Y579353D01*
X381679Y579368D01*
X381618Y579393D01*
X381535Y579402D01*
X381503Y579409D01*
X381484Y579408D01*
X381452Y579411D01*
X356522Y579411D01*
X356432Y579397D01*
X356341Y579389D01*
X356311Y579377D01*
X356279Y579372D01*
X356198Y579329D01*
X356115Y579293D01*
X356082Y579267D01*
X356062Y579256D01*
X356040Y579233D01*
X355984Y579188D01*
X354973Y578178D01*
X352557Y577177D01*
X349943Y577177D01*
X347527Y578178D01*
X345678Y580027D01*
X344677Y582443D01*
X344677Y585057D01*
X345678Y587473D01*
X347527Y589322D01*
X349943Y590323D01*
X350595Y590323D01*
X350659Y590333D01*
X350725Y590334D01*
X350805Y590357D01*
X350837Y590362D01*
X350855Y590372D01*
X350886Y590381D01*
X351388Y590589D01*
X381452Y590589D01*
X381516Y590599D01*
X381582Y590600D01*
X381662Y590623D01*
X381694Y590628D01*
X381711Y590638D01*
X381743Y590647D01*
X383979Y591573D01*
X386593Y591573D01*
X389137Y590519D01*
X389181Y590509D01*
X389223Y590489D01*
X389300Y590481D01*
X389376Y590463D01*
X389422Y590467D01*
X389467Y590462D01*
X389544Y590479D01*
X389621Y590486D01*
X389663Y590505D01*
X389708Y590515D01*
X389775Y590555D01*
X389846Y590586D01*
X389880Y590617D01*
X389919Y590641D01*
X389969Y590700D01*
X390027Y590753D01*
X390049Y590793D01*
X390079Y590828D01*
X390108Y590900D01*
X390145Y590968D01*
X390154Y591013D01*
X390171Y591056D01*
X390186Y591192D01*
X390189Y591210D01*
X390188Y591215D01*
X390189Y591223D01*
X390189Y664488D01*
X390175Y664578D01*
X390167Y664669D01*
X390155Y664699D01*
X390150Y664731D01*
X390107Y664811D01*
X390071Y664895D01*
X390045Y664927D01*
X390034Y664948D01*
X390011Y664970D01*
X389966Y665026D01*
X328756Y726236D01*
X328682Y726289D01*
X328613Y726349D01*
X328583Y726361D01*
X328557Y726380D01*
X328470Y726407D01*
X328385Y726441D01*
X328344Y726445D01*
X328322Y726452D01*
X328289Y726451D01*
X328218Y726459D01*
X295716Y726459D01*
X295626Y726445D01*
X295535Y726437D01*
X295506Y726425D01*
X295474Y726420D01*
X295393Y726377D01*
X295309Y726341D01*
X295277Y726315D01*
X295256Y726304D01*
X295234Y726281D01*
X295178Y726236D01*
X293582Y724640D01*
X291258Y723677D01*
X288742Y723677D01*
X286418Y724640D01*
X284640Y726418D01*
X283677Y728742D01*
X283677Y731258D01*
X284640Y733582D01*
X286418Y735360D01*
X288742Y736323D01*
X291258Y736323D01*
X293582Y735360D01*
X295178Y733764D01*
X295252Y733711D01*
X295321Y733651D01*
X295352Y733639D01*
X295378Y733620D01*
X295465Y733593D01*
X295550Y733559D01*
X295591Y733555D01*
X295613Y733548D01*
X295645Y733549D01*
X295716Y733541D01*
X331467Y733541D01*
X397271Y667737D01*
X397271Y591479D01*
X397278Y591433D01*
X397276Y591387D01*
X397298Y591313D01*
X397310Y591236D01*
X397332Y591195D01*
X397345Y591151D01*
X397389Y591087D01*
X397426Y591018D01*
X397459Y590987D01*
X397485Y590949D01*
X397548Y590903D01*
X397604Y590849D01*
X397646Y590830D01*
X397682Y590802D01*
X397756Y590778D01*
X397827Y590745D01*
X397873Y590740D01*
X397916Y590726D01*
X397994Y590727D01*
X398071Y590718D01*
X398116Y590728D01*
X398162Y590729D01*
X398294Y590767D01*
X398312Y590771D01*
X398316Y590773D01*
X398323Y590775D01*
X400069Y591498D01*
X400124Y591533D01*
X400185Y591558D01*
X400249Y591610D01*
X400278Y591628D01*
X400290Y591643D01*
X400315Y591663D01*
X421711Y613059D01*
X423390Y614738D01*
X425444Y615589D01*
X540415Y615589D01*
X540479Y615599D01*
X540545Y615600D01*
X540625Y615623D01*
X540657Y615628D01*
X540674Y615638D01*
X540706Y615647D01*
X542942Y616573D01*
X545556Y616573D01*
X547972Y615572D01*
X549821Y613723D01*
X550822Y611307D01*
X550822Y608693D01*
X549821Y606277D01*
X547972Y604428D01*
X545556Y603427D01*
X542942Y603427D01*
X540706Y604353D01*
X540642Y604368D01*
X540581Y604393D01*
X540498Y604402D01*
X540466Y604409D01*
X540447Y604408D01*
X540415Y604411D01*
X429186Y604411D01*
X429096Y604397D01*
X429005Y604389D01*
X428975Y604377D01*
X428944Y604372D01*
X428863Y604329D01*
X428779Y604293D01*
X428747Y604267D01*
X428726Y604256D01*
X428704Y604233D01*
X428648Y604188D01*
X408219Y583759D01*
X408181Y583706D01*
X408135Y583659D01*
X408095Y583586D01*
X408076Y583560D01*
X408070Y583541D01*
X408054Y583513D01*
X407128Y581277D01*
X405279Y579428D01*
X402863Y578427D01*
X400249Y578427D01*
X398323Y579225D01*
X398279Y579235D01*
X398237Y579255D01*
X398160Y579263D01*
X398084Y579281D01*
X398038Y579277D01*
X397993Y579282D01*
X397916Y579265D01*
X397839Y579258D01*
X397797Y579239D01*
X397752Y579229D01*
X397685Y579189D01*
X397614Y579158D01*
X397580Y579127D01*
X397541Y579103D01*
X397490Y579044D01*
X397433Y578991D01*
X397411Y578951D01*
X397381Y578916D01*
X397352Y578844D01*
X397315Y578776D01*
X397306Y578731D01*
X397289Y578688D01*
X397274Y578552D01*
X397271Y578534D01*
X397272Y578529D01*
X397271Y578521D01*
X397271Y393052D01*
X397285Y392962D01*
X397293Y392871D01*
X397305Y392841D01*
X397310Y392809D01*
X397353Y392728D01*
X397389Y392645D01*
X397415Y392613D01*
X397426Y392592D01*
X397449Y392570D01*
X397494Y392514D01*
X408541Y381467D01*
X408541Y315716D01*
X408555Y315626D01*
X408563Y315535D01*
X408575Y315506D01*
X408580Y315474D01*
X408623Y315393D01*
X408659Y315309D01*
X408685Y315277D01*
X408696Y315256D01*
X408719Y315234D01*
X408764Y315178D01*
X410360Y313582D01*
X411323Y311258D01*
X411323Y308742D01*
X410360Y306418D01*
X408582Y304640D01*
X406258Y303677D01*
X403742Y303677D01*
G37*
%LPD*%
%LPC*%
G36*
X78068Y350932D02*
X78068Y350932D01*
X75652Y351933D01*
X73803Y353782D01*
X72802Y356198D01*
X72802Y358812D01*
X73803Y361228D01*
X74188Y361614D01*
X74241Y361688D01*
X74301Y361757D01*
X74313Y361787D01*
X74332Y361813D01*
X74359Y361900D01*
X74393Y361985D01*
X74397Y362026D01*
X74404Y362048D01*
X74403Y362081D01*
X74411Y362152D01*
X74411Y366082D01*
X74401Y366147D01*
X74400Y366212D01*
X74377Y366292D01*
X74372Y366325D01*
X74362Y366342D01*
X74353Y366373D01*
X73395Y368686D01*
X73395Y677698D01*
X73384Y677769D01*
X73382Y677840D01*
X73364Y677889D01*
X73356Y677941D01*
X73322Y678004D01*
X73297Y678071D01*
X73265Y678112D01*
X73240Y678158D01*
X73188Y678207D01*
X73144Y678263D01*
X73100Y678292D01*
X73062Y678327D01*
X72997Y678358D01*
X72937Y678396D01*
X72886Y678409D01*
X72839Y678431D01*
X72768Y678439D01*
X72698Y678456D01*
X72646Y678452D01*
X72595Y678458D01*
X72524Y678443D01*
X72453Y678437D01*
X72405Y678417D01*
X72354Y678406D01*
X72293Y678369D01*
X72227Y678341D01*
X72171Y678296D01*
X72143Y678280D01*
X72128Y678262D01*
X72096Y678236D01*
X65524Y671664D01*
X54476Y671664D01*
X46664Y679476D01*
X46664Y690524D01*
X54476Y698336D01*
X65524Y698336D01*
X72096Y691764D01*
X72154Y691722D01*
X72206Y691673D01*
X72253Y691651D01*
X72295Y691620D01*
X72364Y691599D01*
X72429Y691569D01*
X72481Y691563D01*
X72531Y691548D01*
X72602Y691550D01*
X72673Y691542D01*
X72724Y691553D01*
X72776Y691554D01*
X72844Y691579D01*
X72914Y691594D01*
X72959Y691621D01*
X73007Y691639D01*
X73063Y691684D01*
X73125Y691720D01*
X73159Y691760D01*
X73199Y691792D01*
X73238Y691853D01*
X73285Y691907D01*
X73304Y691956D01*
X73332Y691999D01*
X73350Y692069D01*
X73377Y692135D01*
X73385Y692207D01*
X73393Y692238D01*
X73391Y692261D01*
X73395Y692302D01*
X73395Y751314D01*
X74401Y753741D01*
X76259Y755599D01*
X78686Y756605D01*
X81314Y756605D01*
X83741Y755599D01*
X85599Y753741D01*
X86605Y751314D01*
X86605Y368686D01*
X85647Y366373D01*
X85632Y366310D01*
X85607Y366249D01*
X85598Y366166D01*
X85591Y366134D01*
X85592Y366115D01*
X85589Y366082D01*
X85589Y359831D01*
X85599Y359766D01*
X85600Y359700D01*
X85623Y359620D01*
X85628Y359588D01*
X85638Y359571D01*
X85647Y359539D01*
X85948Y358812D01*
X85948Y356198D01*
X84947Y353782D01*
X83098Y351933D01*
X80682Y350932D01*
X78068Y350932D01*
G37*
%LPD*%
%LPC*%
G36*
X98742Y68677D02*
X98742Y68677D01*
X96418Y69640D01*
X94640Y71418D01*
X93677Y73742D01*
X93677Y76258D01*
X94640Y78582D01*
X96418Y80360D01*
X98742Y81323D01*
X101258Y81323D01*
X102890Y80647D01*
X102954Y80632D01*
X103014Y80607D01*
X103097Y80598D01*
X103129Y80591D01*
X103149Y80592D01*
X103181Y80589D01*
X232370Y80589D01*
X232460Y80603D01*
X232551Y80611D01*
X232581Y80623D01*
X232612Y80628D01*
X232693Y80671D01*
X232777Y80707D01*
X232809Y80733D01*
X232830Y80744D01*
X232852Y80767D01*
X232908Y80812D01*
X268799Y116702D01*
X268837Y116756D01*
X268883Y116802D01*
X268923Y116876D01*
X268942Y116902D01*
X268948Y116921D01*
X268964Y116949D01*
X269640Y118582D01*
X271418Y120360D01*
X273742Y121323D01*
X276258Y121323D01*
X278582Y120360D01*
X280360Y118582D01*
X281323Y116258D01*
X281323Y113742D01*
X280360Y111418D01*
X278582Y109640D01*
X276949Y108964D01*
X276894Y108929D01*
X276833Y108904D01*
X276797Y108875D01*
X276778Y108865D01*
X276762Y108848D01*
X276740Y108834D01*
X276728Y108819D01*
X276702Y108799D01*
X238166Y70262D01*
X236112Y69411D01*
X103181Y69411D01*
X103116Y69401D01*
X103051Y69400D01*
X102971Y69377D01*
X102938Y69372D01*
X102921Y69362D01*
X102890Y69353D01*
X101258Y68677D01*
X98742Y68677D01*
G37*
%LPD*%
%LPC*%
G36*
X353742Y258677D02*
X353742Y258677D01*
X351418Y259640D01*
X349640Y261418D01*
X348677Y263742D01*
X348677Y266258D01*
X349640Y268582D01*
X350712Y269654D01*
X350765Y269728D01*
X350825Y269797D01*
X350837Y269827D01*
X350856Y269854D01*
X350883Y269941D01*
X350917Y270026D01*
X350921Y270066D01*
X350928Y270089D01*
X350927Y270121D01*
X350935Y270192D01*
X350935Y309808D01*
X350921Y309898D01*
X350913Y309989D01*
X350901Y310018D01*
X350896Y310050D01*
X350853Y310131D01*
X350817Y310215D01*
X350791Y310247D01*
X350780Y310268D01*
X350757Y310290D01*
X350712Y310346D01*
X349640Y311418D01*
X348677Y313742D01*
X348677Y316258D01*
X349640Y318582D01*
X350694Y319636D01*
X350736Y319694D01*
X350785Y319746D01*
X350807Y319793D01*
X350838Y319835D01*
X350859Y319904D01*
X350889Y319969D01*
X350895Y320021D01*
X350910Y320071D01*
X350908Y320142D01*
X350916Y320213D01*
X350905Y320264D01*
X350904Y320316D01*
X350879Y320384D01*
X350864Y320454D01*
X350837Y320499D01*
X350819Y320547D01*
X350774Y320603D01*
X350738Y320665D01*
X350698Y320699D01*
X350665Y320739D01*
X350605Y320778D01*
X350551Y320825D01*
X350502Y320844D01*
X350459Y320872D01*
X350389Y320890D01*
X350322Y320917D01*
X350251Y320925D01*
X350220Y320933D01*
X350197Y320931D01*
X350156Y320935D01*
X340192Y320935D01*
X340102Y320921D01*
X340011Y320913D01*
X339982Y320901D01*
X339950Y320896D01*
X339869Y320853D01*
X339785Y320817D01*
X339753Y320791D01*
X339732Y320780D01*
X339710Y320757D01*
X339654Y320712D01*
X338582Y319640D01*
X336258Y318677D01*
X333742Y318677D01*
X331418Y319640D01*
X329640Y321418D01*
X328677Y323742D01*
X328677Y326258D01*
X329640Y328582D01*
X331418Y330360D01*
X333742Y331323D01*
X336258Y331323D01*
X338582Y330360D01*
X339654Y329288D01*
X339728Y329235D01*
X339797Y329175D01*
X339828Y329163D01*
X339854Y329144D01*
X339941Y329117D01*
X340026Y329083D01*
X340067Y329079D01*
X340089Y329072D01*
X340121Y329073D01*
X340192Y329065D01*
X384808Y329065D01*
X384898Y329079D01*
X384989Y329087D01*
X385018Y329099D01*
X385050Y329104D01*
X385131Y329147D01*
X385215Y329183D01*
X385247Y329209D01*
X385268Y329220D01*
X385290Y329243D01*
X385346Y329288D01*
X386418Y330360D01*
X388742Y331323D01*
X391258Y331323D01*
X393582Y330360D01*
X395360Y328582D01*
X396323Y326258D01*
X396323Y323742D01*
X395360Y321418D01*
X393582Y319640D01*
X391258Y318677D01*
X388742Y318677D01*
X386418Y319640D01*
X385346Y320712D01*
X385272Y320765D01*
X385203Y320825D01*
X385172Y320837D01*
X385146Y320856D01*
X385059Y320883D01*
X384974Y320917D01*
X384933Y320921D01*
X384911Y320928D01*
X384879Y320927D01*
X384808Y320935D01*
X359844Y320935D01*
X359774Y320924D01*
X359702Y320922D01*
X359653Y320904D01*
X359601Y320896D01*
X359538Y320862D01*
X359471Y320837D01*
X359430Y320805D01*
X359384Y320780D01*
X359335Y320728D01*
X359279Y320684D01*
X359251Y320640D01*
X359215Y320602D01*
X359185Y320537D01*
X359146Y320477D01*
X359133Y320426D01*
X359111Y320379D01*
X359103Y320308D01*
X359086Y320238D01*
X359090Y320186D01*
X359084Y320135D01*
X359099Y320064D01*
X359105Y319993D01*
X359125Y319945D01*
X359136Y319894D01*
X359173Y319833D01*
X359201Y319767D01*
X359246Y319711D01*
X359262Y319683D01*
X359280Y319668D01*
X359306Y319636D01*
X360360Y318582D01*
X361323Y316258D01*
X361323Y313742D01*
X360360Y311418D01*
X359288Y310346D01*
X359235Y310272D01*
X359175Y310203D01*
X359163Y310172D01*
X359144Y310146D01*
X359117Y310059D01*
X359083Y309974D01*
X359079Y309933D01*
X359072Y309911D01*
X359073Y309879D01*
X359065Y309808D01*
X359065Y270192D01*
X359079Y270102D01*
X359087Y270011D01*
X359099Y269981D01*
X359104Y269950D01*
X359147Y269869D01*
X359183Y269785D01*
X359209Y269753D01*
X359220Y269732D01*
X359243Y269710D01*
X359288Y269654D01*
X360360Y268582D01*
X361323Y266258D01*
X361323Y263742D01*
X360360Y261418D01*
X358582Y259640D01*
X356258Y258677D01*
X353742Y258677D01*
G37*
%LPD*%
%LPC*%
G36*
X394267Y699082D02*
X394267Y699082D01*
X391943Y700045D01*
X390165Y701823D01*
X389202Y704147D01*
X389202Y706663D01*
X390165Y708987D01*
X391491Y710313D01*
X391544Y710387D01*
X391604Y710456D01*
X391616Y710487D01*
X391635Y710513D01*
X391662Y710600D01*
X391696Y710685D01*
X391700Y710726D01*
X391707Y710748D01*
X391706Y710780D01*
X391714Y710851D01*
X391714Y727581D01*
X391700Y727671D01*
X391692Y727762D01*
X391680Y727792D01*
X391675Y727824D01*
X391632Y727905D01*
X391596Y727989D01*
X391570Y728021D01*
X391559Y728041D01*
X391536Y728064D01*
X391491Y728119D01*
X341156Y778454D01*
X341083Y778507D01*
X341013Y778567D01*
X340983Y778579D01*
X340957Y778598D01*
X340870Y778625D01*
X340785Y778659D01*
X340744Y778663D01*
X340722Y778670D01*
X340689Y778669D01*
X340618Y778677D01*
X338742Y778677D01*
X336418Y779640D01*
X334640Y781418D01*
X333677Y783742D01*
X333677Y786258D01*
X334640Y788582D01*
X336418Y790360D01*
X338742Y791323D01*
X341258Y791323D01*
X343582Y790360D01*
X345360Y788582D01*
X346323Y786258D01*
X346323Y784382D01*
X346337Y784292D01*
X346345Y784201D01*
X346357Y784171D01*
X346362Y784139D01*
X346405Y784058D01*
X346441Y783974D01*
X346467Y783942D01*
X346478Y783922D01*
X346501Y783899D01*
X346546Y783844D01*
X399336Y731053D01*
X399336Y710851D01*
X399350Y710761D01*
X399358Y710670D01*
X399370Y710641D01*
X399375Y710609D01*
X399418Y710528D01*
X399454Y710444D01*
X399480Y710412D01*
X399491Y710391D01*
X399514Y710369D01*
X399559Y710313D01*
X400885Y708987D01*
X401848Y706663D01*
X401848Y704147D01*
X400885Y701823D01*
X399107Y700045D01*
X396783Y699082D01*
X394267Y699082D01*
G37*
%LPD*%
%LPC*%
G36*
X366592Y246527D02*
X366592Y246527D01*
X364268Y247490D01*
X363316Y248442D01*
X363242Y248495D01*
X363173Y248555D01*
X363142Y248567D01*
X363116Y248586D01*
X363029Y248613D01*
X362944Y248647D01*
X362903Y248651D01*
X362881Y248658D01*
X362849Y248657D01*
X362778Y248665D01*
X336136Y248665D01*
X308355Y276446D01*
X308355Y297068D01*
X308341Y297158D01*
X308333Y297249D01*
X308321Y297278D01*
X308316Y297310D01*
X308273Y297391D01*
X308237Y297475D01*
X308211Y297507D01*
X308200Y297528D01*
X308177Y297550D01*
X308132Y297606D01*
X307060Y298678D01*
X306097Y301002D01*
X306097Y303518D01*
X307060Y305842D01*
X308838Y307620D01*
X311162Y308583D01*
X313678Y308583D01*
X316002Y307620D01*
X317780Y305842D01*
X318743Y303518D01*
X318743Y301002D01*
X317780Y298678D01*
X316708Y297606D01*
X316655Y297532D01*
X316595Y297463D01*
X316583Y297432D01*
X316564Y297406D01*
X316537Y297319D01*
X316503Y297234D01*
X316499Y297193D01*
X316492Y297171D01*
X316493Y297139D01*
X316485Y297068D01*
X316485Y280129D01*
X316499Y280039D01*
X316507Y279948D01*
X316519Y279918D01*
X316524Y279886D01*
X316567Y279806D01*
X316603Y279722D01*
X316629Y279690D01*
X316640Y279669D01*
X316663Y279647D01*
X316708Y279591D01*
X339281Y257018D01*
X339355Y256965D01*
X339424Y256905D01*
X339454Y256893D01*
X339480Y256874D01*
X339567Y256847D01*
X339652Y256813D01*
X339693Y256809D01*
X339716Y256802D01*
X339748Y256803D01*
X339819Y256795D01*
X362538Y256795D01*
X362628Y256809D01*
X362719Y256817D01*
X362748Y256829D01*
X362780Y256834D01*
X362861Y256877D01*
X362945Y256913D01*
X362977Y256939D01*
X362998Y256950D01*
X363020Y256973D01*
X363076Y257018D01*
X364268Y258210D01*
X366592Y259173D01*
X369108Y259173D01*
X371432Y258210D01*
X373210Y256432D01*
X374173Y254108D01*
X374173Y251592D01*
X373210Y249268D01*
X371432Y247490D01*
X369108Y246527D01*
X366592Y246527D01*
G37*
%LPD*%
%LPC*%
G36*
X442059Y711839D02*
X442059Y711839D01*
X438324Y713386D01*
X435466Y716244D01*
X433919Y719979D01*
X433919Y724021D01*
X435466Y727756D01*
X438324Y730614D01*
X442059Y732161D01*
X461341Y732161D01*
X465076Y730614D01*
X467878Y727812D01*
X467952Y727759D01*
X468021Y727699D01*
X468051Y727687D01*
X468078Y727668D01*
X468164Y727641D01*
X468249Y727607D01*
X468290Y727603D01*
X468313Y727596D01*
X468345Y727597D01*
X468416Y727589D01*
X480964Y727589D01*
X481029Y727599D01*
X481094Y727600D01*
X481174Y727623D01*
X481207Y727628D01*
X481224Y727638D01*
X481255Y727647D01*
X481342Y727683D01*
X483858Y727683D01*
X486182Y726720D01*
X487960Y724942D01*
X488923Y722618D01*
X488923Y720102D01*
X487960Y717778D01*
X486182Y716000D01*
X483858Y715037D01*
X481342Y715037D01*
X479018Y716000D01*
X478830Y716188D01*
X478756Y716241D01*
X478687Y716301D01*
X478656Y716313D01*
X478630Y716332D01*
X478543Y716359D01*
X478458Y716393D01*
X478417Y716397D01*
X478395Y716404D01*
X478363Y716403D01*
X478292Y716411D01*
X468416Y716411D01*
X468326Y716397D01*
X468235Y716389D01*
X468205Y716377D01*
X468173Y716372D01*
X468093Y716329D01*
X468009Y716293D01*
X467977Y716267D01*
X467956Y716256D01*
X467934Y716233D01*
X467878Y716188D01*
X465076Y713386D01*
X461341Y711839D01*
X442059Y711839D01*
G37*
%LPD*%
%LPC*%
G36*
X428742Y733677D02*
X428742Y733677D01*
X426418Y734640D01*
X424640Y736418D01*
X423677Y738742D01*
X423677Y741258D01*
X424640Y743582D01*
X426418Y745360D01*
X428742Y746323D01*
X430618Y746323D01*
X430708Y746337D01*
X430799Y746345D01*
X430829Y746357D01*
X430861Y746362D01*
X430941Y746405D01*
X431026Y746441D01*
X431058Y746467D01*
X431078Y746478D01*
X431100Y746501D01*
X431156Y746546D01*
X433733Y749122D01*
X433771Y749175D01*
X433817Y749222D01*
X433857Y749295D01*
X433876Y749321D01*
X433882Y749340D01*
X433898Y749369D01*
X435466Y753156D01*
X438324Y756014D01*
X442059Y757561D01*
X461341Y757561D01*
X465076Y756014D01*
X467934Y753156D01*
X469481Y749421D01*
X469481Y745379D01*
X467934Y741644D01*
X465076Y738786D01*
X461341Y737239D01*
X442059Y737239D01*
X438324Y738786D01*
X437622Y739488D01*
X437564Y739530D01*
X437512Y739580D01*
X437465Y739601D01*
X437423Y739632D01*
X437354Y739653D01*
X437289Y739683D01*
X437237Y739689D01*
X437187Y739704D01*
X437116Y739702D01*
X437045Y739710D01*
X436994Y739699D01*
X436942Y739698D01*
X436874Y739673D01*
X436804Y739658D01*
X436759Y739631D01*
X436711Y739613D01*
X436655Y739569D01*
X436593Y739532D01*
X436559Y739492D01*
X436519Y739460D01*
X436480Y739399D01*
X436433Y739345D01*
X436414Y739297D01*
X436386Y739253D01*
X436368Y739183D01*
X436341Y739117D01*
X436333Y739045D01*
X436325Y739014D01*
X436327Y738991D01*
X436323Y738950D01*
X436323Y738742D01*
X435360Y736418D01*
X433582Y734640D01*
X431258Y733677D01*
X428742Y733677D01*
G37*
%LPD*%
%LPC*%
G36*
X23687Y849759D02*
X23687Y849759D01*
X14759Y858687D01*
X14759Y871313D01*
X23687Y880241D01*
X36313Y880241D01*
X45241Y871313D01*
X45241Y858687D01*
X36313Y849759D01*
X23687Y849759D01*
G37*
%LPD*%
%LPC*%
G36*
X23687Y604759D02*
X23687Y604759D01*
X14759Y613687D01*
X14759Y626313D01*
X23687Y635241D01*
X36313Y635241D01*
X45241Y626313D01*
X45241Y613687D01*
X36313Y604759D01*
X23687Y604759D01*
G37*
%LPD*%
%LPC*%
G36*
X23687Y508569D02*
X23687Y508569D01*
X14759Y517497D01*
X14759Y530123D01*
X23687Y539051D01*
X36313Y539051D01*
X45241Y530123D01*
X45241Y517497D01*
X36313Y508569D01*
X23687Y508569D01*
G37*
%LPD*%
%LPC*%
G36*
X23687Y704759D02*
X23687Y704759D01*
X14759Y713687D01*
X14759Y726313D01*
X23687Y735241D01*
X36313Y735241D01*
X45241Y726313D01*
X45241Y713687D01*
X36313Y704759D01*
X23687Y704759D01*
G37*
%LPD*%
%LPC*%
G36*
X442059Y788039D02*
X442059Y788039D01*
X438324Y789586D01*
X435466Y792444D01*
X433919Y796179D01*
X433919Y800221D01*
X435466Y803956D01*
X438324Y806814D01*
X442059Y808361D01*
X461341Y808361D01*
X465076Y806814D01*
X467934Y803956D01*
X469481Y800221D01*
X469481Y796179D01*
X467934Y792444D01*
X465076Y789586D01*
X461341Y788039D01*
X442059Y788039D01*
G37*
%LPD*%
%LPC*%
G36*
X442059Y762639D02*
X442059Y762639D01*
X438324Y764186D01*
X435466Y767044D01*
X433919Y770779D01*
X433919Y774821D01*
X435466Y778556D01*
X438324Y781414D01*
X442059Y782961D01*
X461341Y782961D01*
X465076Y781414D01*
X467934Y778556D01*
X469481Y774821D01*
X469481Y770779D01*
X467934Y767044D01*
X465076Y764186D01*
X461341Y762639D01*
X442059Y762639D01*
G37*
%LPD*%
%LPC*%
G36*
X338742Y233677D02*
X338742Y233677D01*
X336418Y234640D01*
X335346Y235712D01*
X335272Y235765D01*
X335203Y235825D01*
X335172Y235837D01*
X335146Y235856D01*
X335059Y235883D01*
X334974Y235917D01*
X334933Y235921D01*
X334911Y235928D01*
X334879Y235927D01*
X334808Y235935D01*
X329816Y235935D01*
X299247Y266504D01*
X299173Y266557D01*
X299104Y266617D01*
X299074Y266629D01*
X299048Y266648D01*
X298961Y266675D01*
X298876Y266709D01*
X298835Y266713D01*
X298812Y266720D01*
X298780Y266719D01*
X298709Y266727D01*
X297192Y266727D01*
X294868Y267690D01*
X293090Y269468D01*
X292127Y271792D01*
X292127Y274308D01*
X293090Y276632D01*
X294868Y278410D01*
X297192Y279373D01*
X299708Y279373D01*
X302032Y278410D01*
X303810Y276632D01*
X304773Y274308D01*
X304773Y272791D01*
X304787Y272701D01*
X304795Y272610D01*
X304807Y272580D01*
X304812Y272548D01*
X304855Y272468D01*
X304891Y272384D01*
X304917Y272352D01*
X304928Y272331D01*
X304951Y272309D01*
X304996Y272253D01*
X332961Y244288D01*
X333035Y244235D01*
X333104Y244175D01*
X333134Y244163D01*
X333160Y244144D01*
X333247Y244117D01*
X333332Y244083D01*
X333373Y244079D01*
X333396Y244072D01*
X333428Y244073D01*
X333499Y244065D01*
X334808Y244065D01*
X334898Y244079D01*
X334989Y244087D01*
X335018Y244099D01*
X335050Y244104D01*
X335131Y244147D01*
X335215Y244183D01*
X335247Y244209D01*
X335268Y244220D01*
X335290Y244243D01*
X335346Y244288D01*
X336418Y245360D01*
X338742Y246323D01*
X341258Y246323D01*
X343582Y245360D01*
X345360Y243582D01*
X346323Y241258D01*
X346323Y238742D01*
X345360Y236418D01*
X343582Y234640D01*
X341258Y233677D01*
X338742Y233677D01*
G37*
%LPD*%
%LPC*%
G36*
X294476Y681664D02*
X294476Y681664D01*
X286664Y689476D01*
X286664Y700524D01*
X294476Y708336D01*
X305524Y708336D01*
X313336Y700524D01*
X313336Y689476D01*
X305524Y681664D01*
X294476Y681664D01*
G37*
%LPD*%
%LPC*%
G36*
X244476Y421664D02*
X244476Y421664D01*
X236664Y429476D01*
X236664Y440524D01*
X244476Y448336D01*
X255524Y448336D01*
X263336Y440524D01*
X263336Y429476D01*
X255524Y421664D01*
X244476Y421664D01*
G37*
%LPD*%
%LPC*%
G36*
X149476Y416664D02*
X149476Y416664D01*
X141664Y424476D01*
X141664Y435524D01*
X149476Y443336D01*
X160524Y443336D01*
X168336Y435524D01*
X168336Y424476D01*
X160524Y416664D01*
X149476Y416664D01*
G37*
%LPD*%
%LPC*%
G36*
X159476Y256664D02*
X159476Y256664D01*
X151664Y264476D01*
X151664Y275524D01*
X159476Y283336D01*
X170524Y283336D01*
X178336Y275524D01*
X178336Y264476D01*
X170524Y256664D01*
X159476Y256664D01*
G37*
%LPD*%
%LPC*%
G36*
X119476Y206664D02*
X119476Y206664D01*
X111664Y214476D01*
X111664Y225524D01*
X119476Y233336D01*
X130524Y233336D01*
X138336Y225524D01*
X138336Y214476D01*
X130524Y206664D01*
X119476Y206664D01*
G37*
%LPD*%
%LPC*%
G36*
X223742Y363677D02*
X223742Y363677D01*
X221418Y364640D01*
X219640Y366418D01*
X218677Y368742D01*
X218677Y371258D01*
X219640Y373582D01*
X221418Y375360D01*
X223742Y376323D01*
X226258Y376323D01*
X228582Y375360D01*
X228638Y375304D01*
X228712Y375251D01*
X228781Y375191D01*
X228812Y375179D01*
X228838Y375160D01*
X228925Y375133D01*
X229010Y375099D01*
X229051Y375095D01*
X229073Y375088D01*
X229105Y375089D01*
X229176Y375081D01*
X255824Y375081D01*
X255914Y375095D01*
X256005Y375103D01*
X256034Y375115D01*
X256066Y375120D01*
X256147Y375163D01*
X256231Y375199D01*
X256263Y375225D01*
X256284Y375236D01*
X256306Y375259D01*
X256362Y375304D01*
X256418Y375360D01*
X258742Y376323D01*
X261258Y376323D01*
X263582Y375360D01*
X265360Y373582D01*
X266323Y371258D01*
X266323Y368742D01*
X265360Y366418D01*
X263582Y364640D01*
X261258Y363677D01*
X258742Y363677D01*
X256418Y364640D01*
X256362Y364696D01*
X256288Y364749D01*
X256219Y364809D01*
X256188Y364821D01*
X256162Y364840D01*
X256075Y364867D01*
X255990Y364901D01*
X255949Y364905D01*
X255927Y364912D01*
X255895Y364911D01*
X255824Y364919D01*
X229176Y364919D01*
X229086Y364905D01*
X228995Y364897D01*
X228966Y364885D01*
X228934Y364880D01*
X228853Y364837D01*
X228769Y364801D01*
X228737Y364775D01*
X228716Y364764D01*
X228694Y364741D01*
X228638Y364696D01*
X228582Y364640D01*
X226258Y363677D01*
X223742Y363677D01*
G37*
%LPD*%
%LPC*%
G36*
X82689Y170087D02*
X82689Y170087D01*
X78605Y171779D01*
X75479Y174905D01*
X73787Y178989D01*
X73787Y183411D01*
X75479Y187495D01*
X78605Y190621D01*
X82689Y192313D01*
X87111Y192313D01*
X91195Y190621D01*
X94321Y187495D01*
X96013Y183411D01*
X96013Y178989D01*
X94321Y174905D01*
X91195Y171779D01*
X87111Y170087D01*
X82689Y170087D01*
G37*
%LPD*%
%LPC*%
G36*
X82689Y93887D02*
X82689Y93887D01*
X78605Y95579D01*
X75479Y98705D01*
X73787Y102789D01*
X73787Y107211D01*
X75479Y111295D01*
X78605Y114421D01*
X82689Y116113D01*
X87111Y116113D01*
X91195Y114421D01*
X94321Y111295D01*
X96013Y107211D01*
X96013Y102789D01*
X94321Y98705D01*
X91195Y95579D01*
X87111Y93887D01*
X82689Y93887D01*
G37*
%LPD*%
%LPC*%
G36*
X401391Y16739D02*
X401391Y16739D01*
X395439Y22691D01*
X395439Y31109D01*
X401391Y37061D01*
X409809Y37061D01*
X415761Y31109D01*
X415761Y22691D01*
X409809Y16739D01*
X401391Y16739D01*
G37*
%LPD*%
%LPC*%
G36*
X375991Y16739D02*
X375991Y16739D01*
X370039Y22691D01*
X370039Y31109D01*
X375991Y37061D01*
X384409Y37061D01*
X390361Y31109D01*
X390361Y22691D01*
X384409Y16739D01*
X375991Y16739D01*
G37*
%LPD*%
%LPC*%
G36*
X350591Y16739D02*
X350591Y16739D01*
X344639Y22691D01*
X344639Y31109D01*
X350591Y37061D01*
X359009Y37061D01*
X364961Y31109D01*
X364961Y22691D01*
X359009Y16739D01*
X350591Y16739D01*
G37*
%LPD*%
%LPC*%
G36*
X299791Y16739D02*
X299791Y16739D01*
X293839Y22691D01*
X293839Y31109D01*
X299791Y37061D01*
X308209Y37061D01*
X314161Y31109D01*
X314161Y22691D01*
X308209Y16739D01*
X299791Y16739D01*
G37*
%LPD*%
%LPC*%
G36*
X274391Y42139D02*
X274391Y42139D01*
X268439Y48091D01*
X268439Y56509D01*
X274391Y62461D01*
X282809Y62461D01*
X288761Y56509D01*
X288761Y48091D01*
X282809Y42139D01*
X274391Y42139D01*
G37*
%LPD*%
%LPC*%
G36*
X426791Y42139D02*
X426791Y42139D01*
X420839Y48091D01*
X420839Y56509D01*
X426791Y62461D01*
X435209Y62461D01*
X441161Y56509D01*
X441161Y48091D01*
X435209Y42139D01*
X426791Y42139D01*
G37*
%LPD*%
%LPC*%
G36*
X350591Y42139D02*
X350591Y42139D01*
X344639Y48091D01*
X344639Y56509D01*
X350591Y62461D01*
X359009Y62461D01*
X364961Y56509D01*
X364961Y48091D01*
X359009Y42139D01*
X350591Y42139D01*
G37*
%LPD*%
%LPC*%
G36*
X401391Y42139D02*
X401391Y42139D01*
X395439Y48091D01*
X395439Y56509D01*
X401391Y62461D01*
X409809Y62461D01*
X415761Y56509D01*
X415761Y48091D01*
X409809Y42139D01*
X401391Y42139D01*
G37*
%LPD*%
%LPC*%
G36*
X375991Y42139D02*
X375991Y42139D01*
X370039Y48091D01*
X370039Y56509D01*
X375991Y62461D01*
X384409Y62461D01*
X390361Y56509D01*
X390361Y48091D01*
X384409Y42139D01*
X375991Y42139D01*
G37*
%LPD*%
%LPC*%
G36*
X325191Y42139D02*
X325191Y42139D01*
X319239Y48091D01*
X319239Y56509D01*
X325191Y62461D01*
X333609Y62461D01*
X339561Y56509D01*
X339561Y48091D01*
X333609Y42139D01*
X325191Y42139D01*
G37*
%LPD*%
%LPC*%
G36*
X299791Y42139D02*
X299791Y42139D01*
X293839Y48091D01*
X293839Y56509D01*
X299791Y62461D01*
X308209Y62461D01*
X314161Y56509D01*
X314161Y48091D01*
X308209Y42139D01*
X299791Y42139D01*
G37*
%LPD*%
%LPC*%
G36*
X248991Y42139D02*
X248991Y42139D01*
X243039Y48091D01*
X243039Y56509D01*
X248991Y62461D01*
X257409Y62461D01*
X263361Y56509D01*
X263361Y48091D01*
X257409Y42139D01*
X248991Y42139D01*
G37*
%LPD*%
%LPC*%
G36*
X325191Y16739D02*
X325191Y16739D01*
X319239Y22691D01*
X319239Y31109D01*
X325191Y37061D01*
X333609Y37061D01*
X339561Y31109D01*
X339561Y22691D01*
X333609Y16739D01*
X325191Y16739D01*
G37*
%LPD*%
%LPC*%
G36*
X248991Y16739D02*
X248991Y16739D01*
X243039Y22691D01*
X243039Y31109D01*
X248991Y37061D01*
X257409Y37061D01*
X263361Y31109D01*
X263361Y22691D01*
X257409Y16739D01*
X248991Y16739D01*
G37*
%LPD*%
%LPC*%
G36*
X426791Y16739D02*
X426791Y16739D01*
X420839Y22691D01*
X420839Y31109D01*
X426791Y37061D01*
X435209Y37061D01*
X441161Y31109D01*
X441161Y22691D01*
X435209Y16739D01*
X426791Y16739D01*
G37*
%LPD*%
%LPC*%
G36*
X274391Y16739D02*
X274391Y16739D01*
X268439Y22691D01*
X268439Y31109D01*
X274391Y37061D01*
X282809Y37061D01*
X288761Y31109D01*
X288761Y22691D01*
X282809Y16739D01*
X274391Y16739D01*
G37*
%LPD*%
%LPC*%
G36*
X301512Y861055D02*
X301512Y861055D01*
X296155Y866412D01*
X296155Y873988D01*
X301512Y879345D01*
X309088Y879345D01*
X314445Y873988D01*
X314445Y866412D01*
X309088Y861055D01*
X301512Y861055D01*
G37*
%LPD*%
%LPC*%
G36*
X31523Y786523D02*
X31523Y786523D01*
X31523Y800241D01*
X36313Y800241D01*
X45241Y791313D01*
X45241Y786523D01*
X31523Y786523D01*
G37*
%LPD*%
%LPC*%
G36*
X14759Y786523D02*
X14759Y786523D01*
X14759Y791313D01*
X23687Y800241D01*
X28477Y800241D01*
X28477Y786523D01*
X14759Y786523D01*
G37*
%LPD*%
%LPC*%
G36*
X31523Y769759D02*
X31523Y769759D01*
X31523Y783477D01*
X45241Y783477D01*
X45241Y778687D01*
X36313Y769759D01*
X31523Y769759D01*
G37*
%LPD*%
%LPC*%
G36*
X23687Y769759D02*
X23687Y769759D01*
X14759Y778687D01*
X14759Y783477D01*
X28477Y783477D01*
X28477Y769759D01*
X23687Y769759D01*
G37*
%LPD*%
%LPC*%
G36*
X124962Y40057D02*
X124962Y40057D01*
X122638Y41020D01*
X120860Y42798D01*
X119897Y45122D01*
X119897Y47638D01*
X120860Y49962D01*
X122638Y51740D01*
X124962Y52703D01*
X127478Y52703D01*
X129802Y51740D01*
X131580Y49962D01*
X132543Y47638D01*
X132543Y45122D01*
X131580Y42798D01*
X129802Y41020D01*
X127478Y40057D01*
X124962Y40057D01*
G37*
%LPD*%
%LPC*%
G36*
X29962Y35057D02*
X29962Y35057D01*
X27638Y36020D01*
X25860Y37798D01*
X24897Y40122D01*
X24897Y42638D01*
X25860Y44962D01*
X27638Y46740D01*
X29962Y47703D01*
X32478Y47703D01*
X34802Y46740D01*
X36580Y44962D01*
X37543Y42638D01*
X37543Y40122D01*
X36580Y37798D01*
X34802Y36020D01*
X32478Y35057D01*
X29962Y35057D01*
G37*
%LPD*%
%LPC*%
G36*
X453223Y825123D02*
X453223Y825123D01*
X453223Y833761D01*
X460120Y833761D01*
X461699Y833511D01*
X463220Y833016D01*
X464645Y832290D01*
X465939Y831350D01*
X467070Y830219D01*
X468010Y828925D01*
X468736Y827500D01*
X469231Y825979D01*
X469366Y825123D01*
X453223Y825123D01*
G37*
%LPD*%
%LPC*%
G36*
X434034Y825123D02*
X434034Y825123D01*
X434169Y825979D01*
X434664Y827500D01*
X435390Y828925D01*
X436330Y830219D01*
X437461Y831350D01*
X438755Y832290D01*
X440180Y833016D01*
X441701Y833511D01*
X443280Y833761D01*
X450177Y833761D01*
X450177Y825123D01*
X434034Y825123D01*
G37*
%LPD*%
%LPC*%
G36*
X453223Y813439D02*
X453223Y813439D01*
X453223Y822077D01*
X469366Y822077D01*
X469231Y821221D01*
X468736Y819700D01*
X468010Y818275D01*
X467070Y816981D01*
X465939Y815850D01*
X464645Y814910D01*
X463220Y814184D01*
X461699Y813689D01*
X460120Y813439D01*
X453223Y813439D01*
G37*
%LPD*%
%LPC*%
G36*
X443280Y813439D02*
X443280Y813439D01*
X441701Y813689D01*
X440180Y814184D01*
X438755Y814910D01*
X437461Y815850D01*
X436330Y816981D01*
X435390Y818275D01*
X434664Y819700D01*
X434169Y821221D01*
X434034Y822077D01*
X450177Y822077D01*
X450177Y813439D01*
X443280Y813439D01*
G37*
%LPD*%
%LPC*%
G36*
X566523Y251523D02*
X566523Y251523D01*
X566523Y263336D01*
X570524Y263336D01*
X578336Y255524D01*
X578336Y251523D01*
X566523Y251523D01*
G37*
%LPD*%
%LPC*%
G36*
X571523Y41523D02*
X571523Y41523D01*
X571523Y53336D01*
X575524Y53336D01*
X583336Y45524D01*
X583336Y41523D01*
X571523Y41523D01*
G37*
%LPD*%
%LPC*%
G36*
X566523Y236664D02*
X566523Y236664D01*
X566523Y248477D01*
X578336Y248477D01*
X578336Y244476D01*
X570524Y236664D01*
X566523Y236664D01*
G37*
%LPD*%
%LPC*%
G36*
X551664Y251523D02*
X551664Y251523D01*
X551664Y255524D01*
X559476Y263336D01*
X563477Y263336D01*
X563477Y251523D01*
X551664Y251523D01*
G37*
%LPD*%
%LPC*%
G36*
X571523Y26664D02*
X571523Y26664D01*
X571523Y38477D01*
X583336Y38477D01*
X583336Y34476D01*
X575524Y26664D01*
X571523Y26664D01*
G37*
%LPD*%
%LPC*%
G36*
X556664Y41523D02*
X556664Y41523D01*
X556664Y45524D01*
X564476Y53336D01*
X568477Y53336D01*
X568477Y41523D01*
X556664Y41523D01*
G37*
%LPD*%
%LPC*%
G36*
X564476Y26664D02*
X564476Y26664D01*
X556664Y34476D01*
X556664Y38477D01*
X568477Y38477D01*
X568477Y26664D01*
X564476Y26664D01*
G37*
%LPD*%
%LPC*%
G36*
X559476Y236664D02*
X559476Y236664D01*
X551664Y244476D01*
X551664Y248477D01*
X563477Y248477D01*
X563477Y236664D01*
X559476Y236664D01*
G37*
%LPD*%
%LPC*%
G36*
X86423Y157323D02*
X86423Y157323D01*
X86423Y166811D01*
X87502Y166640D01*
X89166Y166099D01*
X90725Y165305D01*
X92140Y164277D01*
X93377Y163040D01*
X94405Y161625D01*
X95199Y160066D01*
X95740Y158402D01*
X95911Y157323D01*
X86423Y157323D01*
G37*
%LPD*%
%LPC*%
G36*
X73889Y157323D02*
X73889Y157323D01*
X74060Y158402D01*
X74601Y160066D01*
X75395Y161625D01*
X76423Y163040D01*
X77660Y164277D01*
X79075Y165305D01*
X80634Y166099D01*
X82298Y166640D01*
X83377Y166811D01*
X83377Y157323D01*
X73889Y157323D01*
G37*
%LPD*%
%LPC*%
G36*
X86423Y128877D02*
X86423Y128877D01*
X95911Y128877D01*
X95740Y127798D01*
X95199Y126134D01*
X94405Y124575D01*
X93377Y123160D01*
X92140Y121923D01*
X90725Y120895D01*
X89166Y120101D01*
X87502Y119560D01*
X86423Y119389D01*
X86423Y128877D01*
G37*
%LPD*%
%LPC*%
G36*
X82298Y119560D02*
X82298Y119560D01*
X80634Y120101D01*
X79075Y120895D01*
X77660Y121923D01*
X76423Y123160D01*
X75395Y124575D01*
X74601Y126134D01*
X74060Y127798D01*
X73889Y128877D01*
X83377Y128877D01*
X83377Y119389D01*
X82298Y119560D01*
G37*
%LPD*%
%LPC*%
G36*
X203923Y53823D02*
X203923Y53823D01*
X203923Y62461D01*
X206609Y62461D01*
X212561Y56509D01*
X212561Y53823D01*
X203923Y53823D01*
G37*
%LPD*%
%LPC*%
G36*
X203923Y28423D02*
X203923Y28423D01*
X203923Y37061D01*
X206609Y37061D01*
X212561Y31109D01*
X212561Y28423D01*
X203923Y28423D01*
G37*
%LPD*%
%LPC*%
G36*
X229323Y28423D02*
X229323Y28423D01*
X229323Y37061D01*
X232009Y37061D01*
X237961Y31109D01*
X237961Y28423D01*
X229323Y28423D01*
G37*
%LPD*%
%LPC*%
G36*
X229323Y53823D02*
X229323Y53823D01*
X229323Y62461D01*
X232009Y62461D01*
X237961Y56509D01*
X237961Y53823D01*
X229323Y53823D01*
G37*
%LPD*%
%LPC*%
G36*
X192239Y53823D02*
X192239Y53823D01*
X192239Y56509D01*
X198191Y62461D01*
X200877Y62461D01*
X200877Y53823D01*
X192239Y53823D01*
G37*
%LPD*%
%LPC*%
G36*
X217639Y53823D02*
X217639Y53823D01*
X217639Y56509D01*
X223591Y62461D01*
X226277Y62461D01*
X226277Y53823D01*
X217639Y53823D01*
G37*
%LPD*%
%LPC*%
G36*
X217639Y28423D02*
X217639Y28423D01*
X217639Y31109D01*
X223591Y37061D01*
X226277Y37061D01*
X226277Y28423D01*
X217639Y28423D01*
G37*
%LPD*%
%LPC*%
G36*
X192239Y28423D02*
X192239Y28423D01*
X192239Y31109D01*
X198191Y37061D01*
X200877Y37061D01*
X200877Y28423D01*
X192239Y28423D01*
G37*
%LPD*%
%LPC*%
G36*
X203923Y42139D02*
X203923Y42139D01*
X203923Y50777D01*
X212561Y50777D01*
X212561Y48091D01*
X206609Y42139D01*
X203923Y42139D01*
G37*
%LPD*%
%LPC*%
G36*
X229323Y42139D02*
X229323Y42139D01*
X229323Y50777D01*
X237961Y50777D01*
X237961Y48091D01*
X232009Y42139D01*
X229323Y42139D01*
G37*
%LPD*%
%LPC*%
G36*
X203923Y16739D02*
X203923Y16739D01*
X203923Y25377D01*
X212561Y25377D01*
X212561Y22691D01*
X206609Y16739D01*
X203923Y16739D01*
G37*
%LPD*%
%LPC*%
G36*
X229323Y16739D02*
X229323Y16739D01*
X229323Y25377D01*
X237961Y25377D01*
X237961Y22691D01*
X232009Y16739D01*
X229323Y16739D01*
G37*
%LPD*%
%LPC*%
G36*
X223591Y42139D02*
X223591Y42139D01*
X217639Y48091D01*
X217639Y50777D01*
X226277Y50777D01*
X226277Y42139D01*
X223591Y42139D01*
G37*
%LPD*%
%LPC*%
G36*
X223591Y16739D02*
X223591Y16739D01*
X217639Y22691D01*
X217639Y25377D01*
X226277Y25377D01*
X226277Y16739D01*
X223591Y16739D01*
G37*
%LPD*%
%LPC*%
G36*
X198191Y16739D02*
X198191Y16739D01*
X192239Y22691D01*
X192239Y25377D01*
X200877Y25377D01*
X200877Y16739D01*
X198191Y16739D01*
G37*
%LPD*%
%LPC*%
G36*
X198191Y42139D02*
X198191Y42139D01*
X192239Y48091D01*
X192239Y50777D01*
X200877Y50777D01*
X200877Y42139D01*
X198191Y42139D01*
G37*
%LPD*%
%LPC*%
G36*
X281423Y871723D02*
X281423Y871723D01*
X281423Y879345D01*
X283688Y879345D01*
X289045Y873988D01*
X289045Y871723D01*
X281423Y871723D01*
G37*
%LPD*%
%LPC*%
G36*
X270755Y871723D02*
X270755Y871723D01*
X270755Y873988D01*
X276112Y879345D01*
X278377Y879345D01*
X278377Y871723D01*
X270755Y871723D01*
G37*
%LPD*%
%LPC*%
G36*
X281423Y861055D02*
X281423Y861055D01*
X281423Y868677D01*
X289045Y868677D01*
X289045Y866412D01*
X283688Y861055D01*
X281423Y861055D01*
G37*
%LPD*%
%LPC*%
G36*
X276112Y861055D02*
X276112Y861055D01*
X270755Y866412D01*
X270755Y868677D01*
X278377Y868677D01*
X278377Y861055D01*
X276112Y861055D01*
G37*
%LPD*%
%LPC*%
G36*
X279899Y870199D02*
X279899Y870199D01*
X279899Y870201D01*
X279901Y870201D01*
X279901Y870199D01*
X279899Y870199D01*
G37*
%LPD*%
%LPC*%
G36*
X227799Y52299D02*
X227799Y52299D01*
X227799Y52301D01*
X227801Y52301D01*
X227801Y52299D01*
X227799Y52299D01*
G37*
%LPD*%
%LPC*%
G36*
X569999Y39999D02*
X569999Y39999D01*
X569999Y40001D01*
X570001Y40001D01*
X570001Y39999D01*
X569999Y39999D01*
G37*
%LPD*%
%LPC*%
G36*
X564999Y249999D02*
X564999Y249999D01*
X564999Y250001D01*
X565001Y250001D01*
X565001Y249999D01*
X564999Y249999D01*
G37*
%LPD*%
%LPC*%
G36*
X29999Y784999D02*
X29999Y784999D01*
X29999Y785001D01*
X30001Y785001D01*
X30001Y784999D01*
X29999Y784999D01*
G37*
%LPD*%
%LPC*%
G36*
X451699Y823599D02*
X451699Y823599D01*
X451699Y823601D01*
X451701Y823601D01*
X451701Y823599D01*
X451699Y823599D01*
G37*
%LPD*%
%LPC*%
G36*
X202399Y52299D02*
X202399Y52299D01*
X202399Y52301D01*
X202401Y52301D01*
X202401Y52299D01*
X202399Y52299D01*
G37*
%LPD*%
%LPC*%
G36*
X202399Y26899D02*
X202399Y26899D01*
X202399Y26901D01*
X202401Y26901D01*
X202401Y26899D01*
X202399Y26899D01*
G37*
%LPD*%
%LPC*%
G36*
X227799Y26899D02*
X227799Y26899D01*
X227799Y26901D01*
X227801Y26901D01*
X227801Y26899D01*
X227799Y26899D01*
G37*
%LPD*%
D10*
X431000Y26900D03*
X405600Y26900D03*
X380200Y26900D03*
X354800Y26900D03*
X329400Y26900D03*
X304000Y26900D03*
X278600Y26900D03*
X253200Y26900D03*
X227800Y26900D03*
X202400Y26900D03*
X431000Y52300D03*
X405600Y52300D03*
X380200Y52300D03*
X354800Y52300D03*
X329400Y52300D03*
X304000Y52300D03*
X278600Y52300D03*
X253200Y52300D03*
X227800Y52300D03*
X202400Y52300D03*
D11*
X444080Y722000D02*
X459320Y722000D01*
X459320Y747400D02*
X444080Y747400D01*
X444080Y772800D02*
X459320Y772800D01*
X459320Y798200D02*
X444080Y798200D01*
X444080Y823600D02*
X459320Y823600D01*
D12*
X305300Y870200D03*
X279900Y870200D03*
D13*
X84900Y105000D03*
X84900Y130400D03*
X84900Y155800D03*
X84900Y181200D03*
D14*
X30000Y523810D03*
X30000Y620000D03*
X30000Y865000D03*
X30000Y785000D03*
X30000Y720000D03*
D15*
X125000Y220000D03*
X165000Y270000D03*
X155000Y430000D03*
X565000Y250000D03*
X570000Y40000D03*
X300000Y695000D03*
X60000Y685000D03*
X250000Y435000D03*
D16*
X225000Y370000D03*
D17*
X260000Y370000D01*
D16*
X260000Y370000D03*
X160000Y100000D03*
X160000Y30000D03*
X435000Y5000D03*
X5000Y130000D03*
X5000Y80000D03*
X5000Y5000D03*
X55000Y5000D03*
X605000Y5000D03*
X555000Y5000D03*
X505000Y5000D03*
X605000Y55000D03*
X605000Y105000D03*
X605000Y155000D03*
X605000Y200000D03*
X535000Y200000D03*
X535000Y155000D03*
X535000Y105000D03*
X535000Y55000D03*
X435000Y135000D03*
X415000Y80000D03*
X295000Y95000D03*
X200000Y105000D03*
X135000Y125000D03*
X341630Y111760D03*
X368740Y141460D03*
X480000Y50000D03*
X190000Y145000D03*
X215000Y40000D03*
X305000Y140000D03*
X390000Y150000D03*
D18*
X195000Y575000D03*
D17*
X245000Y575000D01*
D18*
X245000Y575000D03*
D19*
X213725Y398725D03*
D20*
X225000Y410000D01*
D19*
X280670Y410000D03*
D20*
X225000Y410000D01*
D21*
X451700Y823600D02*
X464180Y823600D01*
X464820Y822960D01*
X466090Y822960D01*
X474980Y814070D01*
X476250Y814070D01*
D16*
X474980Y814070D03*
X205000Y310000D03*
D22*
X205000Y275000D01*
D16*
X205000Y275000D03*
X420000Y550000D03*
D23*
X404224Y550000D01*
D16*
X404224Y550000D03*
X535000Y250000D03*
D21*
X535000Y285000D01*
D16*
X535000Y285000D03*
X535000Y345000D03*
D21*
X535000Y405000D01*
D16*
X535000Y405000D03*
X535940Y482600D03*
D21*
X516890Y482600D01*
D16*
X471351Y482600D03*
X516890Y482600D03*
D21*
X471351Y482600D01*
X535940Y482600D02*
X565150Y482600D01*
D16*
X565150Y482600D03*
D22*
X535000Y250000D02*
X535000Y220000D01*
D16*
X535000Y220000D03*
X46250Y750000D03*
X180000Y185000D03*
X605000Y220000D03*
X605000Y270000D03*
X605000Y320000D03*
X605000Y370000D03*
X605000Y420000D03*
X605000Y470000D03*
X605000Y520000D03*
X605000Y570000D03*
X605000Y620000D03*
X605000Y670000D03*
X605000Y720000D03*
X605000Y770000D03*
X605000Y820000D03*
X605000Y870000D03*
X605000Y900000D03*
X555000Y900000D03*
X505000Y900000D03*
X455000Y900000D03*
X405000Y900000D03*
X355000Y900000D03*
X305000Y900000D03*
X255000Y900000D03*
X205000Y900000D03*
X155000Y900000D03*
X105000Y900000D03*
X55000Y900000D03*
X5000Y900000D03*
X5000Y850000D03*
X5000Y800000D03*
X5000Y750000D03*
X5000Y700000D03*
X5000Y650000D03*
X5000Y600000D03*
X5000Y550000D03*
X5000Y500000D03*
X5000Y450000D03*
X5000Y400000D03*
X5000Y350000D03*
X5000Y300000D03*
X5000Y250000D03*
X5000Y200000D03*
X45000Y160000D03*
X120000Y750000D03*
X405000Y830000D03*
X505000Y820000D03*
X505000Y675000D03*
X450000Y650000D03*
X435000Y480000D03*
X565000Y420000D03*
X420370Y335280D03*
X382640Y385090D03*
X272640Y670090D03*
X347640Y645090D03*
X341730Y430620D03*
X291290Y431150D03*
X221290Y431150D03*
X118130Y408820D03*
X92030Y409030D03*
X92200Y656890D03*
X129200Y674990D03*
X44200Y459990D03*
X34200Y319990D03*
X124200Y314990D03*
X264630Y246370D03*
X454630Y236370D03*
X587640Y482700D03*
X295000Y525000D03*
X320040Y527050D03*
X246420Y498620D03*
X139930Y628460D03*
X170180Y836930D03*
X331100Y275690D03*
X371740Y284580D03*
X381900Y256720D03*
X380630Y456030D03*
X372740Y719850D03*
X125910Y844640D03*
X280910Y204640D03*
X224430Y343810D03*
X401814Y448310D03*
X80000Y800000D03*
X210000Y775000D03*
X310000Y815000D03*
X195580Y505460D03*
X206320Y629110D03*
X188010Y673480D03*
X85640Y274070D03*
X479170Y350040D03*
X474170Y285040D03*
X526220Y561380D03*
X526220Y741380D03*
X126220Y46380D03*
X31220Y41380D03*
X136220Y241380D03*
X156220Y541380D03*
X495840Y426860D03*
X485840Y386860D03*
X135000Y160000D03*
X55880Y847090D03*
D19*
X80000Y750000D03*
D20*
X80000Y358150D02*
X80010Y358140D01*
X79375Y357505D01*
D19*
X79375Y357505D03*
X351250Y583750D03*
X80000Y460000D03*
D20*
X80000Y370000D02*
X80000Y358150D01*
D19*
X140000Y460000D03*
D20*
X275000Y460000D02*
X300000Y485000D01*
D19*
X300000Y485000D03*
X320000Y485000D03*
X351250Y485000D03*
D20*
X320000Y485000D01*
X351250Y583750D02*
X352500Y585000D01*
D19*
X385286Y585000D03*
X401556Y585000D03*
D20*
X426556Y610000D01*
X544249Y610000D01*
D19*
X544249Y610000D03*
D20*
X385286Y585000D02*
X352500Y585000D01*
X160000Y460000D02*
X140000Y460000D01*
X160000Y460000D02*
X275000Y460000D01*
D16*
X160000Y460000D03*
X80000Y370000D03*
X482600Y721360D03*
D20*
X481960Y722000D02*
X451700Y722000D01*
X481960Y722000D02*
X482600Y721360D01*
D24*
X80000Y750000D02*
X80000Y460000D01*
X80000Y370000D01*
D18*
X105000Y245000D03*
D25*
X105000Y485000D02*
X105000Y690000D01*
X160000Y745000D01*
X170000Y755000D01*
D18*
X330000Y755000D03*
X105000Y485000D03*
D25*
X170000Y755000D02*
X330000Y755000D01*
X105000Y485000D02*
X105000Y245000D01*
D18*
X160000Y745000D03*
D16*
X275000Y115000D03*
X100000Y75000D03*
D20*
X235000Y75000D01*
X275000Y115000D01*
D16*
X430000Y740000D03*
D21*
X437070Y747070D01*
D16*
X355000Y265000D03*
D26*
X355000Y315000D01*
D16*
X355000Y315000D03*
X335000Y325000D03*
D26*
X390000Y325000D01*
D16*
X390000Y325000D03*
X312420Y302260D03*
D26*
X312420Y278130D01*
X337820Y252730D01*
X367730Y252730D02*
X367850Y252850D01*
D16*
X367850Y252850D03*
D26*
X367730Y252730D02*
X337820Y252730D01*
D19*
X332740Y307340D03*
X127540Y656270D03*
D27*
X127540Y402460D01*
X305080Y335000D02*
X332740Y307340D01*
X195000Y335000D02*
X127540Y402460D01*
X195000Y335000D02*
X305080Y335000D01*
D16*
X290000Y730000D03*
X405000Y310000D03*
D23*
X330000Y730000D02*
X290000Y730000D01*
X393730Y666270D02*
X393730Y391270D01*
X405000Y380000D01*
X405000Y310000D01*
X393730Y666270D02*
X330000Y730000D01*
D16*
X340000Y785000D03*
X395525Y705405D03*
D21*
X395525Y729475D01*
X340000Y785000D01*
D16*
X298450Y273050D03*
D26*
X331500Y240000D01*
X340000Y240000D01*
D16*
X340000Y240000D03*
X325120Y342900D03*
D21*
X310000Y358020D01*
X310000Y675000D01*
D16*
X310000Y675000D03*
M02*
