M48
;GenerationSoftware,Autodesk,EAGLE,9.3.2*%
;CreationDate,2020-03-14T17:07:59Z*%
FMAT,2
ICI,OFF
METRIC,TZ,000.000
T7C0.350
T6C0.600
T5C0.813
T4C1.000
T3C1.016
T2C1.110
T1C2.800
%
G90
M71
T1
X28010Y63045
X5010Y63045
X5010Y5045
X28010Y5045
T2
X28970Y42935
X26430Y40395
X28970Y40395
X26430Y37855
X28970Y37855
X26430Y35315
X28970Y35315
X26430Y32775
X28970Y32775
X26430Y30235
X28970Y30235
X26430Y27695
X28970Y27695
X26430Y25155
X28970Y25155
X26430Y22615
X28970Y22615
X26430Y20075
X28970Y20075
X26430Y17535
X28970Y17535
X26430Y14995
X28970Y14995
X26430Y12455
X28970Y12455
X26430Y9915
X28970Y9915
X23890Y9915
X23890Y12455
X21350Y12455
X26430Y45475
X21350Y9915
X28970Y45475
X26430Y42935
X26430Y58175
X28970Y58175
X26430Y55635
X28970Y55635
X26430Y53095
X28970Y53095
X26430Y50555
X28970Y50555
X26430Y48015
X28970Y48015
T3
X113730Y37650
X116270Y37650
X113730Y35110
X116270Y35110
X113730Y32570
X116270Y32570
X133730Y55430
X136270Y55430
X133730Y52890
X136270Y52890
X133730Y50350
X136270Y50350
X133730Y47810
X136270Y47810
X136270Y45270
X133730Y42730
X136270Y42730
X133730Y40190
X136270Y40190
X133730Y37650
X136270Y37650
X133730Y35110
X136270Y35110
X56270Y37650
X133730Y32570
X136270Y32570
X42400Y72470
X42400Y69930
X33670Y69600
X31130Y69600
X27651Y69739
X27651Y74261
X21149Y69739
X21149Y74261
X53730Y55430
X56270Y55430
X53730Y52890
X56270Y52890
X53730Y50350
X56270Y50350
X53730Y47810
X56270Y47810
X53730Y45270
X56270Y45270
X53730Y42730
X56270Y42730
X53730Y40190
X56270Y40190
X53730Y37650
X133730Y45270
X53730Y35110
X56270Y35110
X53730Y32570
X56270Y32570
X73730Y55430
X76270Y55430
X73730Y52890
X76270Y52890
X73730Y50350
X76270Y50350
X73730Y47810
X76270Y47810
X73730Y45270
X76270Y45270
X73730Y42730
X76270Y42730
X73730Y40190
X76270Y40190
X73730Y37650
X76270Y37650
X73730Y35110
X76270Y35110
X73730Y32570
X76270Y32570
X93730Y55430
X96270Y55430
X93730Y52890
X96270Y52890
X93730Y50350
X96270Y50350
X93730Y47810
X96270Y47810
X93730Y45270
X96270Y45270
X93730Y42730
X96270Y42730
X93730Y40190
X96270Y40190
X93730Y37650
X96270Y37650
X93730Y35110
X96270Y35110
X93730Y32570
X96270Y32570
X113730Y55430
X116270Y55430
X113730Y52890
X116270Y52890
X113730Y50350
X116270Y50350
X113730Y47810
X116270Y47810
X113730Y45270
X116270Y45270
X113730Y42730
X116270Y42730
X113730Y40190
X116270Y40190
T4
X13900Y77200
X7800Y77200
X10800Y72400
T5
X10070Y31200
X7530Y31200
T6
X68400Y65200
X69600Y62400
T7
X13965Y43200
X11600Y43200
X45600Y68800
X9200Y43200
X24190Y28400
X32400Y27600
X16800Y71200
X16400Y25200
X17600Y38800
X14000Y70800
X26898Y79698
X9200Y39200
X24000Y50400
X8942Y38035
X36400Y70800
X18400Y70400
X11233Y40400
X39200Y70800
X8000Y59600
X17235Y60000
X34000Y57600
X44800Y63200
X32800Y67200
X25200Y34000
X16800Y33200
X39916Y79783
X37600Y57200
X21200Y43200
X18800Y43200
X16400Y43200
X24800Y41600
X37600Y70800
M30