M48
;GenerationSoftware,Autodesk,EAGLE,9.3.1*%
;CreationDate,2020-03-19T14:02:15Z*%
FMAT,2
ICI,OFF
METRIC,TZ,000.000
T8C0.350
T7C0.400
T6C0.450
T5C0.813
T4C1.016
T3C1.143
T2C1.321
T1C1.397
%
G90
M71
T1
X3000Y78500
X3000Y70500
X3000Y86500
X2500Y63500
X2500Y51381
T2
X25000Y43500
X30000Y69500
X57000Y4000
X56500Y25000
X6000Y68500
X15500Y43000
X16500Y27000
X12500Y22000
T3
X8490Y15580
X8490Y13040
X8490Y10500
X8490Y18120
T4
X35480Y5230
X45170Y74740
X45170Y77280
X45170Y79820
X45170Y82360
X43100Y2690
X40560Y2690
X38020Y2690
X35480Y2690
X32940Y2690
X30400Y2690
X27860Y2690
X25320Y2690
X22780Y2690
X20240Y2690
X43100Y5230
X40560Y5230
X38020Y5230
X32940Y5230
X30400Y5230
X27860Y5230
X25320Y5230
X22780Y5230
X20240Y5230
X45170Y72200
T5
X30530Y87020
X27990Y87020
T6
X19500Y57500
X24500Y57500
X16000Y74500
X11200Y48500
X33000Y75500
X10500Y24500
T7
X21373Y39873
X28067Y41000
X13084Y65417
X9000Y46000
X54425Y61000
X40156Y58500
X38529Y58500
X35125Y48500
X32000Y48500
X30000Y48500
X14000Y46000
X35125Y58375
X7937Y35751
X9000Y75000
T8
X60500Y52000
X60500Y57000
X60500Y62000
X60500Y67000
X60500Y72000
X60500Y77000
X60500Y82000
X60500Y87000
X60500Y90000
X55500Y90000
X50500Y90000
X45500Y90000
X40500Y90000
X35500Y90000
X30500Y90000
X25500Y90000
X20500Y90000
X15500Y90000
X10500Y90000
X5500Y90000
X500Y90000
X500Y85000
X500Y80000
X500Y75000
X500Y70000
X500Y65000
X500Y60000
X500Y55000
X500Y50000
X500Y45000
X500Y40000
X500Y35000
X500Y30000
X500Y25000
X500Y20000
X4500Y16000
X12000Y75000
X40500Y83000
X50500Y82000
X50500Y67500
X45000Y65000
X43500Y48000
X56500Y42000
X42037Y33528
X38264Y38509
X27264Y67009
X34764Y64509
X34173Y43062
X29129Y43115
X22129Y43115
X12513Y40982
X9903Y40803
X10050Y65599
X12920Y67499
X4920Y44999
X3420Y31999
X12420Y31499
X26463Y24637
X45463Y23637
X30500Y14000
X29500Y52500
X32004Y52705
X24642Y49862
X13993Y62846
X17018Y83693
X33110Y27569
X37174Y28458
X38190Y25672
X38063Y45603
X37274Y71985
X12591Y84464
X28091Y20464
X22443Y34381
X40181Y44831
X8000Y80000
X21000Y77500
X31500Y80000
X19558Y50546
X20632Y62911
X18801Y67348
X8564Y27407
X47917Y35004
X47417Y28504
X52622Y56138
X52622Y74138
X13622Y24138
X15622Y54138
X49584Y42686
X48584Y38686
X13500Y16000
X5588Y84709
X48895Y55245
X53000Y62500
X31879Y40628
X36512Y56745
X36334Y60443
X12500Y87500
X18091Y87464
X22500Y37000
X26000Y37000
X16000Y10000
X16000Y3000
X43500Y500
X500Y13000
X500Y8000
X500Y500
X5500Y500
X60500Y500
X53500Y500
X16000Y46000
X8000Y37000
X48000Y500
X60500Y5500
X60500Y10500
X60500Y15500
X27500Y11500
X10000Y7500
X21000Y48000
X15000Y48000
X35500Y26500
X35500Y31500
X60500Y20000
X39000Y32500
X31242Y30226
X36785Y25285
X13030Y86040
X17980Y86030
X53500Y20000
X33274Y30734
X29000Y73000
X40500Y31000
X34000Y78500
X39553Y70541
X29845Y27305
X34000Y24000
X32512Y34290
X31000Y67500
X36300Y30500
X53500Y15500
X53500Y10500
X53500Y5500
X43500Y13500
X41500Y8000
X29500Y9500
X20000Y10500
X13500Y12500
X34163Y11176
X36874Y14146
X48000Y5500
X19000Y14500
X21500Y4000
X58764Y48270
X39000Y15000
X12573Y4699
X3121Y4136
X29900Y17300
X38300Y6800
X25500Y12000
X33084Y18486
X35584Y17986
X20500Y31000
X20500Y27500
X42270Y54990
X40242Y55000
X53500Y25000
X53500Y28500
X53500Y34500
X53500Y40500
X53594Y48260
X47135Y48260
X51689Y48260
X56515Y48260
X53500Y22000
X4625Y75000
X18000Y18500
X60500Y22000
X60500Y27000
X60500Y32000
X60500Y37000
X60500Y42000
X60500Y47000
X33500Y32500
M30